<ttFont>
    <TTGlyph name=".ttfautohint" xMin="0" yMin="0" xMax="0" yMax="0">
      <contour>
        <pt x="0" y="0" on="1"/>
      </contour>
    </TTGlyph>
    <TTGlyph name="A" xMin="-32" yMin="0" xMax="522" yMax="626">
      <contour>
        <pt x="189" y="223" on="1"/>
        <pt x="102" y="47" on="1"/>
        <pt x="167" y="37" on="1"/>
        <pt x="158" y="0" on="1"/>
        <pt x="-32" y="0" on="1"/>
        <pt x="-27" y="35" on="1"/>
        <pt x="45" y="48" on="1"/>
        <pt x="328" y="615" on="1"/>
        <pt x="381" y="626" on="1"/>
        <pt x="460" y="52" on="1"/>
        <pt x="522" y="35" on="1"/>
        <pt x="516" y="0" on="1"/>
        <pt x="312" y="0" on="1"/>
        <pt x="317" y="36" on="1"/>
        <pt x="379" y="48" on="1"/>
        <pt x="356" y="223" on="1"/>
      </contour>
      <contour>
        <pt x="350" y="266" on="1"/>
        <pt x="321" y="489" on="1"/>
        <pt x="210" y="266" on="1"/>
      </contour>
    </TTGlyph>
    <TTGlyph name="AE" xMin="-101" yMin="0" xMax="681" yMax="611">
      <contour>
        <pt x="533" y="309" on="1"/>
        <pt x="566" y="375" on="1"/>
        <pt x="600" y="375" on="1"/>
        <pt x="565" y="194" on="1"/>
        <pt x="531" y="194" on="1"/>
        <pt x="521" y="263" on="1"/>
        <pt x="411" y="263" on="1"/>
        <pt x="385" y="56" on="1"/>
        <pt x="558" y="56" on="1"/>
        <pt x="600" y="147" on="1"/>
        <pt x="637" y="147" on="1"/>
        <pt x="609" y="0" on="1"/>
        <pt x="207" y="0" on="1"/>
        <pt x="213" y="33" on="1"/>
        <pt x="306" y="53" on="1"/>
        <pt x="333" y="263" on="1"/>
        <pt x="189" y="263" on="1"/>
        <pt x="33" y="47" on="1"/>
        <pt x="98" y="37" on="1"/>
        <pt x="89" y="0" on="1"/>
        <pt x="-101" y="0" on="1"/>
        <pt x="-96" y="35" on="1"/>
        <pt x="-24" y="48" on="1"/>
        <pt x="346" y="564" on="1"/>
        <pt x="286" y="578" on="1"/>
        <pt x="292" y="611" on="1"/>
        <pt x="681" y="611" on="1"/>
        <pt x="656" y="479" on="1"/>
        <pt x="618" y="479" on="1"/>
        <pt x="618" y="559" on="1"/>
        <pt x="450" y="559" on="1"/>
        <pt x="417" y="309" on="1"/>
      </contour>
      <contour>
        <pt x="364" y="505" on="1"/>
        <pt x="222" y="309" on="1"/>
        <pt x="339" y="309" on="1"/>
      </contour>
    </TTGlyph>
    <TTGlyph name="AEacute" xMin="-101" yMin="0" xMax="681" yMax="800">
      <component glyphName=".ttfautohint" x="0" y="0" flags="0x0"/>
      <component glyphName="AE" x="0" y="0" flags="0x0"/>
      <component glyphName="acutecomb" x="538" y="0" flags="0x0"/>
    </TTGlyph>
    <TTGlyph name="Aacute" xMin="-33" yMin="0" xMax="521" yMax="800">
      <contour>
        <pt x="268" y="670" on="1"/>
        <pt x="422" y="800" on="1"/>
        <pt x="498" y="772" on="1"/>
        <pt x="498" y="754" on="1"/>
        <pt x="284" y="651" on="1"/>
      </contour>
      <contour>
        <pt x="188" y="223" on="1"/>
        <pt x="101" y="47" on="1"/>
        <pt x="166" y="37" on="1"/>
        <pt x="157" y="0" on="1"/>
        <pt x="-33" y="0" on="1"/>
        <pt x="-28" y="35" on="1"/>
        <pt x="44" y="48" on="1"/>
        <pt x="327" y="615" on="1"/>
        <pt x="380" y="626" on="1"/>
        <pt x="459" y="52" on="1"/>
        <pt x="521" y="35" on="1"/>
        <pt x="515" y="0" on="1"/>
        <pt x="311" y="0" on="1"/>
        <pt x="316" y="36" on="1"/>
        <pt x="378" y="48" on="1"/>
        <pt x="355" y="223" on="1"/>
      </contour>
      <contour>
        <pt x="349" y="266" on="1"/>
        <pt x="320" y="489" on="1"/>
        <pt x="209" y="266" on="1"/>
      </contour>
    </TTGlyph>
    <TTGlyph name="Abreve" xMin="-33" yMin="0" xMax="521" yMax="785">
      <contour>
        <pt x="266" y="669" on="0"/>
        <pt x="266" y="756" on="1"/>
        <pt x="266" y="763" on="0"/>
        <pt x="271" y="785" on="1"/>
        <pt x="305" y="785" on="1"/>
        <pt x="302" y="778" on="0"/>
        <pt x="302" y="769" on="1"/>
        <pt x="304" y="747" on="0"/>
        <pt x="334" y="723" on="0"/>
        <pt x="374" y="723" on="1"/>
        <pt x="460" y="723" on="0"/>
        <pt x="472" y="785" on="1"/>
        <pt x="505" y="785" on="1"/>
        <pt x="481" y="669" on="0"/>
        <pt x="367" y="669" on="1"/>
      </contour>
      <contour>
        <pt x="188" y="223" on="1"/>
        <pt x="101" y="47" on="1"/>
        <pt x="166" y="37" on="1"/>
        <pt x="157" y="0" on="1"/>
        <pt x="-33" y="0" on="1"/>
        <pt x="-28" y="35" on="1"/>
        <pt x="44" y="48" on="1"/>
        <pt x="327" y="615" on="1"/>
        <pt x="380" y="626" on="1"/>
        <pt x="459" y="52" on="1"/>
        <pt x="521" y="35" on="1"/>
        <pt x="515" y="0" on="1"/>
        <pt x="311" y="0" on="1"/>
        <pt x="316" y="36" on="1"/>
        <pt x="378" y="48" on="1"/>
        <pt x="355" y="223" on="1"/>
      </contour>
      <contour>
        <pt x="349" y="266" on="1"/>
        <pt x="320" y="489" on="1"/>
        <pt x="209" y="266" on="1"/>
      </contour>
    </TTGlyph>
    <TTGlyph name="Acircumflex" xMin="-33" yMin="0" xMax="521" yMax="804">
      <contour>
        <pt x="387" y="733" on="1"/>
        <pt x="248" y="650" on="1"/>
        <pt x="228" y="669" on="1"/>
        <pt x="367" y="804" on="1"/>
        <pt x="427" y="804" on="1"/>
        <pt x="506" y="669" on="1"/>
        <pt x="480" y="650" on="1"/>
      </contour>
      <contour>
        <pt x="188" y="223" on="1"/>
        <pt x="101" y="47" on="1"/>
        <pt x="166" y="37" on="1"/>
        <pt x="157" y="0" on="1"/>
        <pt x="-33" y="0" on="1"/>
        <pt x="-28" y="35" on="1"/>
        <pt x="44" y="48" on="1"/>
        <pt x="327" y="615" on="1"/>
        <pt x="380" y="626" on="1"/>
        <pt x="459" y="52" on="1"/>
        <pt x="521" y="35" on="1"/>
        <pt x="515" y="0" on="1"/>
        <pt x="311" y="0" on="1"/>
        <pt x="316" y="36" on="1"/>
        <pt x="378" y="48" on="1"/>
        <pt x="355" y="223" on="1"/>
      </contour>
      <contour>
        <pt x="349" y="266" on="1"/>
        <pt x="320" y="489" on="1"/>
        <pt x="209" y="266" on="1"/>
      </contour>
    </TTGlyph>
    <TTGlyph name="Adieresis" xMin="-33" yMin="0" xMax="535" yMax="784">
      <contour>
        <pt x="340" y="704" on="0"/>
        <pt x="306" y="671" on="0"/>
        <pt x="283" y="671" on="1"/>
        <pt x="260" y="671" on="0"/>
        <pt x="226" y="704" on="0"/>
        <pt x="226" y="726" on="1"/>
        <pt x="226" y="750" on="0"/>
        <pt x="260" y="784" on="0"/>
        <pt x="283" y="784" on="1"/>
        <pt x="306" y="784" on="0"/>
        <pt x="340" y="750" on="0"/>
        <pt x="340" y="726" on="1"/>
      </contour>
      <contour>
        <pt x="535" y="704" on="0"/>
        <pt x="500" y="671" on="0"/>
        <pt x="477" y="671" on="1"/>
        <pt x="454" y="671" on="0"/>
        <pt x="420" y="704" on="0"/>
        <pt x="420" y="726" on="1"/>
        <pt x="420" y="750" on="0"/>
        <pt x="454" y="784" on="0"/>
        <pt x="477" y="784" on="1"/>
        <pt x="500" y="784" on="0"/>
        <pt x="535" y="750" on="0"/>
        <pt x="535" y="726" on="1"/>
      </contour>
      <contour>
        <pt x="188" y="223" on="1"/>
        <pt x="101" y="47" on="1"/>
        <pt x="166" y="37" on="1"/>
        <pt x="157" y="0" on="1"/>
        <pt x="-33" y="0" on="1"/>
        <pt x="-28" y="35" on="1"/>
        <pt x="44" y="48" on="1"/>
        <pt x="327" y="615" on="1"/>
        <pt x="380" y="626" on="1"/>
        <pt x="459" y="52" on="1"/>
        <pt x="521" y="35" on="1"/>
        <pt x="515" y="0" on="1"/>
        <pt x="311" y="0" on="1"/>
        <pt x="316" y="36" on="1"/>
        <pt x="378" y="48" on="1"/>
        <pt x="355" y="223" on="1"/>
      </contour>
      <contour>
        <pt x="349" y="266" on="1"/>
        <pt x="320" y="489" on="1"/>
        <pt x="209" y="266" on="1"/>
      </contour>
    </TTGlyph>
    <TTGlyph name="Agrave" xMin="-33" yMin="0" xMax="521" yMax="800">
      <contour>
        <pt x="232" y="772" on="1"/>
        <pt x="308" y="800" on="1"/>
        <pt x="462" y="670" on="1"/>
        <pt x="446" y="651" on="1"/>
        <pt x="232" y="754" on="1"/>
      </contour>
      <contour>
        <pt x="188" y="223" on="1"/>
        <pt x="101" y="47" on="1"/>
        <pt x="166" y="37" on="1"/>
        <pt x="157" y="0" on="1"/>
        <pt x="-33" y="0" on="1"/>
        <pt x="-28" y="35" on="1"/>
        <pt x="44" y="48" on="1"/>
        <pt x="327" y="615" on="1"/>
        <pt x="380" y="626" on="1"/>
        <pt x="459" y="52" on="1"/>
        <pt x="521" y="35" on="1"/>
        <pt x="515" y="0" on="1"/>
        <pt x="311" y="0" on="1"/>
        <pt x="316" y="36" on="1"/>
        <pt x="378" y="48" on="1"/>
        <pt x="355" y="223" on="1"/>
      </contour>
      <contour>
        <pt x="349" y="266" on="1"/>
        <pt x="320" y="489" on="1"/>
        <pt x="209" y="266" on="1"/>
      </contour>
    </TTGlyph>
    <TTGlyph name="Amacron" xMin="-33" yMin="0" xMax="521" yMax="743">
      <contour>
        <pt x="490" y="743" on="1"/>
        <pt x="482" y="689" on="1"/>
        <pt x="245" y="689" on="1"/>
        <pt x="253" y="743" on="1"/>
      </contour>
      <contour>
        <pt x="188" y="223" on="1"/>
        <pt x="101" y="47" on="1"/>
        <pt x="166" y="37" on="1"/>
        <pt x="157" y="0" on="1"/>
        <pt x="-33" y="0" on="1"/>
        <pt x="-28" y="35" on="1"/>
        <pt x="44" y="48" on="1"/>
        <pt x="327" y="615" on="1"/>
        <pt x="380" y="626" on="1"/>
        <pt x="459" y="52" on="1"/>
        <pt x="521" y="35" on="1"/>
        <pt x="515" y="0" on="1"/>
        <pt x="311" y="0" on="1"/>
        <pt x="316" y="36" on="1"/>
        <pt x="378" y="48" on="1"/>
        <pt x="355" y="223" on="1"/>
      </contour>
      <contour>
        <pt x="349" y="266" on="1"/>
        <pt x="320" y="489" on="1"/>
        <pt x="209" y="266" on="1"/>
      </contour>
    </TTGlyph>
    <TTGlyph name="Aogonek" xMin="-33" yMin="-236" xMax="525" yMax="624">
      <contour>
        <pt x="195" y="227" on="1"/>
        <pt x="101" y="47" on="1"/>
        <pt x="166" y="37" on="1"/>
        <pt x="157" y="0" on="1"/>
        <pt x="-33" y="0" on="1"/>
        <pt x="-28" y="35" on="1"/>
        <pt x="44" y="48" on="1"/>
        <pt x="338" y="611" on="1"/>
        <pt x="396" y="624" on="1"/>
        <pt x="463" y="50" on="1"/>
        <pt x="525" y="35" on="1"/>
        <pt x="519" y="0" on="1"/>
        <pt x="419" y="0" on="1"/>
        <pt x="395" y="0" on="0"/>
        <pt x="343" y="-46" on="0"/>
        <pt x="307" y="-115" on="0"/>
        <pt x="307" y="-145" on="1"/>
        <pt x="307" y="-168" on="0"/>
        <pt x="332" y="-192" on="0"/>
        <pt x="355" y="-192" on="1"/>
        <pt x="383" y="-192" on="0"/>
        <pt x="408" y="-170" on="1"/>
        <pt x="422" y="-186" on="1"/>
        <pt x="422" y="-188" on="0"/>
        <pt x="394" y="-214" on="0"/>
        <pt x="349" y="-236" on="0"/>
        <pt x="321" y="-236" on="1"/>
        <pt x="279" y="-236" on="0"/>
        <pt x="238" y="-196" on="0"/>
        <pt x="238" y="-165" on="1"/>
        <pt x="238" y="-120" on="0"/>
        <pt x="293" y="-49" on="0"/>
        <pt x="339" y="-10" on="1"/>
        <pt x="359" y="7" on="0"/>
        <pt x="379" y="27" on="0"/>
        <pt x="379" y="35" on="1"/>
        <pt x="379" y="32" on="0"/>
        <pt x="377" y="56" on="1"/>
        <pt x="358" y="227" on="1"/>
      </contour>
      <contour>
        <pt x="354" y="271" on="1"/>
        <pt x="331" y="488" on="1"/>
        <pt x="218" y="271" on="1"/>
      </contour>
    </TTGlyph>
    <TTGlyph name="Aring" xMin="-33" yMin="0" xMax="521" yMax="820">
      <contour>
        <pt x="329" y="639" on="0"/>
        <pt x="286" y="678" on="0"/>
        <pt x="286" y="709" on="1"/>
        <pt x="286" y="756" on="0"/>
        <pt x="349" y="820" on="0"/>
        <pt x="403" y="820" on="1"/>
        <pt x="444" y="820" on="0"/>
        <pt x="487" y="781" on="0"/>
        <pt x="487" y="749" on="1"/>
        <pt x="487" y="703" on="0"/>
        <pt x="423" y="639" on="0"/>
        <pt x="371" y="639" on="1"/>
      </contour>
      <contour>
        <pt x="407" y="674" on="0"/>
        <pt x="433" y="716" on="0"/>
        <pt x="433" y="746" on="1"/>
        <pt x="433" y="785" on="0"/>
        <pt x="397" y="785" on="1"/>
        <pt x="367" y="785" on="0"/>
        <pt x="340" y="742" on="0"/>
        <pt x="340" y="711" on="1"/>
        <pt x="340" y="674" on="0"/>
        <pt x="377" y="674" on="1"/>
      </contour>
      <contour>
        <pt x="188" y="223" on="1"/>
        <pt x="101" y="47" on="1"/>
        <pt x="166" y="37" on="1"/>
        <pt x="157" y="0" on="1"/>
        <pt x="-33" y="0" on="1"/>
        <pt x="-28" y="35" on="1"/>
        <pt x="44" y="48" on="1"/>
        <pt x="327" y="615" on="1"/>
        <pt x="380" y="626" on="1"/>
        <pt x="459" y="52" on="1"/>
        <pt x="521" y="35" on="1"/>
        <pt x="515" y="0" on="1"/>
        <pt x="311" y="0" on="1"/>
        <pt x="316" y="36" on="1"/>
        <pt x="378" y="48" on="1"/>
        <pt x="355" y="223" on="1"/>
      </contour>
      <contour>
        <pt x="349" y="266" on="1"/>
        <pt x="320" y="489" on="1"/>
        <pt x="209" y="266" on="1"/>
      </contour>
    </TTGlyph>
    <TTGlyph name="Aringacute" xMin="-32" yMin="0" xMax="563" yMax="980">
      <component glyphName=".ttfautohint" x="0" y="0" flags="0x0"/>
      <component glyphName="A" x="0" y="0" flags="0x0"/>
      <component glyphName="uni030A" x="403" y="0" flags="0x0"/>
      <component glyphName="acutecomb" x="486" y="180" flags="0x4"/>
    </TTGlyph>
    <TTGlyph name="Atilde" xMin="-33" yMin="0" xMax="530" yMax="782">
      <contour>
        <pt x="511" y="719" on="0"/>
        <pt x="477" y="670" on="0"/>
        <pt x="455" y="670" on="1"/>
        <pt x="438" y="670" on="0"/>
        <pt x="378" y="690" on="1"/>
        <pt x="320" y="710" on="0"/>
        <pt x="303" y="710" on="1"/>
        <pt x="293" y="710" on="0"/>
        <pt x="273" y="694" on="0"/>
        <pt x="260" y="677" on="0"/>
        <pt x="258" y="674" on="1"/>
        <pt x="228" y="686" on="1"/>
        <pt x="247" y="732" on="0"/>
        <pt x="281" y="782" on="0"/>
        <pt x="304" y="782" on="1"/>
        <pt x="321" y="782" on="0"/>
        <pt x="379" y="762" on="1"/>
        <pt x="401" y="754" on="0"/>
        <pt x="444" y="742" on="0"/>
        <pt x="456" y="742" on="1"/>
        <pt x="466" y="742" on="0"/>
        <pt x="485" y="758" on="0"/>
        <pt x="498" y="774" on="0"/>
        <pt x="499" y="777" on="1"/>
        <pt x="530" y="765" on="1"/>
      </contour>
      <contour>
        <pt x="188" y="223" on="1"/>
        <pt x="101" y="47" on="1"/>
        <pt x="166" y="37" on="1"/>
        <pt x="157" y="0" on="1"/>
        <pt x="-33" y="0" on="1"/>
        <pt x="-28" y="35" on="1"/>
        <pt x="44" y="48" on="1"/>
        <pt x="327" y="615" on="1"/>
        <pt x="380" y="626" on="1"/>
        <pt x="459" y="52" on="1"/>
        <pt x="521" y="35" on="1"/>
        <pt x="515" y="0" on="1"/>
        <pt x="311" y="0" on="1"/>
        <pt x="316" y="36" on="1"/>
        <pt x="378" y="48" on="1"/>
        <pt x="355" y="223" on="1"/>
      </contour>
      <contour>
        <pt x="349" y="266" on="1"/>
        <pt x="320" y="489" on="1"/>
        <pt x="209" y="266" on="1"/>
      </contour>
    </TTGlyph>
    <TTGlyph name="B" xMin="-16" yMin="0" xMax="495" yMax="611">
      <contour>
        <pt x="400" y="309" on="0"/>
        <pt x="459" y="245" on="0"/>
        <pt x="459" y="194" on="1"/>
        <pt x="459" y="140" on="0"/>
        <pt x="396" y="51" on="0"/>
        <pt x="284" y="0" on="0"/>
        <pt x="214" y="0" on="1"/>
        <pt x="-16" y="0" on="1"/>
        <pt x="-10" y="33" on="1"/>
        <pt x="77" y="53" on="1"/>
        <pt x="175" y="558" on="1"/>
        <pt x="96" y="578" on="1"/>
        <pt x="102" y="611" on="1"/>
        <pt x="326" y="611" on="1"/>
        <pt x="411" y="611" on="0"/>
        <pt x="495" y="548" on="0"/>
        <pt x="495" y="496" on="1"/>
        <pt x="495" y="427" on="0"/>
        <pt x="408" y="336" on="0"/>
        <pt x="339" y="323" on="1"/>
      </contour>
      <contour>
        <pt x="322" y="337" on="0"/>
        <pt x="411" y="414" on="0"/>
        <pt x="411" y="485" on="1"/>
        <pt x="411" y="527" on="0"/>
        <pt x="361" y="568" on="0"/>
        <pt x="315" y="568" on="1"/>
        <pt x="283" y="568" on="0"/>
        <pt x="254" y="561" on="1"/>
        <pt x="211" y="337" on="1"/>
        <pt x="256" y="337" on="1"/>
      </contour>
      <contour>
        <pt x="178" y="41" on="0"/>
        <pt x="210" y="41" on="1"/>
        <pt x="249" y="41" on="0"/>
        <pt x="324" y="74" on="0"/>
        <pt x="373" y="146" on="0"/>
        <pt x="373" y="201" on="1"/>
        <pt x="373" y="249" on="0"/>
        <pt x="306" y="299" on="0"/>
        <pt x="242" y="299" on="1"/>
        <pt x="203" y="299" on="1"/>
        <pt x="154" y="49" on="1"/>
      </contour>
    </TTGlyph>
    <TTGlyph name="C" xMin="35" yMin="-9" xMax="542" yMax="626">
      <contour>
        <pt x="385" y="7" on="0"/>
        <pt x="305" y="-9" on="0"/>
        <pt x="255" y="-9" on="1"/>
        <pt x="142" y="-9" on="0"/>
        <pt x="35" y="109" on="0"/>
        <pt x="35" y="211" on="1"/>
        <pt x="35" y="322" on="0"/>
        <pt x="120" y="512" on="0"/>
        <pt x="276" y="626" on="0"/>
        <pt x="379" y="626" on="1"/>
        <pt x="475" y="626" on="0"/>
        <pt x="542" y="599" on="1"/>
        <pt x="507" y="469" on="1"/>
        <pt x="474" y="469" on="1"/>
        <pt x="474" y="566" on="1"/>
        <pt x="435" y="578" on="0"/>
        <pt x="376" y="578" on="1"/>
        <pt x="294" y="578" on="0"/>
        <pt x="181" y="473" on="0"/>
        <pt x="125" y="307" on="0"/>
        <pt x="125" y="217" on="1"/>
        <pt x="125" y="131" on="0"/>
        <pt x="196" y="39" on="0"/>
        <pt x="277" y="39" on="1"/>
        <pt x="320" y="39" on="0"/>
        <pt x="369" y="54" on="1"/>
        <pt x="409" y="138" on="1"/>
        <pt x="443" y="138" on="1"/>
        <pt x="429" y="23" on="1"/>
      </contour>
    </TTGlyph>
    <TTGlyph name="Cacute" xMin="22" yMin="-9" xMax="529" yMax="800">
      <contour>
        <pt x="283" y="670" on="1"/>
        <pt x="437" y="800" on="1"/>
        <pt x="513" y="772" on="1"/>
        <pt x="513" y="754" on="1"/>
        <pt x="299" y="651" on="1"/>
      </contour>
      <contour>
        <pt x="372" y="7" on="0"/>
        <pt x="292" y="-9" on="0"/>
        <pt x="242" y="-9" on="1"/>
        <pt x="129" y="-9" on="0"/>
        <pt x="22" y="109" on="0"/>
        <pt x="22" y="211" on="1"/>
        <pt x="22" y="322" on="0"/>
        <pt x="107" y="512" on="0"/>
        <pt x="263" y="626" on="0"/>
        <pt x="366" y="626" on="1"/>
        <pt x="462" y="626" on="0"/>
        <pt x="529" y="599" on="1"/>
        <pt x="494" y="469" on="1"/>
        <pt x="461" y="469" on="1"/>
        <pt x="461" y="566" on="1"/>
        <pt x="422" y="578" on="0"/>
        <pt x="363" y="578" on="1"/>
        <pt x="281" y="578" on="0"/>
        <pt x="168" y="473" on="0"/>
        <pt x="112" y="307" on="0"/>
        <pt x="112" y="217" on="1"/>
        <pt x="112" y="131" on="0"/>
        <pt x="183" y="39" on="0"/>
        <pt x="264" y="39" on="1"/>
        <pt x="307" y="39" on="0"/>
        <pt x="356" y="54" on="1"/>
        <pt x="396" y="138" on="1"/>
        <pt x="430" y="138" on="1"/>
        <pt x="416" y="23" on="1"/>
      </contour>
    </TTGlyph>
    <TTGlyph name="Cacute.loclPLK" xMin="35" yMin="-9" xMax="542" yMax="808">
      <component glyphName=".ttfautohint" x="35" y="0" flags="0x0"/>
      <component glyphName="C" x="0" y="0" flags="0x0"/>
      <component glyphName="acute.loclPLK.case" x="200" y="0" flags="0x0"/>
    </TTGlyph>
    <TTGlyph name="Ccaron" xMin="22" yMin="-9" xMax="529" yMax="805">
      <contour>
        <pt x="372" y="722" on="1"/>
        <pt x="502" y="805" on="1"/>
        <pt x="522" y="786" on="1"/>
        <pt x="392" y="651" on="1"/>
        <pt x="332" y="651" on="1"/>
        <pt x="243" y="786" on="1"/>
        <pt x="270" y="804" on="1"/>
      </contour>
      <contour>
        <pt x="372" y="7" on="0"/>
        <pt x="292" y="-9" on="0"/>
        <pt x="242" y="-9" on="1"/>
        <pt x="129" y="-9" on="0"/>
        <pt x="22" y="109" on="0"/>
        <pt x="22" y="211" on="1"/>
        <pt x="22" y="322" on="0"/>
        <pt x="107" y="512" on="0"/>
        <pt x="263" y="626" on="0"/>
        <pt x="366" y="626" on="1"/>
        <pt x="462" y="626" on="0"/>
        <pt x="529" y="599" on="1"/>
        <pt x="494" y="469" on="1"/>
        <pt x="461" y="469" on="1"/>
        <pt x="461" y="566" on="1"/>
        <pt x="422" y="578" on="0"/>
        <pt x="363" y="578" on="1"/>
        <pt x="281" y="578" on="0"/>
        <pt x="168" y="473" on="0"/>
        <pt x="112" y="307" on="0"/>
        <pt x="112" y="217" on="1"/>
        <pt x="112" y="131" on="0"/>
        <pt x="183" y="39" on="0"/>
        <pt x="264" y="39" on="1"/>
        <pt x="307" y="39" on="0"/>
        <pt x="356" y="54" on="1"/>
        <pt x="396" y="138" on="1"/>
        <pt x="430" y="138" on="1"/>
        <pt x="416" y="23" on="1"/>
      </contour>
    </TTGlyph>
    <TTGlyph name="Ccedilla" xMin="22" yMin="-219" xMax="529" yMax="626">
      <contour>
        <pt x="374" y="7" on="0"/>
        <pt x="296" y="-8" on="0"/>
        <pt x="247" y="-9" on="1"/>
        <pt x="228" y="-44" on="1"/>
        <pt x="274" y="-44" on="0"/>
        <pt x="320" y="-77" on="0"/>
        <pt x="320" y="-103" on="1"/>
        <pt x="320" y="-134" on="0"/>
        <pt x="277" y="-187" on="0"/>
        <pt x="207" y="-219" on="0"/>
        <pt x="169" y="-219" on="1"/>
        <pt x="136" y="-219" on="0"/>
        <pt x="114" y="-212" on="1"/>
        <pt x="128" y="-185" on="1"/>
        <pt x="144" y="-191" on="0"/>
        <pt x="166" y="-191" on="1"/>
        <pt x="203" y="-191" on="0"/>
        <pt x="255" y="-148" on="0"/>
        <pt x="255" y="-118" on="1"/>
        <pt x="255" y="-99" on="0"/>
        <pt x="224" y="-75" on="0"/>
        <pt x="187" y="-75" on="1"/>
        <pt x="186" y="-66" on="1"/>
        <pt x="216" y="-8" on="1"/>
        <pt x="117" y="-2" on="0"/>
        <pt x="22" y="115" on="0"/>
        <pt x="22" y="211" on="1"/>
        <pt x="22" y="322" on="0"/>
        <pt x="107" y="512" on="0"/>
        <pt x="263" y="626" on="0"/>
        <pt x="366" y="626" on="1"/>
        <pt x="462" y="626" on="0"/>
        <pt x="529" y="599" on="1"/>
        <pt x="494" y="469" on="1"/>
        <pt x="461" y="469" on="1"/>
        <pt x="461" y="566" on="1"/>
        <pt x="422" y="578" on="0"/>
        <pt x="363" y="578" on="1"/>
        <pt x="281" y="578" on="0"/>
        <pt x="168" y="473" on="0"/>
        <pt x="112" y="307" on="0"/>
        <pt x="112" y="217" on="1"/>
        <pt x="112" y="131" on="0"/>
        <pt x="183" y="39" on="0"/>
        <pt x="264" y="39" on="1"/>
        <pt x="307" y="39" on="0"/>
        <pt x="356" y="54" on="1"/>
        <pt x="396" y="138" on="1"/>
        <pt x="430" y="138" on="1"/>
        <pt x="416" y="23" on="1"/>
      </contour>
    </TTGlyph>
    <TTGlyph name="Ccircumflex" xMin="35" yMin="-9" xMax="542" yMax="804">
      <component glyphName=".ttfautohint" x="35" y="0" flags="0x0"/>
      <component glyphName="C" x="0" y="0" flags="0x0"/>
      <component glyphName="uni0302" x="431" y="0" flags="0x0"/>
    </TTGlyph>
    <TTGlyph name="Cdotaccent" xMin="35" yMin="-9" xMax="542" yMax="785">
      <component glyphName=".ttfautohint" x="35" y="0" flags="0x0"/>
      <component glyphName="C" x="0" y="0" flags="0x0"/>
      <component glyphName="uni0307" x="437" y="0" flags="0x0"/>
    </TTGlyph>
    <TTGlyph name="D" xMin="-11" yMin="0" xMax="587" yMax="611">
      <contour>
        <pt x="474" y="611" on="0"/>
        <pt x="587" y="502" on="0"/>
        <pt x="587" y="402" on="1"/>
        <pt x="587" y="300" on="0"/>
        <pt x="508" y="115" on="0"/>
        <pt x="355" y="0" on="0"/>
        <pt x="251" y="0" on="1"/>
        <pt x="-11" y="0" on="1"/>
        <pt x="-5" y="33" on="1"/>
        <pt x="83" y="53" on="1"/>
        <pt x="181" y="558" on="1"/>
        <pt x="101" y="578" on="1"/>
        <pt x="107" y="611" on="1"/>
        <pt x="359" y="611" on="1"/>
      </contour>
      <contour>
        <pt x="293" y="564" on="0"/>
        <pt x="259" y="558" on="1"/>
        <pt x="162" y="58" on="1"/>
        <pt x="180" y="51" on="0"/>
        <pt x="229" y="41" on="0"/>
        <pt x="253" y="41" on="1"/>
        <pt x="338" y="41" on="0"/>
        <pt x="449" y="154" on="0"/>
        <pt x="499" y="319" on="0"/>
        <pt x="499" y="401" on="1"/>
        <pt x="499" y="564" on="0"/>
        <pt x="344" y="564" on="1"/>
      </contour>
    </TTGlyph>
    <TTGlyph name="Dcaron" xMin="-4" yMin="0" xMax="594" yMax="805">
      <contour>
        <pt x="364" y="722" on="1"/>
        <pt x="494" y="805" on="1"/>
        <pt x="514" y="786" on="1"/>
        <pt x="384" y="651" on="1"/>
        <pt x="324" y="651" on="1"/>
        <pt x="235" y="786" on="1"/>
        <pt x="262" y="804" on="1"/>
      </contour>
      <contour>
        <pt x="481" y="611" on="0"/>
        <pt x="594" y="502" on="0"/>
        <pt x="594" y="402" on="1"/>
        <pt x="594" y="300" on="0"/>
        <pt x="515" y="115" on="0"/>
        <pt x="362" y="0" on="0"/>
        <pt x="258" y="0" on="1"/>
        <pt x="-4" y="0" on="1"/>
        <pt x="2" y="33" on="1"/>
        <pt x="90" y="53" on="1"/>
        <pt x="188" y="558" on="1"/>
        <pt x="108" y="578" on="1"/>
        <pt x="114" y="611" on="1"/>
        <pt x="366" y="611" on="1"/>
      </contour>
      <contour>
        <pt x="300" y="564" on="0"/>
        <pt x="266" y="558" on="1"/>
        <pt x="169" y="58" on="1"/>
        <pt x="187" y="51" on="0"/>
        <pt x="236" y="41" on="0"/>
        <pt x="260" y="41" on="1"/>
        <pt x="345" y="41" on="0"/>
        <pt x="456" y="154" on="0"/>
        <pt x="506" y="319" on="0"/>
        <pt x="506" y="401" on="1"/>
        <pt x="506" y="564" on="0"/>
        <pt x="351" y="564" on="1"/>
      </contour>
    </TTGlyph>
    <TTGlyph name="Dcroat" xMin="-4" yMin="0" xMax="594" yMax="611">
      <contour>
        <pt x="142" y="323" on="1"/>
        <pt x="188" y="558" on="1"/>
        <pt x="108" y="578" on="1"/>
        <pt x="114" y="611" on="1"/>
        <pt x="366" y="611" on="1"/>
        <pt x="481" y="611" on="0"/>
        <pt x="594" y="502" on="0"/>
        <pt x="594" y="402" on="1"/>
        <pt x="594" y="300" on="0"/>
        <pt x="515" y="115" on="0"/>
        <pt x="362" y="0" on="0"/>
        <pt x="258" y="0" on="1"/>
        <pt x="-4" y="0" on="1"/>
        <pt x="2" y="33" on="1"/>
        <pt x="90" y="53" on="1"/>
        <pt x="133" y="277" on="1"/>
        <pt x="52" y="277" on="1"/>
        <pt x="61" y="323" on="1"/>
      </contour>
      <contour>
        <pt x="300" y="564" on="0"/>
        <pt x="266" y="558" on="1"/>
        <pt x="220" y="323" on="1"/>
        <pt x="331" y="323" on="1"/>
        <pt x="322" y="277" on="1"/>
        <pt x="211" y="277" on="1"/>
        <pt x="169" y="58" on="1"/>
        <pt x="187" y="51" on="0"/>
        <pt x="236" y="41" on="0"/>
        <pt x="260" y="41" on="1"/>
        <pt x="345" y="41" on="0"/>
        <pt x="456" y="154" on="0"/>
        <pt x="506" y="319" on="0"/>
        <pt x="506" y="401" on="1"/>
        <pt x="506" y="564" on="0"/>
        <pt x="351" y="564" on="1"/>
      </contour>
    </TTGlyph>
    <TTGlyph name="E" xMin="-11" yMin="0" xMax="516" yMax="611">
      <contour>
        <pt x="422" y="389" on="1"/>
        <pt x="387" y="208" on="1"/>
        <pt x="353" y="208" on="1"/>
        <pt x="343" y="277" on="1"/>
        <pt x="210" y="277" on="1"/>
        <pt x="167" y="56" on="1"/>
        <pt x="370" y="56" on="1"/>
        <pt x="412" y="147" on="1"/>
        <pt x="449" y="147" on="1"/>
        <pt x="421" y="0" on="1"/>
        <pt x="-11" y="0" on="1"/>
        <pt x="-5" y="33" on="1"/>
        <pt x="88" y="53" on="1"/>
        <pt x="186" y="558" on="1"/>
        <pt x="101" y="578" on="1"/>
        <pt x="107" y="611" on="1"/>
        <pt x="516" y="611" on="1"/>
        <pt x="491" y="479" on="1"/>
        <pt x="453" y="479" on="1"/>
        <pt x="453" y="559" on="1"/>
        <pt x="264" y="559" on="1"/>
        <pt x="219" y="323" on="1"/>
        <pt x="355" y="323" on="1"/>
        <pt x="388" y="389" on="1"/>
      </contour>
    </TTGlyph>
    <TTGlyph name="Eacute" xMin="-4" yMin="0" xMax="523" yMax="800">
      <contour>
        <pt x="256" y="670" on="1"/>
        <pt x="410" y="800" on="1"/>
        <pt x="486" y="772" on="1"/>
        <pt x="486" y="754" on="1"/>
        <pt x="272" y="651" on="1"/>
      </contour>
      <contour>
        <pt x="429" y="389" on="1"/>
        <pt x="394" y="208" on="1"/>
        <pt x="360" y="208" on="1"/>
        <pt x="350" y="277" on="1"/>
        <pt x="217" y="277" on="1"/>
        <pt x="174" y="56" on="1"/>
        <pt x="377" y="56" on="1"/>
        <pt x="419" y="147" on="1"/>
        <pt x="456" y="147" on="1"/>
        <pt x="428" y="0" on="1"/>
        <pt x="-4" y="0" on="1"/>
        <pt x="2" y="33" on="1"/>
        <pt x="95" y="53" on="1"/>
        <pt x="193" y="558" on="1"/>
        <pt x="108" y="578" on="1"/>
        <pt x="114" y="611" on="1"/>
        <pt x="523" y="611" on="1"/>
        <pt x="498" y="479" on="1"/>
        <pt x="460" y="479" on="1"/>
        <pt x="460" y="559" on="1"/>
        <pt x="271" y="559" on="1"/>
        <pt x="226" y="323" on="1"/>
        <pt x="362" y="323" on="1"/>
        <pt x="395" y="389" on="1"/>
      </contour>
    </TTGlyph>
    <TTGlyph name="Ebreve" xMin="-11" yMin="0" xMax="516" yMax="785">
      <component glyphName=".ttfautohint" x="0" y="0" flags="0x0"/>
      <component glyphName="E" x="0" y="0" flags="0x0"/>
      <component glyphName="uni0306" x="392" y="0" flags="0x0"/>
    </TTGlyph>
    <TTGlyph name="Ecaron" xMin="-4" yMin="0" xMax="523" yMax="805">
      <contour>
        <pt x="354" y="722" on="1"/>
        <pt x="484" y="805" on="1"/>
        <pt x="504" y="786" on="1"/>
        <pt x="374" y="651" on="1"/>
        <pt x="314" y="651" on="1"/>
        <pt x="225" y="786" on="1"/>
        <pt x="252" y="804" on="1"/>
      </contour>
      <contour>
        <pt x="429" y="389" on="1"/>
        <pt x="394" y="208" on="1"/>
        <pt x="360" y="208" on="1"/>
        <pt x="350" y="277" on="1"/>
        <pt x="217" y="277" on="1"/>
        <pt x="174" y="56" on="1"/>
        <pt x="377" y="56" on="1"/>
        <pt x="419" y="147" on="1"/>
        <pt x="456" y="147" on="1"/>
        <pt x="428" y="0" on="1"/>
        <pt x="-4" y="0" on="1"/>
        <pt x="2" y="33" on="1"/>
        <pt x="95" y="53" on="1"/>
        <pt x="193" y="558" on="1"/>
        <pt x="108" y="578" on="1"/>
        <pt x="114" y="611" on="1"/>
        <pt x="523" y="611" on="1"/>
        <pt x="498" y="479" on="1"/>
        <pt x="460" y="479" on="1"/>
        <pt x="460" y="559" on="1"/>
        <pt x="271" y="559" on="1"/>
        <pt x="226" y="323" on="1"/>
        <pt x="362" y="323" on="1"/>
        <pt x="395" y="389" on="1"/>
      </contour>
    </TTGlyph>
    <TTGlyph name="Ecircumflex" xMin="-4" yMin="0" xMax="523" yMax="804">
      <contour>
        <pt x="352" y="735" on="1"/>
        <pt x="214" y="650" on="1"/>
        <pt x="194" y="669" on="1"/>
        <pt x="333" y="804" on="1"/>
        <pt x="393" y="804" on="1"/>
        <pt x="472" y="669" on="1"/>
        <pt x="446" y="650" on="1"/>
      </contour>
      <contour>
        <pt x="429" y="389" on="1"/>
        <pt x="394" y="208" on="1"/>
        <pt x="360" y="208" on="1"/>
        <pt x="350" y="277" on="1"/>
        <pt x="217" y="277" on="1"/>
        <pt x="174" y="56" on="1"/>
        <pt x="377" y="56" on="1"/>
        <pt x="419" y="147" on="1"/>
        <pt x="456" y="147" on="1"/>
        <pt x="428" y="0" on="1"/>
        <pt x="-4" y="0" on="1"/>
        <pt x="2" y="33" on="1"/>
        <pt x="95" y="53" on="1"/>
        <pt x="193" y="558" on="1"/>
        <pt x="108" y="578" on="1"/>
        <pt x="114" y="611" on="1"/>
        <pt x="523" y="611" on="1"/>
        <pt x="498" y="479" on="1"/>
        <pt x="460" y="479" on="1"/>
        <pt x="460" y="559" on="1"/>
        <pt x="271" y="559" on="1"/>
        <pt x="226" y="323" on="1"/>
        <pt x="362" y="323" on="1"/>
        <pt x="395" y="389" on="1"/>
      </contour>
    </TTGlyph>
    <TTGlyph name="Edieresis" xMin="-4" yMin="0" xMax="523" yMax="784">
      <contour>
        <pt x="298" y="704" on="0"/>
        <pt x="264" y="671" on="0"/>
        <pt x="241" y="671" on="1"/>
        <pt x="218" y="671" on="0"/>
        <pt x="184" y="704" on="0"/>
        <pt x="184" y="726" on="1"/>
        <pt x="184" y="750" on="0"/>
        <pt x="218" y="784" on="0"/>
        <pt x="241" y="784" on="1"/>
        <pt x="264" y="784" on="0"/>
        <pt x="298" y="750" on="0"/>
        <pt x="298" y="726" on="1"/>
      </contour>
      <contour>
        <pt x="493" y="704" on="0"/>
        <pt x="458" y="671" on="0"/>
        <pt x="435" y="671" on="1"/>
        <pt x="412" y="671" on="0"/>
        <pt x="378" y="704" on="0"/>
        <pt x="378" y="726" on="1"/>
        <pt x="378" y="750" on="0"/>
        <pt x="412" y="784" on="0"/>
        <pt x="435" y="784" on="1"/>
        <pt x="458" y="784" on="0"/>
        <pt x="493" y="750" on="0"/>
        <pt x="493" y="726" on="1"/>
      </contour>
      <contour>
        <pt x="429" y="389" on="1"/>
        <pt x="394" y="208" on="1"/>
        <pt x="360" y="208" on="1"/>
        <pt x="350" y="277" on="1"/>
        <pt x="217" y="277" on="1"/>
        <pt x="174" y="56" on="1"/>
        <pt x="377" y="56" on="1"/>
        <pt x="419" y="147" on="1"/>
        <pt x="456" y="147" on="1"/>
        <pt x="428" y="0" on="1"/>
        <pt x="-4" y="0" on="1"/>
        <pt x="2" y="33" on="1"/>
        <pt x="95" y="53" on="1"/>
        <pt x="193" y="558" on="1"/>
        <pt x="108" y="578" on="1"/>
        <pt x="114" y="611" on="1"/>
        <pt x="523" y="611" on="1"/>
        <pt x="498" y="479" on="1"/>
        <pt x="460" y="479" on="1"/>
        <pt x="460" y="559" on="1"/>
        <pt x="271" y="559" on="1"/>
        <pt x="226" y="323" on="1"/>
        <pt x="362" y="323" on="1"/>
        <pt x="395" y="389" on="1"/>
      </contour>
    </TTGlyph>
    <TTGlyph name="Edotaccent" xMin="-4" yMin="0" xMax="523" yMax="785">
      <contour>
        <pt x="407" y="701" on="0"/>
        <pt x="371" y="668" on="0"/>
        <pt x="347" y="668" on="1"/>
        <pt x="323" y="668" on="0"/>
        <pt x="287" y="701" on="0"/>
        <pt x="287" y="725" on="1"/>
        <pt x="287" y="750" on="0"/>
        <pt x="323" y="785" on="0"/>
        <pt x="347" y="785" on="1"/>
        <pt x="371" y="785" on="0"/>
        <pt x="407" y="749" on="0"/>
        <pt x="407" y="725" on="1"/>
      </contour>
      <contour>
        <pt x="429" y="389" on="1"/>
        <pt x="394" y="208" on="1"/>
        <pt x="360" y="208" on="1"/>
        <pt x="350" y="277" on="1"/>
        <pt x="217" y="277" on="1"/>
        <pt x="174" y="56" on="1"/>
        <pt x="377" y="56" on="1"/>
        <pt x="419" y="147" on="1"/>
        <pt x="456" y="147" on="1"/>
        <pt x="428" y="0" on="1"/>
        <pt x="-4" y="0" on="1"/>
        <pt x="2" y="33" on="1"/>
        <pt x="95" y="53" on="1"/>
        <pt x="193" y="558" on="1"/>
        <pt x="108" y="578" on="1"/>
        <pt x="114" y="611" on="1"/>
        <pt x="523" y="611" on="1"/>
        <pt x="498" y="479" on="1"/>
        <pt x="460" y="479" on="1"/>
        <pt x="460" y="559" on="1"/>
        <pt x="271" y="559" on="1"/>
        <pt x="226" y="323" on="1"/>
        <pt x="362" y="323" on="1"/>
        <pt x="395" y="389" on="1"/>
      </contour>
    </TTGlyph>
    <TTGlyph name="Egrave" xMin="-4" yMin="0" xMax="523" yMax="800">
      <contour>
        <pt x="224" y="772" on="1"/>
        <pt x="300" y="800" on="1"/>
        <pt x="454" y="670" on="1"/>
        <pt x="438" y="651" on="1"/>
        <pt x="224" y="754" on="1"/>
      </contour>
      <contour>
        <pt x="429" y="389" on="1"/>
        <pt x="394" y="208" on="1"/>
        <pt x="360" y="208" on="1"/>
        <pt x="350" y="277" on="1"/>
        <pt x="217" y="277" on="1"/>
        <pt x="174" y="56" on="1"/>
        <pt x="377" y="56" on="1"/>
        <pt x="419" y="147" on="1"/>
        <pt x="456" y="147" on="1"/>
        <pt x="428" y="0" on="1"/>
        <pt x="-4" y="0" on="1"/>
        <pt x="2" y="33" on="1"/>
        <pt x="95" y="53" on="1"/>
        <pt x="193" y="558" on="1"/>
        <pt x="108" y="578" on="1"/>
        <pt x="114" y="611" on="1"/>
        <pt x="523" y="611" on="1"/>
        <pt x="498" y="479" on="1"/>
        <pt x="460" y="479" on="1"/>
        <pt x="460" y="559" on="1"/>
        <pt x="271" y="559" on="1"/>
        <pt x="226" y="323" on="1"/>
        <pt x="362" y="323" on="1"/>
        <pt x="395" y="389" on="1"/>
      </contour>
    </TTGlyph>
    <TTGlyph name="Emacron" xMin="-4" yMin="0" xMax="523" yMax="743">
      <contour>
        <pt x="479" y="743" on="1"/>
        <pt x="471" y="689" on="1"/>
        <pt x="234" y="689" on="1"/>
        <pt x="242" y="743" on="1"/>
      </contour>
      <contour>
        <pt x="429" y="389" on="1"/>
        <pt x="394" y="208" on="1"/>
        <pt x="360" y="208" on="1"/>
        <pt x="350" y="277" on="1"/>
        <pt x="217" y="277" on="1"/>
        <pt x="174" y="56" on="1"/>
        <pt x="377" y="56" on="1"/>
        <pt x="419" y="147" on="1"/>
        <pt x="456" y="147" on="1"/>
        <pt x="428" y="0" on="1"/>
        <pt x="-4" y="0" on="1"/>
        <pt x="2" y="33" on="1"/>
        <pt x="95" y="53" on="1"/>
        <pt x="193" y="558" on="1"/>
        <pt x="108" y="578" on="1"/>
        <pt x="114" y="611" on="1"/>
        <pt x="523" y="611" on="1"/>
        <pt x="498" y="479" on="1"/>
        <pt x="460" y="479" on="1"/>
        <pt x="460" y="559" on="1"/>
        <pt x="271" y="559" on="1"/>
        <pt x="226" y="323" on="1"/>
        <pt x="362" y="323" on="1"/>
        <pt x="395" y="389" on="1"/>
      </contour>
    </TTGlyph>
    <TTGlyph name="Eng" xMin="-14" yMin="-167" xMax="705" yMax="611">
      <contour>
        <pt x="705" y="611" on="1"/>
        <pt x="699" y="578" on="1"/>
        <pt x="618" y="559" on="1"/>
        <pt x="522" y="63" on="1"/>
        <pt x="505" y="-26" on="0"/>
        <pt x="457" y="-126" on="0"/>
        <pt x="387" y="-167" on="0"/>
        <pt x="333" y="-167" on="1"/>
        <pt x="282" y="-167" on="0"/>
        <pt x="229" y="-138" on="1"/>
        <pt x="237" y="-101" on="1"/>
        <pt x="276" y="-112" on="0"/>
        <pt x="319" y="-112" on="1"/>
        <pt x="375" y="-112" on="0"/>
        <pt x="428" y="-41" on="0"/>
        <pt x="438" y="42" on="1"/>
        <pt x="210" y="488" on="1"/>
        <pt x="126" y="53" on="1"/>
        <pt x="203" y="33" on="1"/>
        <pt x="197" y="0" on="1"/>
        <pt x="-14" y="0" on="1"/>
        <pt x="-8" y="33" on="1"/>
        <pt x="71" y="53" on="1"/>
        <pt x="169" y="559" on="1"/>
        <pt x="98" y="578" on="1"/>
        <pt x="104" y="611" on="1"/>
        <pt x="234" y="611" on="1"/>
        <pt x="483" y="130" on="1"/>
        <pt x="566" y="559" on="1"/>
        <pt x="490" y="578" on="1"/>
        <pt x="496" y="611" on="1"/>
      </contour>
    </TTGlyph>
    <TTGlyph name="Eogonek" xMin="-4" yMin="-236" xMax="523" yMax="611">
      <contour>
        <pt x="2" y="33" on="1"/>
        <pt x="95" y="53" on="1"/>
        <pt x="193" y="558" on="1"/>
        <pt x="108" y="578" on="1"/>
        <pt x="114" y="611" on="1"/>
        <pt x="523" y="611" on="1"/>
        <pt x="498" y="479" on="1"/>
        <pt x="460" y="479" on="1"/>
        <pt x="460" y="559" on="1"/>
        <pt x="271" y="559" on="1"/>
        <pt x="226" y="323" on="1"/>
        <pt x="362" y="323" on="1"/>
        <pt x="395" y="389" on="1"/>
        <pt x="429" y="389" on="1"/>
        <pt x="394" y="208" on="1"/>
        <pt x="360" y="208" on="1"/>
        <pt x="350" y="277" on="1"/>
        <pt x="217" y="277" on="1"/>
        <pt x="174" y="56" on="1"/>
        <pt x="377" y="56" on="1"/>
        <pt x="419" y="147" on="1"/>
        <pt x="456" y="147" on="1"/>
        <pt x="428" y="0" on="1"/>
        <pt x="396" y="-29" on="0"/>
        <pt x="348" y="-108" on="0"/>
        <pt x="348" y="-145" on="1"/>
        <pt x="348" y="-168" on="0"/>
        <pt x="373" y="-192" on="0"/>
        <pt x="396" y="-192" on="1"/>
        <pt x="424" y="-192" on="0"/>
        <pt x="449" y="-170" on="1"/>
        <pt x="463" y="-186" on="1"/>
        <pt x="463" y="-188" on="0"/>
        <pt x="435" y="-214" on="0"/>
        <pt x="390" y="-236" on="0"/>
        <pt x="362" y="-236" on="1"/>
        <pt x="320" y="-236" on="0"/>
        <pt x="279" y="-196" on="0"/>
        <pt x="279" y="-165" on="1"/>
        <pt x="279" y="-129" on="0"/>
        <pt x="335" y="-42" on="0"/>
        <pt x="394" y="0" on="1"/>
        <pt x="-4" y="0" on="1"/>
      </contour>
    </TTGlyph>
    <TTGlyph name="Eth" xMin="-10" yMin="0" xMax="588" yMax="611">
      <contour>
        <pt x="136" y="323" on="1"/>
        <pt x="182" y="558" on="1"/>
        <pt x="102" y="578" on="1"/>
        <pt x="108" y="611" on="1"/>
        <pt x="360" y="611" on="1"/>
        <pt x="475" y="611" on="0"/>
        <pt x="588" y="502" on="0"/>
        <pt x="588" y="402" on="1"/>
        <pt x="588" y="300" on="0"/>
        <pt x="509" y="115" on="0"/>
        <pt x="356" y="0" on="0"/>
        <pt x="252" y="0" on="1"/>
        <pt x="-10" y="0" on="1"/>
        <pt x="-4" y="33" on="1"/>
        <pt x="84" y="53" on="1"/>
        <pt x="127" y="277" on="1"/>
        <pt x="46" y="277" on="1"/>
        <pt x="55" y="323" on="1"/>
      </contour>
      <contour>
        <pt x="294" y="564" on="0"/>
        <pt x="260" y="558" on="1"/>
        <pt x="214" y="323" on="1"/>
        <pt x="326" y="323" on="1"/>
        <pt x="317" y="277" on="1"/>
        <pt x="205" y="277" on="1"/>
        <pt x="163" y="58" on="1"/>
        <pt x="181" y="51" on="0"/>
        <pt x="230" y="41" on="0"/>
        <pt x="254" y="41" on="1"/>
        <pt x="339" y="41" on="0"/>
        <pt x="450" y="154" on="0"/>
        <pt x="500" y="319" on="0"/>
        <pt x="500" y="401" on="1"/>
        <pt x="500" y="564" on="0"/>
        <pt x="345" y="564" on="1"/>
      </contour>
    </TTGlyph>
    <TTGlyph name="Euro" xMin="17" yMin="-6" xMax="507" yMax="619">
      <contour>
        <pt x="175" y="260" on="1"/>
        <pt x="369" y="260" on="1"/>
        <pt x="354" y="217" on="1"/>
        <pt x="172" y="217" on="1"/>
        <pt x="171" y="209" on="0"/>
        <pt x="171" y="192" on="1"/>
        <pt x="171" y="47" on="0"/>
        <pt x="305" y="47" on="1"/>
        <pt x="342" y="47" on="0"/>
        <pt x="393" y="60" on="1"/>
        <pt x="393" y="19" on="1"/>
        <pt x="337" y="-6" on="0"/>
        <pt x="267" y="-6" on="1"/>
        <pt x="184" y="-6" on="0"/>
        <pt x="90" y="70" on="0"/>
        <pt x="90" y="177" on="1"/>
        <pt x="90" y="189" on="0"/>
        <pt x="92" y="217" on="1"/>
        <pt x="17" y="217" on="1"/>
        <pt x="33" y="260" on="1"/>
        <pt x="97" y="260" on="1"/>
        <pt x="105" y="307" on="1"/>
        <pt x="109" y="329" on="1"/>
        <pt x="38" y="329" on="1"/>
        <pt x="55" y="372" on="1"/>
        <pt x="121" y="372" on="1"/>
        <pt x="160" y="514" on="0"/>
        <pt x="293" y="619" on="0"/>
        <pt x="373" y="619" on="1"/>
        <pt x="446" y="619" on="0"/>
        <pt x="507" y="591" on="1"/>
        <pt x="471" y="478" on="1"/>
        <pt x="441" y="478" on="1"/>
        <pt x="437" y="558" on="1"/>
        <pt x="408" y="567" on="0"/>
        <pt x="380" y="567" on="1"/>
        <pt x="338" y="567" on="0"/>
        <pt x="274" y="536" on="0"/>
        <pt x="220" y="451" on="0"/>
        <pt x="198" y="372" on="1"/>
        <pt x="391" y="372" on="1"/>
        <pt x="375" y="329" on="1"/>
        <pt x="187" y="329" on="1"/>
        <pt x="183" y="307" on="1"/>
      </contour>
    </TTGlyph>
    <TTGlyph name="F" xMin="-11" yMin="0" xMax="516" yMax="611">
      <contour>
        <pt x="491" y="479" on="1"/>
        <pt x="452" y="479" on="1"/>
        <pt x="452" y="559" on="1"/>
        <pt x="264" y="559" on="1"/>
        <pt x="217" y="313" on="1"/>
        <pt x="351" y="313" on="1"/>
        <pt x="384" y="379" on="1"/>
        <pt x="418" y="379" on="1"/>
        <pt x="383" y="198" on="1"/>
        <pt x="349" y="198" on="1"/>
        <pt x="344" y="267" on="1"/>
        <pt x="208" y="267" on="1"/>
        <pt x="166" y="54" on="1"/>
        <pt x="279" y="34" on="1"/>
        <pt x="273" y="0" on="1"/>
        <pt x="-11" y="0" on="1"/>
        <pt x="-5" y="33" on="1"/>
        <pt x="88" y="53" on="1"/>
        <pt x="186" y="558" on="1"/>
        <pt x="101" y="578" on="1"/>
        <pt x="107" y="611" on="1"/>
        <pt x="516" y="611" on="1"/>
      </contour>
    </TTGlyph>
    <TTGlyph name="G" xMin="35" yMin="-11" xMax="562" yMax="627">
      <contour>
        <pt x="443" y="578" on="0"/>
        <pt x="389" y="578" on="1"/>
        <pt x="289" y="578" on="0"/>
        <pt x="171" y="449" on="0"/>
        <pt x="125" y="283" on="0"/>
        <pt x="125" y="219" on="1"/>
        <pt x="125" y="139" on="0"/>
        <pt x="197" y="37" on="0"/>
        <pt x="281" y="37" on="1"/>
        <pt x="334" y="37" on="0"/>
        <pt x="372" y="56" on="1"/>
        <pt x="407" y="234" on="1"/>
        <pt x="327" y="254" on="1"/>
        <pt x="333" y="288" on="1"/>
        <pt x="562" y="288" on="1"/>
        <pt x="556" y="254" on="1"/>
        <pt x="485" y="234" on="1"/>
        <pt x="446" y="31" on="1"/>
        <pt x="371" y="-11" on="0"/>
        <pt x="268" y="-11" on="1"/>
        <pt x="146" y="-11" on="0"/>
        <pt x="35" y="107" on="0"/>
        <pt x="35" y="209" on="1"/>
        <pt x="35" y="320" on="0"/>
        <pt x="116" y="511" on="0"/>
        <pt x="280" y="627" on="0"/>
        <pt x="398" y="627" on="1"/>
        <pt x="441" y="627" on="0"/>
        <pt x="534" y="612" on="0"/>
        <pt x="561" y="597" on="1"/>
        <pt x="522" y="470" on="1"/>
        <pt x="487" y="470" on="1"/>
        <pt x="483" y="567" on="1"/>
      </contour>
    </TTGlyph>
    <TTGlyph name="G_tilde.loclGUA" xMin="26" yMin="-11" xMax="553" yMax="782">
      <contour>
        <pt x="511" y="719" on="0"/>
        <pt x="477" y="670" on="0"/>
        <pt x="455" y="670" on="1"/>
        <pt x="438" y="670" on="0"/>
        <pt x="378" y="690" on="1"/>
        <pt x="320" y="710" on="0"/>
        <pt x="303" y="710" on="1"/>
        <pt x="293" y="710" on="0"/>
        <pt x="273" y="694" on="0"/>
        <pt x="260" y="677" on="0"/>
        <pt x="258" y="674" on="1"/>
        <pt x="228" y="686" on="1"/>
        <pt x="247" y="732" on="0"/>
        <pt x="281" y="782" on="0"/>
        <pt x="304" y="782" on="1"/>
        <pt x="321" y="782" on="0"/>
        <pt x="379" y="762" on="1"/>
        <pt x="401" y="754" on="0"/>
        <pt x="444" y="742" on="0"/>
        <pt x="456" y="742" on="1"/>
        <pt x="466" y="742" on="0"/>
        <pt x="485" y="758" on="0"/>
        <pt x="498" y="774" on="0"/>
        <pt x="499" y="777" on="1"/>
        <pt x="530" y="765" on="1"/>
      </contour>
      <contour>
        <pt x="434" y="578" on="0"/>
        <pt x="380" y="578" on="1"/>
        <pt x="280" y="578" on="0"/>
        <pt x="162" y="449" on="0"/>
        <pt x="116" y="283" on="0"/>
        <pt x="116" y="219" on="1"/>
        <pt x="116" y="139" on="0"/>
        <pt x="188" y="37" on="0"/>
        <pt x="272" y="37" on="1"/>
        <pt x="325" y="37" on="0"/>
        <pt x="363" y="56" on="1"/>
        <pt x="398" y="234" on="1"/>
        <pt x="318" y="254" on="1"/>
        <pt x="324" y="288" on="1"/>
        <pt x="553" y="288" on="1"/>
        <pt x="547" y="254" on="1"/>
        <pt x="476" y="234" on="1"/>
        <pt x="437" y="31" on="1"/>
        <pt x="362" y="-11" on="0"/>
        <pt x="259" y="-11" on="1"/>
        <pt x="137" y="-11" on="0"/>
        <pt x="26" y="107" on="0"/>
        <pt x="26" y="209" on="1"/>
        <pt x="26" y="320" on="0"/>
        <pt x="107" y="511" on="0"/>
        <pt x="271" y="627" on="0"/>
        <pt x="389" y="627" on="1"/>
        <pt x="432" y="627" on="0"/>
        <pt x="525" y="612" on="0"/>
        <pt x="552" y="597" on="1"/>
        <pt x="513" y="470" on="1"/>
        <pt x="478" y="470" on="1"/>
        <pt x="474" y="567" on="1"/>
      </contour>
    </TTGlyph>
    <TTGlyph name="Gbreve" xMin="26" yMin="-11" xMax="553" yMax="785">
      <contour>
        <pt x="278" y="669" on="0"/>
        <pt x="278" y="756" on="1"/>
        <pt x="278" y="763" on="0"/>
        <pt x="283" y="785" on="1"/>
        <pt x="317" y="785" on="1"/>
        <pt x="314" y="778" on="0"/>
        <pt x="314" y="769" on="1"/>
        <pt x="316" y="747" on="0"/>
        <pt x="346" y="723" on="0"/>
        <pt x="386" y="723" on="1"/>
        <pt x="472" y="723" on="0"/>
        <pt x="484" y="785" on="1"/>
        <pt x="517" y="785" on="1"/>
        <pt x="493" y="669" on="0"/>
        <pt x="379" y="669" on="1"/>
      </contour>
      <contour>
        <pt x="434" y="578" on="0"/>
        <pt x="380" y="578" on="1"/>
        <pt x="280" y="578" on="0"/>
        <pt x="162" y="449" on="0"/>
        <pt x="116" y="283" on="0"/>
        <pt x="116" y="219" on="1"/>
        <pt x="116" y="139" on="0"/>
        <pt x="188" y="37" on="0"/>
        <pt x="272" y="37" on="1"/>
        <pt x="325" y="37" on="0"/>
        <pt x="363" y="56" on="1"/>
        <pt x="398" y="234" on="1"/>
        <pt x="318" y="254" on="1"/>
        <pt x="324" y="288" on="1"/>
        <pt x="553" y="288" on="1"/>
        <pt x="547" y="254" on="1"/>
        <pt x="476" y="234" on="1"/>
        <pt x="437" y="31" on="1"/>
        <pt x="362" y="-11" on="0"/>
        <pt x="259" y="-11" on="1"/>
        <pt x="137" y="-11" on="0"/>
        <pt x="26" y="107" on="0"/>
        <pt x="26" y="209" on="1"/>
        <pt x="26" y="320" on="0"/>
        <pt x="107" y="511" on="0"/>
        <pt x="271" y="627" on="0"/>
        <pt x="389" y="627" on="1"/>
        <pt x="432" y="627" on="0"/>
        <pt x="525" y="612" on="0"/>
        <pt x="552" y="597" on="1"/>
        <pt x="513" y="470" on="1"/>
        <pt x="478" y="470" on="1"/>
        <pt x="474" y="567" on="1"/>
      </contour>
    </TTGlyph>
    <TTGlyph name="Gcaron" xMin="35" yMin="-11" xMax="562" yMax="805">
      <component glyphName=".ttfautohint" x="35" y="0" flags="0x0"/>
      <component glyphName="G" x="0" y="0" flags="0x0"/>
      <component glyphName="uni030C" x="420" y="0" flags="0x0"/>
    </TTGlyph>
    <TTGlyph name="Gcircumflex" xMin="35" yMin="-11" xMax="562" yMax="804">
      <component glyphName=".ttfautohint" x="35" y="0" flags="0x0"/>
      <component glyphName="G" x="0" y="0" flags="0x0"/>
      <component glyphName="uni0302" x="416" y="0" flags="0x0"/>
    </TTGlyph>
    <TTGlyph name="Gcommaaccent" xMin="26" yMin="-221" xMax="553" yMax="627">
      <contour>
        <pt x="434" y="578" on="0"/>
        <pt x="380" y="578" on="1"/>
        <pt x="280" y="578" on="0"/>
        <pt x="162" y="449" on="0"/>
        <pt x="116" y="283" on="0"/>
        <pt x="116" y="219" on="1"/>
        <pt x="116" y="139" on="0"/>
        <pt x="188" y="37" on="0"/>
        <pt x="272" y="37" on="1"/>
        <pt x="325" y="37" on="0"/>
        <pt x="363" y="56" on="1"/>
        <pt x="398" y="234" on="1"/>
        <pt x="318" y="254" on="1"/>
        <pt x="324" y="288" on="1"/>
        <pt x="553" y="288" on="1"/>
        <pt x="547" y="254" on="1"/>
        <pt x="476" y="234" on="1"/>
        <pt x="437" y="31" on="1"/>
        <pt x="362" y="-11" on="0"/>
        <pt x="259" y="-11" on="1"/>
        <pt x="137" y="-11" on="0"/>
        <pt x="26" y="107" on="0"/>
        <pt x="26" y="209" on="1"/>
        <pt x="26" y="320" on="0"/>
        <pt x="107" y="511" on="0"/>
        <pt x="271" y="627" on="0"/>
        <pt x="389" y="627" on="1"/>
        <pt x="432" y="627" on="0"/>
        <pt x="525" y="612" on="0"/>
        <pt x="552" y="597" on="1"/>
        <pt x="513" y="470" on="1"/>
        <pt x="478" y="470" on="1"/>
        <pt x="474" y="567" on="1"/>
      </contour>
      <contour>
        <pt x="303" y="-48" on="1"/>
        <pt x="203" y="-221" on="1"/>
        <pt x="178" y="-214" on="1"/>
        <pt x="213" y="-47" on="1"/>
        <pt x="288" y="-31" on="1"/>
      </contour>
    </TTGlyph>
    <TTGlyph name="Gdotaccent" xMin="35" yMin="-11" xMax="562" yMax="785">
      <component glyphName=".ttfautohint" x="35" y="0" flags="0x0"/>
      <component glyphName="G" x="0" y="0" flags="0x0"/>
      <component glyphName="uni0307" x="422" y="0" flags="0x0"/>
    </TTGlyph>
    <TTGlyph name="H" xMin="-11" yMin="0" xMax="686" yMax="611">
      <contour>
        <pt x="475" y="329" on="1"/>
        <pt x="520" y="559" on="1"/>
        <pt x="445" y="578" on="1"/>
        <pt x="451" y="611" on="1"/>
        <pt x="686" y="611" on="1"/>
        <pt x="680" y="578" on="1"/>
        <pt x="598" y="559" on="1"/>
        <pt x="500" y="53" on="1"/>
        <pt x="576" y="33" on="1"/>
        <pt x="570" y="0" on="1"/>
        <pt x="334" y="0" on="1"/>
        <pt x="340" y="33" on="1"/>
        <pt x="422" y="53" on="1"/>
        <pt x="466" y="280" on="1"/>
        <pt x="199" y="280" on="1"/>
        <pt x="155" y="53" on="1"/>
        <pt x="230" y="33" on="1"/>
        <pt x="224" y="0" on="1"/>
        <pt x="-11" y="0" on="1"/>
        <pt x="-5" y="33" on="1"/>
        <pt x="77" y="53" on="1"/>
        <pt x="175" y="559" on="1"/>
        <pt x="101" y="578" on="1"/>
        <pt x="106" y="611" on="1"/>
        <pt x="341" y="611" on="1"/>
        <pt x="336" y="578" on="1"/>
        <pt x="253" y="559" on="1"/>
        <pt x="208" y="329" on="1"/>
      </contour>
    </TTGlyph>
    <TTGlyph name="Hbar" xMin="-11" yMin="0" xMax="686" yMax="611">
      <contour>
        <pt x="598" y="559" on="1"/>
        <pt x="575" y="439" on="1"/>
        <pt x="650" y="439" on="1"/>
        <pt x="641" y="393" on="1"/>
        <pt x="566" y="393" on="1"/>
        <pt x="500" y="53" on="1"/>
        <pt x="576" y="33" on="1"/>
        <pt x="570" y="0" on="1"/>
        <pt x="334" y="0" on="1"/>
        <pt x="340" y="33" on="1"/>
        <pt x="422" y="53" on="1"/>
        <pt x="460" y="250" on="1"/>
        <pt x="193" y="250" on="1"/>
        <pt x="155" y="53" on="1"/>
        <pt x="230" y="33" on="1"/>
        <pt x="224" y="0" on="1"/>
        <pt x="-11" y="0" on="1"/>
        <pt x="-5" y="33" on="1"/>
        <pt x="77" y="53" on="1"/>
        <pt x="143" y="393" on="1"/>
        <pt x="67" y="393" on="1"/>
        <pt x="76" y="439" on="1"/>
        <pt x="152" y="439" on="1"/>
        <pt x="175" y="559" on="1"/>
        <pt x="101" y="578" on="1"/>
        <pt x="106" y="611" on="1"/>
        <pt x="341" y="611" on="1"/>
        <pt x="336" y="578" on="1"/>
        <pt x="253" y="559" on="1"/>
        <pt x="230" y="439" on="1"/>
        <pt x="497" y="439" on="1"/>
        <pt x="520" y="559" on="1"/>
        <pt x="445" y="578" on="1"/>
        <pt x="451" y="611" on="1"/>
        <pt x="686" y="611" on="1"/>
        <pt x="680" y="578" on="1"/>
      </contour>
      <contour>
        <pt x="488" y="393" on="1"/>
        <pt x="221" y="393" on="1"/>
        <pt x="203" y="299" on="1"/>
        <pt x="470" y="299" on="1"/>
      </contour>
    </TTGlyph>
    <TTGlyph name="Hcircumflex" xMin="-11" yMin="0" xMax="686" yMax="804">
      <component glyphName=".ttfautohint" x="0" y="0" flags="0x0"/>
      <component glyphName="H" x="0" y="0" flags="0x0"/>
      <component glyphName="uni0302" x="452" y="0" flags="0x0"/>
    </TTGlyph>
    <TTGlyph name="I" xMin="-11" yMin="0" xMax="354" yMax="611">
      <contour>
        <pt x="354" y="611" on="1"/>
        <pt x="348" y="578" on="1"/>
        <pt x="259" y="558" on="1"/>
        <pt x="161" y="53" on="1"/>
        <pt x="242" y="33" on="1"/>
        <pt x="236" y="0" on="1"/>
        <pt x="-11" y="0" on="1"/>
        <pt x="-5" y="33" on="1"/>
        <pt x="83" y="53" on="1"/>
        <pt x="181" y="558" on="1"/>
        <pt x="101" y="578" on="1"/>
        <pt x="107" y="611" on="1"/>
      </contour>
    </TTGlyph>
    <TTGlyph name="IJ" xMin="-11" yMin="-149" xMax="680" yMax="611">
      <component glyphName=".ttfautohint" x="0" y="0" flags="0x0"/>
      <component glyphName="I" x="0" y="0" flags="0x0"/>
      <component glyphName="J" x="328" y="0" flags="0x0"/>
    </TTGlyph>
    <TTGlyph name="Iacute" xMin="-5" yMin="0" xMax="369" yMax="800">
      <contour>
        <pt x="139" y="670" on="1"/>
        <pt x="293" y="800" on="1"/>
        <pt x="369" y="772" on="1"/>
        <pt x="369" y="754" on="1"/>
        <pt x="155" y="651" on="1"/>
      </contour>
      <contour>
        <pt x="360" y="611" on="1"/>
        <pt x="354" y="578" on="1"/>
        <pt x="265" y="558" on="1"/>
        <pt x="167" y="53" on="1"/>
        <pt x="248" y="33" on="1"/>
        <pt x="242" y="0" on="1"/>
        <pt x="-5" y="0" on="1"/>
        <pt x="1" y="33" on="1"/>
        <pt x="89" y="53" on="1"/>
        <pt x="187" y="558" on="1"/>
        <pt x="107" y="578" on="1"/>
        <pt x="113" y="611" on="1"/>
      </contour>
    </TTGlyph>
    <TTGlyph name="Iacute_J.loclNLD" xMin="-11" yMin="-149" xMax="734" yMax="800">
      <component glyphName=".ttfautohint" x="0" y="0" flags="0x0"/>
      <component glyphName="I" x="0" y="0" flags="0x0"/>
      <component glyphName="acutecomb" x="340" y="0" flags="0x0"/>
      <component glyphName="J" x="328" y="0" flags="0x0"/>
      <component glyphName="acutecomb" x="657" y="0" flags="0x0"/>
    </TTGlyph>
    <TTGlyph name="Ibreve" xMin="-11" yMin="0" xMax="386" yMax="785">
      <component glyphName=".ttfautohint" x="0" y="0" flags="0x0"/>
      <component glyphName="I" x="0" y="0" flags="0x0"/>
      <component glyphName="uni0306" x="292" y="0" flags="0x0"/>
    </TTGlyph>
    <TTGlyph name="Icircumflex" xMin="-5" yMin="0" xMax="386" yMax="804">
      <contour>
        <pt x="266" y="735" on="1"/>
        <pt x="128" y="650" on="1"/>
        <pt x="108" y="669" on="1"/>
        <pt x="247" y="804" on="1"/>
        <pt x="307" y="804" on="1"/>
        <pt x="386" y="669" on="1"/>
        <pt x="360" y="650" on="1"/>
      </contour>
      <contour>
        <pt x="360" y="611" on="1"/>
        <pt x="354" y="578" on="1"/>
        <pt x="265" y="558" on="1"/>
        <pt x="167" y="53" on="1"/>
        <pt x="248" y="33" on="1"/>
        <pt x="242" y="0" on="1"/>
        <pt x="-5" y="0" on="1"/>
        <pt x="1" y="33" on="1"/>
        <pt x="89" y="53" on="1"/>
        <pt x="187" y="558" on="1"/>
        <pt x="107" y="578" on="1"/>
        <pt x="113" y="611" on="1"/>
      </contour>
    </TTGlyph>
    <TTGlyph name="Idieresis" xMin="-5" yMin="0" xMax="408" yMax="784">
      <contour>
        <pt x="213" y="704" on="0"/>
        <pt x="179" y="671" on="0"/>
        <pt x="156" y="671" on="1"/>
        <pt x="133" y="671" on="0"/>
        <pt x="99" y="704" on="0"/>
        <pt x="99" y="726" on="1"/>
        <pt x="99" y="750" on="0"/>
        <pt x="133" y="784" on="0"/>
        <pt x="156" y="784" on="1"/>
        <pt x="179" y="784" on="0"/>
        <pt x="213" y="750" on="0"/>
        <pt x="213" y="726" on="1"/>
      </contour>
      <contour>
        <pt x="408" y="704" on="0"/>
        <pt x="373" y="671" on="0"/>
        <pt x="350" y="671" on="1"/>
        <pt x="327" y="671" on="0"/>
        <pt x="293" y="704" on="0"/>
        <pt x="293" y="726" on="1"/>
        <pt x="293" y="750" on="0"/>
        <pt x="327" y="784" on="0"/>
        <pt x="350" y="784" on="1"/>
        <pt x="373" y="784" on="0"/>
        <pt x="408" y="750" on="0"/>
        <pt x="408" y="726" on="1"/>
      </contour>
      <contour>
        <pt x="360" y="611" on="1"/>
        <pt x="354" y="578" on="1"/>
        <pt x="265" y="558" on="1"/>
        <pt x="167" y="53" on="1"/>
        <pt x="248" y="33" on="1"/>
        <pt x="242" y="0" on="1"/>
        <pt x="-5" y="0" on="1"/>
        <pt x="1" y="33" on="1"/>
        <pt x="89" y="53" on="1"/>
        <pt x="187" y="558" on="1"/>
        <pt x="107" y="578" on="1"/>
        <pt x="113" y="611" on="1"/>
      </contour>
    </TTGlyph>
    <TTGlyph name="Idotaccent" xMin="-5" yMin="0" xMax="360" yMax="785">
      <contour>
        <pt x="314" y="701" on="0"/>
        <pt x="278" y="668" on="0"/>
        <pt x="254" y="668" on="1"/>
        <pt x="230" y="668" on="0"/>
        <pt x="194" y="701" on="0"/>
        <pt x="194" y="725" on="1"/>
        <pt x="194" y="750" on="0"/>
        <pt x="230" y="785" on="0"/>
        <pt x="254" y="785" on="1"/>
        <pt x="278" y="785" on="0"/>
        <pt x="314" y="749" on="0"/>
        <pt x="314" y="725" on="1"/>
      </contour>
      <contour>
        <pt x="360" y="611" on="1"/>
        <pt x="354" y="578" on="1"/>
        <pt x="265" y="558" on="1"/>
        <pt x="167" y="53" on="1"/>
        <pt x="248" y="33" on="1"/>
        <pt x="242" y="0" on="1"/>
        <pt x="-5" y="0" on="1"/>
        <pt x="1" y="33" on="1"/>
        <pt x="89" y="53" on="1"/>
        <pt x="187" y="558" on="1"/>
        <pt x="107" y="578" on="1"/>
        <pt x="113" y="611" on="1"/>
      </contour>
    </TTGlyph>
    <TTGlyph name="Igrave" xMin="-5" yMin="0" xMax="369" yMax="800">
      <contour>
        <pt x="139" y="772" on="1"/>
        <pt x="215" y="800" on="1"/>
        <pt x="369" y="670" on="1"/>
        <pt x="353" y="651" on="1"/>
        <pt x="139" y="754" on="1"/>
      </contour>
      <contour>
        <pt x="360" y="611" on="1"/>
        <pt x="354" y="578" on="1"/>
        <pt x="265" y="558" on="1"/>
        <pt x="167" y="53" on="1"/>
        <pt x="248" y="33" on="1"/>
        <pt x="242" y="0" on="1"/>
        <pt x="-5" y="0" on="1"/>
        <pt x="1" y="33" on="1"/>
        <pt x="89" y="53" on="1"/>
        <pt x="187" y="558" on="1"/>
        <pt x="107" y="578" on="1"/>
        <pt x="113" y="611" on="1"/>
      </contour>
    </TTGlyph>
    <TTGlyph name="Imacron" xMin="-5" yMin="0" xMax="369" yMax="749">
      <contour>
        <pt x="369" y="749" on="1"/>
        <pt x="361" y="697" on="1"/>
        <pt x="144" y="697" on="1"/>
        <pt x="152" y="749" on="1"/>
      </contour>
      <contour>
        <pt x="360" y="611" on="1"/>
        <pt x="354" y="578" on="1"/>
        <pt x="265" y="558" on="1"/>
        <pt x="167" y="53" on="1"/>
        <pt x="248" y="33" on="1"/>
        <pt x="242" y="0" on="1"/>
        <pt x="-5" y="0" on="1"/>
        <pt x="1" y="33" on="1"/>
        <pt x="89" y="53" on="1"/>
        <pt x="187" y="558" on="1"/>
        <pt x="107" y="578" on="1"/>
        <pt x="113" y="611" on="1"/>
      </contour>
    </TTGlyph>
    <TTGlyph name="Iogonek" xMin="-5" yMin="-236" xMax="360" yMax="611">
      <contour>
        <pt x="360" y="611" on="1"/>
        <pt x="354" y="578" on="1"/>
        <pt x="265" y="558" on="1"/>
        <pt x="167" y="53" on="1"/>
        <pt x="248" y="33" on="1"/>
        <pt x="242" y="0" on="1"/>
        <pt x="192" y="-24" on="0"/>
        <pt x="130" y="-105" on="0"/>
        <pt x="130" y="-145" on="1"/>
        <pt x="130" y="-168" on="0"/>
        <pt x="155" y="-192" on="0"/>
        <pt x="178" y="-192" on="1"/>
        <pt x="206" y="-192" on="0"/>
        <pt x="231" y="-170" on="1"/>
        <pt x="245" y="-186" on="1"/>
        <pt x="245" y="-188" on="0"/>
        <pt x="217" y="-214" on="0"/>
        <pt x="172" y="-236" on="0"/>
        <pt x="144" y="-236" on="1"/>
        <pt x="102" y="-236" on="0"/>
        <pt x="61" y="-196" on="0"/>
        <pt x="61" y="-165" on="1"/>
        <pt x="61" y="-122" on="0"/>
        <pt x="124" y="-33" on="0"/>
        <pt x="185" y="0" on="1"/>
        <pt x="-5" y="0" on="1"/>
        <pt x="1" y="33" on="1"/>
        <pt x="89" y="53" on="1"/>
        <pt x="187" y="558" on="1"/>
        <pt x="107" y="578" on="1"/>
        <pt x="113" y="611" on="1"/>
      </contour>
    </TTGlyph>
    <TTGlyph name="Itilde" xMin="-5" yMin="0" xMax="405" yMax="782">
      <contour>
        <pt x="386" y="719" on="0"/>
        <pt x="352" y="670" on="0"/>
        <pt x="330" y="670" on="1"/>
        <pt x="313" y="670" on="0"/>
        <pt x="253" y="690" on="1"/>
        <pt x="195" y="710" on="0"/>
        <pt x="178" y="710" on="1"/>
        <pt x="168" y="710" on="0"/>
        <pt x="148" y="694" on="0"/>
        <pt x="135" y="677" on="0"/>
        <pt x="133" y="674" on="1"/>
        <pt x="103" y="686" on="1"/>
        <pt x="122" y="732" on="0"/>
        <pt x="156" y="782" on="0"/>
        <pt x="179" y="782" on="1"/>
        <pt x="196" y="782" on="0"/>
        <pt x="254" y="762" on="1"/>
        <pt x="276" y="754" on="0"/>
        <pt x="319" y="742" on="0"/>
        <pt x="331" y="742" on="1"/>
        <pt x="341" y="742" on="0"/>
        <pt x="360" y="758" on="0"/>
        <pt x="373" y="774" on="0"/>
        <pt x="374" y="777" on="1"/>
        <pt x="405" y="765" on="1"/>
      </contour>
      <contour>
        <pt x="360" y="611" on="1"/>
        <pt x="354" y="578" on="1"/>
        <pt x="265" y="558" on="1"/>
        <pt x="167" y="53" on="1"/>
        <pt x="248" y="33" on="1"/>
        <pt x="242" y="0" on="1"/>
        <pt x="-5" y="0" on="1"/>
        <pt x="1" y="33" on="1"/>
        <pt x="89" y="53" on="1"/>
        <pt x="187" y="558" on="1"/>
        <pt x="107" y="578" on="1"/>
        <pt x="113" y="611" on="1"/>
      </contour>
    </TTGlyph>
    <TTGlyph name="J" xMin="-88" yMin="-149" xMax="352" yMax="611">
      <contour>
        <pt x="-54" y="-149" on="0"/>
        <pt x="-88" y="-122" on="1"/>
        <pt x="-79" y="-94" on="1"/>
        <pt x="-11" y="-94" on="1"/>
        <pt x="31" y="-94" on="0"/>
        <pt x="73" y="-31" on="0"/>
        <pt x="84" y="30" on="1"/>
        <pt x="180" y="558" on="1"/>
        <pt x="100" y="578" on="1"/>
        <pt x="106" y="611" on="1"/>
        <pt x="352" y="611" on="1"/>
        <pt x="346" y="578" on="1"/>
        <pt x="259" y="558" on="1"/>
        <pt x="169" y="63" on="1"/>
        <pt x="148" y="-55" on="0"/>
        <pt x="66" y="-149" on="0"/>
        <pt x="0" y="-149" on="1"/>
      </contour>
    </TTGlyph>
    <TTGlyph name="Jcircumflex" xMin="-88" yMin="-149" xMax="368" yMax="804">
      <component glyphName=".ttfautohint" x="0" y="0" flags="0x0"/>
      <component glyphName="J" x="0" y="0" flags="0x0"/>
      <component glyphName="uni0302" x="275" y="0" flags="0x0"/>
    </TTGlyph>
    <TTGlyph name="K" xMin="-11" yMin="0" xMax="600" yMax="611">
      <contour>
        <pt x="361" y="0" on="1"/>
        <pt x="211" y="312" on="1"/>
        <pt x="161" y="53" on="1"/>
        <pt x="242" y="33" on="1"/>
        <pt x="236" y="0" on="1"/>
        <pt x="-11" y="0" on="1"/>
        <pt x="-5" y="33" on="1"/>
        <pt x="83" y="53" on="1"/>
        <pt x="181" y="558" on="1"/>
        <pt x="101" y="578" on="1"/>
        <pt x="107" y="611" on="1"/>
        <pt x="354" y="611" on="1"/>
        <pt x="348" y="578" on="1"/>
        <pt x="259" y="558" on="1"/>
        <pt x="213" y="324" on="1"/>
        <pt x="460" y="558" on="1"/>
        <pt x="402" y="578" on="1"/>
        <pt x="408" y="611" on="1"/>
        <pt x="600" y="611" on="1"/>
        <pt x="594" y="578" on="1"/>
        <pt x="523" y="558" on="1"/>
        <pt x="289" y="333" on="1"/>
        <pt x="429" y="52" on="1"/>
        <pt x="511" y="33" on="1"/>
        <pt x="505" y="0" on="1"/>
      </contour>
    </TTGlyph>
    <TTGlyph name="Kcommaaccent" xMin="-4" yMin="-221" xMax="607" yMax="611">
      <contour>
        <pt x="368" y="0" on="1"/>
        <pt x="218" y="312" on="1"/>
        <pt x="168" y="53" on="1"/>
        <pt x="249" y="33" on="1"/>
        <pt x="243" y="0" on="1"/>
        <pt x="-4" y="0" on="1"/>
        <pt x="2" y="33" on="1"/>
        <pt x="90" y="53" on="1"/>
        <pt x="188" y="558" on="1"/>
        <pt x="108" y="578" on="1"/>
        <pt x="114" y="611" on="1"/>
        <pt x="361" y="611" on="1"/>
        <pt x="355" y="578" on="1"/>
        <pt x="266" y="558" on="1"/>
        <pt x="220" y="324" on="1"/>
        <pt x="467" y="558" on="1"/>
        <pt x="409" y="578" on="1"/>
        <pt x="415" y="611" on="1"/>
        <pt x="607" y="611" on="1"/>
        <pt x="601" y="578" on="1"/>
        <pt x="530" y="558" on="1"/>
        <pt x="296" y="333" on="1"/>
        <pt x="436" y="52" on="1"/>
        <pt x="518" y="33" on="1"/>
        <pt x="512" y="0" on="1"/>
      </contour>
      <contour>
        <pt x="304" y="-48" on="1"/>
        <pt x="204" y="-221" on="1"/>
        <pt x="179" y="-214" on="1"/>
        <pt x="214" y="-47" on="1"/>
        <pt x="289" y="-31" on="1"/>
      </contour>
    </TTGlyph>
    <TTGlyph name="L" xMin="-11" yMin="0" xMax="419" yMax="611">
      <contour>
        <pt x="-11" y="0" on="1"/>
        <pt x="-5" y="33" on="1"/>
        <pt x="83" y="53" on="1"/>
        <pt x="181" y="558" on="1"/>
        <pt x="101" y="578" on="1"/>
        <pt x="107" y="611" on="1"/>
        <pt x="354" y="611" on="1"/>
        <pt x="348" y="578" on="1"/>
        <pt x="259" y="558" on="1"/>
        <pt x="161" y="56" on="1"/>
        <pt x="342" y="56" on="1"/>
        <pt x="383" y="147" on="1"/>
        <pt x="419" y="147" on="1"/>
        <pt x="391" y="0" on="1"/>
      </contour>
    </TTGlyph>
    <TTGlyph name="Lacute" xMin="-4" yMin="0" xMax="426" yMax="800">
      <contour>
        <pt x="155" y="670" on="1"/>
        <pt x="309" y="800" on="1"/>
        <pt x="385" y="772" on="1"/>
        <pt x="385" y="754" on="1"/>
        <pt x="171" y="651" on="1"/>
      </contour>
      <contour>
        <pt x="-4" y="0" on="1"/>
        <pt x="2" y="33" on="1"/>
        <pt x="90" y="53" on="1"/>
        <pt x="188" y="558" on="1"/>
        <pt x="108" y="578" on="1"/>
        <pt x="114" y="611" on="1"/>
        <pt x="361" y="611" on="1"/>
        <pt x="355" y="578" on="1"/>
        <pt x="266" y="558" on="1"/>
        <pt x="168" y="56" on="1"/>
        <pt x="349" y="56" on="1"/>
        <pt x="390" y="147" on="1"/>
        <pt x="426" y="147" on="1"/>
        <pt x="398" y="0" on="1"/>
      </contour>
    </TTGlyph>
    <TTGlyph name="Lcaron" xMin="-4" yMin="0" xMax="426" yMax="805">
      <contour>
        <pt x="261" y="722" on="1"/>
        <pt x="391" y="805" on="1"/>
        <pt x="411" y="786" on="1"/>
        <pt x="281" y="651" on="1"/>
        <pt x="221" y="651" on="1"/>
        <pt x="132" y="786" on="1"/>
        <pt x="159" y="804" on="1"/>
      </contour>
      <contour>
        <pt x="-4" y="0" on="1"/>
        <pt x="2" y="33" on="1"/>
        <pt x="90" y="53" on="1"/>
        <pt x="188" y="558" on="1"/>
        <pt x="108" y="578" on="1"/>
        <pt x="114" y="611" on="1"/>
        <pt x="361" y="611" on="1"/>
        <pt x="355" y="578" on="1"/>
        <pt x="266" y="558" on="1"/>
        <pt x="168" y="56" on="1"/>
        <pt x="349" y="56" on="1"/>
        <pt x="390" y="147" on="1"/>
        <pt x="426" y="147" on="1"/>
        <pt x="398" y="0" on="1"/>
      </contour>
    </TTGlyph>
    <TTGlyph name="Lcommaaccent" xMin="-4" yMin="-221" xMax="426" yMax="611">
      <contour>
        <pt x="-4" y="0" on="1"/>
        <pt x="2" y="33" on="1"/>
        <pt x="90" y="53" on="1"/>
        <pt x="188" y="558" on="1"/>
        <pt x="108" y="578" on="1"/>
        <pt x="114" y="611" on="1"/>
        <pt x="361" y="611" on="1"/>
        <pt x="355" y="578" on="1"/>
        <pt x="266" y="558" on="1"/>
        <pt x="168" y="56" on="1"/>
        <pt x="349" y="56" on="1"/>
        <pt x="390" y="147" on="1"/>
        <pt x="426" y="147" on="1"/>
        <pt x="398" y="0" on="1"/>
      </contour>
      <contour>
        <pt x="272" y="-48" on="1"/>
        <pt x="172" y="-221" on="1"/>
        <pt x="147" y="-214" on="1"/>
        <pt x="182" y="-47" on="1"/>
        <pt x="257" y="-31" on="1"/>
      </contour>
    </TTGlyph>
    <TTGlyph name="Ldot" xMin="-11" yMin="0" xMax="457" yMax="611">
      <component glyphName=".ttfautohint" x="0" y="0" flags="0x0"/>
      <component glyphName="L" x="0" y="0" flags="0x0"/>
      <component glyphName="periodcentered" x="279" y="184" flags="0x4"/>
    </TTGlyph>
    <TTGlyph name="Lslash" xMin="-4" yMin="0" xMax="426" yMax="611">
      <contour>
        <pt x="-4" y="0" on="1"/>
        <pt x="2" y="33" on="1"/>
        <pt x="90" y="53" on="1"/>
        <pt x="129" y="257" on="1"/>
        <pt x="53" y="218" on="1"/>
        <pt x="33" y="257" on="1"/>
        <pt x="140" y="312" on="1"/>
        <pt x="188" y="558" on="1"/>
        <pt x="108" y="578" on="1"/>
        <pt x="114" y="611" on="1"/>
        <pt x="361" y="611" on="1"/>
        <pt x="355" y="578" on="1"/>
        <pt x="266" y="558" on="1"/>
        <pt x="226" y="356" on="1"/>
        <pt x="314" y="401" on="1"/>
        <pt x="336" y="363" on="1"/>
        <pt x="216" y="301" on="1"/>
        <pt x="168" y="56" on="1"/>
        <pt x="349" y="56" on="1"/>
        <pt x="390" y="147" on="1"/>
        <pt x="426" y="147" on="1"/>
        <pt x="398" y="0" on="1"/>
      </contour>
    </TTGlyph>
    <TTGlyph name="M" xMin="-2" yMin="-10" xMax="808" yMax="611">
      <contour>
        <pt x="-2" y="0" on="1"/>
        <pt x="4" y="33" on="1"/>
        <pt x="84" y="53" on="1"/>
        <pt x="198" y="559" on="1"/>
        <pt x="127" y="578" on="1"/>
        <pt x="133" y="611" on="1"/>
        <pt x="303" y="611" on="1"/>
        <pt x="370" y="118" on="1"/>
        <pt x="625" y="611" on="1"/>
        <pt x="808" y="611" on="1"/>
        <pt x="802" y="578" on="1"/>
        <pt x="713" y="558" on="1"/>
        <pt x="633" y="53" on="1"/>
        <pt x="715" y="33" on="1"/>
        <pt x="709" y="0" on="1"/>
        <pt x="460" y="0" on="1"/>
        <pt x="466" y="33" on="1"/>
        <pt x="554" y="53" on="1"/>
        <pt x="627" y="508" on="1"/>
        <pt x="359" y="0" on="1"/>
        <pt x="310" y="-10" on="1"/>
        <pt x="239" y="511" on="1"/>
        <pt x="136" y="53" on="1"/>
        <pt x="215" y="33" on="1"/>
        <pt x="209" y="0" on="1"/>
      </contour>
    </TTGlyph>
    <TTGlyph name="N" xMin="-14" yMin="-8" xMax="705" yMax="611">
      <contour>
        <pt x="705" y="611" on="1"/>
        <pt x="699" y="578" on="1"/>
        <pt x="618" y="559" on="1"/>
        <pt x="510" y="0" on="1"/>
        <pt x="464" y="-8" on="1"/>
        <pt x="210" y="488" on="1"/>
        <pt x="126" y="53" on="1"/>
        <pt x="203" y="33" on="1"/>
        <pt x="197" y="0" on="1"/>
        <pt x="-14" y="0" on="1"/>
        <pt x="-8" y="33" on="1"/>
        <pt x="71" y="53" on="1"/>
        <pt x="169" y="559" on="1"/>
        <pt x="98" y="578" on="1"/>
        <pt x="104" y="611" on="1"/>
        <pt x="234" y="611" on="1"/>
        <pt x="483" y="130" on="1"/>
        <pt x="566" y="559" on="1"/>
        <pt x="490" y="578" on="1"/>
        <pt x="496" y="611" on="1"/>
      </contour>
    </TTGlyph>
    <TTGlyph name="Nacute" xMin="-4" yMin="-8" xMax="715" yMax="800">
      <contour>
        <pt x="340" y="670" on="1"/>
        <pt x="494" y="800" on="1"/>
        <pt x="570" y="772" on="1"/>
        <pt x="570" y="754" on="1"/>
        <pt x="356" y="651" on="1"/>
      </contour>
      <contour>
        <pt x="715" y="611" on="1"/>
        <pt x="709" y="578" on="1"/>
        <pt x="628" y="559" on="1"/>
        <pt x="520" y="0" on="1"/>
        <pt x="474" y="-8" on="1"/>
        <pt x="220" y="488" on="1"/>
        <pt x="136" y="53" on="1"/>
        <pt x="213" y="33" on="1"/>
        <pt x="207" y="0" on="1"/>
        <pt x="-4" y="0" on="1"/>
        <pt x="2" y="33" on="1"/>
        <pt x="81" y="53" on="1"/>
        <pt x="179" y="559" on="1"/>
        <pt x="108" y="578" on="1"/>
        <pt x="114" y="611" on="1"/>
        <pt x="244" y="611" on="1"/>
        <pt x="493" y="130" on="1"/>
        <pt x="576" y="559" on="1"/>
        <pt x="500" y="578" on="1"/>
        <pt x="506" y="611" on="1"/>
      </contour>
    </TTGlyph>
    <TTGlyph name="Nacute.loclPLK" xMin="-14" yMin="-8" xMax="705" yMax="808">
      <component glyphName=".ttfautohint" x="0" y="0" flags="0x0"/>
      <component glyphName="N" x="0" y="0" flags="0x0"/>
      <component glyphName="acute.loclPLK.case" x="229" y="0" flags="0x0"/>
    </TTGlyph>
    <TTGlyph name="Ncaron" xMin="-4" yMin="-8" xMax="715" yMax="805">
      <contour>
        <pt x="419" y="722" on="1"/>
        <pt x="549" y="805" on="1"/>
        <pt x="569" y="786" on="1"/>
        <pt x="439" y="651" on="1"/>
        <pt x="379" y="651" on="1"/>
        <pt x="290" y="786" on="1"/>
        <pt x="317" y="804" on="1"/>
      </contour>
      <contour>
        <pt x="715" y="611" on="1"/>
        <pt x="709" y="578" on="1"/>
        <pt x="628" y="559" on="1"/>
        <pt x="520" y="0" on="1"/>
        <pt x="474" y="-8" on="1"/>
        <pt x="220" y="488" on="1"/>
        <pt x="136" y="53" on="1"/>
        <pt x="213" y="33" on="1"/>
        <pt x="207" y="0" on="1"/>
        <pt x="-4" y="0" on="1"/>
        <pt x="2" y="33" on="1"/>
        <pt x="81" y="53" on="1"/>
        <pt x="179" y="559" on="1"/>
        <pt x="108" y="578" on="1"/>
        <pt x="114" y="611" on="1"/>
        <pt x="244" y="611" on="1"/>
        <pt x="493" y="130" on="1"/>
        <pt x="576" y="559" on="1"/>
        <pt x="500" y="578" on="1"/>
        <pt x="506" y="611" on="1"/>
      </contour>
    </TTGlyph>
    <TTGlyph name="Ncommaaccent" xMin="-4" yMin="-221" xMax="715" yMax="611">
      <contour>
        <pt x="715" y="611" on="1"/>
        <pt x="709" y="578" on="1"/>
        <pt x="628" y="559" on="1"/>
        <pt x="520" y="0" on="1"/>
        <pt x="474" y="-8" on="1"/>
        <pt x="220" y="488" on="1"/>
        <pt x="136" y="53" on="1"/>
        <pt x="213" y="33" on="1"/>
        <pt x="207" y="0" on="1"/>
        <pt x="-4" y="0" on="1"/>
        <pt x="2" y="33" on="1"/>
        <pt x="81" y="53" on="1"/>
        <pt x="179" y="559" on="1"/>
        <pt x="108" y="578" on="1"/>
        <pt x="114" y="611" on="1"/>
        <pt x="244" y="611" on="1"/>
        <pt x="493" y="130" on="1"/>
        <pt x="576" y="559" on="1"/>
        <pt x="500" y="578" on="1"/>
        <pt x="506" y="611" on="1"/>
      </contour>
      <contour>
        <pt x="346" y="-48" on="1"/>
        <pt x="246" y="-221" on="1"/>
        <pt x="221" y="-214" on="1"/>
        <pt x="256" y="-47" on="1"/>
        <pt x="331" y="-31" on="1"/>
      </contour>
    </TTGlyph>
    <TTGlyph name="Ntilde" xMin="-4" yMin="-8" xMax="715" yMax="782">
      <contour>
        <pt x="571" y="719" on="0"/>
        <pt x="537" y="670" on="0"/>
        <pt x="515" y="670" on="1"/>
        <pt x="498" y="670" on="0"/>
        <pt x="438" y="690" on="1"/>
        <pt x="380" y="710" on="0"/>
        <pt x="363" y="710" on="1"/>
        <pt x="353" y="710" on="0"/>
        <pt x="333" y="694" on="0"/>
        <pt x="320" y="677" on="0"/>
        <pt x="318" y="674" on="1"/>
        <pt x="288" y="686" on="1"/>
        <pt x="307" y="732" on="0"/>
        <pt x="341" y="782" on="0"/>
        <pt x="364" y="782" on="1"/>
        <pt x="381" y="782" on="0"/>
        <pt x="439" y="762" on="1"/>
        <pt x="461" y="754" on="0"/>
        <pt x="504" y="742" on="0"/>
        <pt x="516" y="742" on="1"/>
        <pt x="526" y="742" on="0"/>
        <pt x="545" y="758" on="0"/>
        <pt x="558" y="774" on="0"/>
        <pt x="559" y="777" on="1"/>
        <pt x="590" y="765" on="1"/>
      </contour>
      <contour>
        <pt x="715" y="611" on="1"/>
        <pt x="709" y="578" on="1"/>
        <pt x="628" y="559" on="1"/>
        <pt x="520" y="0" on="1"/>
        <pt x="474" y="-8" on="1"/>
        <pt x="220" y="488" on="1"/>
        <pt x="136" y="53" on="1"/>
        <pt x="213" y="33" on="1"/>
        <pt x="207" y="0" on="1"/>
        <pt x="-4" y="0" on="1"/>
        <pt x="2" y="33" on="1"/>
        <pt x="81" y="53" on="1"/>
        <pt x="179" y="559" on="1"/>
        <pt x="108" y="578" on="1"/>
        <pt x="114" y="611" on="1"/>
        <pt x="244" y="611" on="1"/>
        <pt x="493" y="130" on="1"/>
        <pt x="576" y="559" on="1"/>
        <pt x="500" y="578" on="1"/>
        <pt x="506" y="611" on="1"/>
      </contour>
    </TTGlyph>
    <TTGlyph name="O" xMin="42" yMin="-9" xMax="603" yMax="626">
      <contour>
        <pt x="498" y="626" on="0"/>
        <pt x="603" y="508" on="0"/>
        <pt x="603" y="406" on="1"/>
        <pt x="603" y="296" on="0"/>
        <pt x="524" y="106" on="0"/>
        <pt x="370" y="-9" on="0"/>
        <pt x="262" y="-9" on="1"/>
        <pt x="150" y="-9" on="0"/>
        <pt x="42" y="112" on="0"/>
        <pt x="42" y="215" on="1"/>
        <pt x="42" y="323" on="0"/>
        <pt x="123" y="511" on="0"/>
        <pt x="278" y="626" on="0"/>
        <pt x="385" y="626" on="1"/>
      </contour>
      <contour>
        <pt x="132" y="39" on="0"/>
        <pt x="271" y="39" on="1"/>
        <pt x="355" y="39" on="0"/>
        <pt x="465" y="153" on="0"/>
        <pt x="515" y="320" on="0"/>
        <pt x="515" y="401" on="1"/>
        <pt x="515" y="578" on="0"/>
        <pt x="373" y="578" on="1"/>
        <pt x="283" y="578" on="0"/>
        <pt x="175" y="448" on="0"/>
        <pt x="132" y="280" on="0"/>
        <pt x="132" y="217" on="1"/>
      </contour>
    </TTGlyph>
    <TTGlyph name="OE" xMin="66" yMin="0" xMax="837" yMax="611">
      <contour>
        <pt x="173" y="0" on="0"/>
        <pt x="66" y="114" on="0"/>
        <pt x="66" y="215" on="1"/>
        <pt x="66" y="322" on="0"/>
        <pt x="153" y="503" on="0"/>
        <pt x="315" y="611" on="0"/>
        <pt x="422" y="611" on="1"/>
        <pt x="837" y="611" on="1"/>
        <pt x="812" y="479" on="1"/>
        <pt x="774" y="479" on="1"/>
        <pt x="774" y="559" on="1"/>
        <pt x="586" y="559" on="1"/>
        <pt x="540" y="323" on="1"/>
        <pt x="676" y="323" on="1"/>
        <pt x="709" y="389" on="1"/>
        <pt x="743" y="389" on="1"/>
        <pt x="708" y="208" on="1"/>
        <pt x="674" y="208" on="1"/>
        <pt x="664" y="277" on="1"/>
        <pt x="531" y="277" on="1"/>
        <pt x="488" y="56" on="1"/>
        <pt x="691" y="56" on="1"/>
        <pt x="733" y="147" on="1"/>
        <pt x="770" y="147" on="1"/>
        <pt x="742" y="0" on="1"/>
        <pt x="286" y="0" on="1"/>
      </contour>
      <contour>
        <pt x="365" y="48" on="0"/>
        <pt x="410" y="58" on="1"/>
        <pt x="506" y="553" on="1"/>
        <pt x="457" y="563" on="0"/>
        <pt x="402" y="563" on="1"/>
        <pt x="312" y="563" on="0"/>
        <pt x="201" y="439" on="0"/>
        <pt x="154" y="278" on="0"/>
        <pt x="154" y="217" on="1"/>
        <pt x="154" y="138" on="0"/>
        <pt x="234" y="48" on="0"/>
        <pt x="310" y="48" on="1"/>
      </contour>
    </TTGlyph>
    <TTGlyph name="Oacute" xMin="42" yMin="-9" xMax="603" yMax="800">
      <component glyphName=".ttfautohint" x="42" y="0" flags="0x0"/>
      <component glyphName="O" x="0" y="0" flags="0x0"/>
      <component glyphName="acute.case" x="231" y="0" flags="0x0"/>
    </TTGlyph>
    <TTGlyph name="Oacute.loclPLK" xMin="42" yMin="-9" xMax="603" yMax="808">
      <component glyphName=".ttfautohint" x="42" y="0" flags="0x0"/>
      <component glyphName="O" x="0" y="0" flags="0x0"/>
      <component glyphName="acute.loclPLK.case" x="201" y="0" flags="0x0"/>
    </TTGlyph>
    <TTGlyph name="Obreve" xMin="42" yMin="-9" xMax="603" yMax="785">
      <component glyphName=".ttfautohint" x="42" y="0" flags="0x0"/>
      <component glyphName="O" x="0" y="0" flags="0x0"/>
      <component glyphName="uni0306" x="438" y="0" flags="0x0"/>
    </TTGlyph>
    <TTGlyph name="Ocircumflex" xMin="42" yMin="-9" xMax="603" yMax="804">
      <contour>
        <pt x="406" y="735" on="1"/>
        <pt x="268" y="650" on="1"/>
        <pt x="248" y="669" on="1"/>
        <pt x="387" y="804" on="1"/>
        <pt x="447" y="804" on="1"/>
        <pt x="526" y="669" on="1"/>
        <pt x="500" y="650" on="1"/>
      </contour>
      <contour>
        <pt x="498" y="626" on="0"/>
        <pt x="603" y="508" on="0"/>
        <pt x="603" y="406" on="1"/>
        <pt x="603" y="296" on="0"/>
        <pt x="524" y="106" on="0"/>
        <pt x="370" y="-9" on="0"/>
        <pt x="262" y="-9" on="1"/>
        <pt x="150" y="-9" on="0"/>
        <pt x="42" y="112" on="0"/>
        <pt x="42" y="215" on="1"/>
        <pt x="42" y="323" on="0"/>
        <pt x="123" y="511" on="0"/>
        <pt x="278" y="626" on="0"/>
        <pt x="385" y="626" on="1"/>
      </contour>
      <contour>
        <pt x="132" y="39" on="0"/>
        <pt x="271" y="39" on="1"/>
        <pt x="355" y="39" on="0"/>
        <pt x="465" y="153" on="0"/>
        <pt x="515" y="320" on="0"/>
        <pt x="515" y="401" on="1"/>
        <pt x="515" y="578" on="0"/>
        <pt x="373" y="578" on="1"/>
        <pt x="283" y="578" on="0"/>
        <pt x="175" y="448" on="0"/>
        <pt x="132" y="280" on="0"/>
        <pt x="132" y="217" on="1"/>
      </contour>
    </TTGlyph>
    <TTGlyph name="Odieresis" xMin="42" yMin="-9" xMax="603" yMax="784">
      <contour>
        <pt x="364" y="704" on="0"/>
        <pt x="330" y="671" on="0"/>
        <pt x="307" y="671" on="1"/>
        <pt x="284" y="671" on="0"/>
        <pt x="250" y="704" on="0"/>
        <pt x="250" y="726" on="1"/>
        <pt x="250" y="750" on="0"/>
        <pt x="284" y="784" on="0"/>
        <pt x="307" y="784" on="1"/>
        <pt x="330" y="784" on="0"/>
        <pt x="364" y="750" on="0"/>
        <pt x="364" y="726" on="1"/>
      </contour>
      <contour>
        <pt x="559" y="704" on="0"/>
        <pt x="524" y="671" on="0"/>
        <pt x="501" y="671" on="1"/>
        <pt x="478" y="671" on="0"/>
        <pt x="444" y="704" on="0"/>
        <pt x="444" y="726" on="1"/>
        <pt x="444" y="750" on="0"/>
        <pt x="478" y="784" on="0"/>
        <pt x="501" y="784" on="1"/>
        <pt x="524" y="784" on="0"/>
        <pt x="559" y="750" on="0"/>
        <pt x="559" y="726" on="1"/>
      </contour>
      <contour>
        <pt x="498" y="626" on="0"/>
        <pt x="603" y="508" on="0"/>
        <pt x="603" y="406" on="1"/>
        <pt x="603" y="296" on="0"/>
        <pt x="524" y="106" on="0"/>
        <pt x="370" y="-9" on="0"/>
        <pt x="262" y="-9" on="1"/>
        <pt x="150" y="-9" on="0"/>
        <pt x="42" y="112" on="0"/>
        <pt x="42" y="215" on="1"/>
        <pt x="42" y="323" on="0"/>
        <pt x="123" y="511" on="0"/>
        <pt x="278" y="626" on="0"/>
        <pt x="385" y="626" on="1"/>
      </contour>
      <contour>
        <pt x="132" y="39" on="0"/>
        <pt x="271" y="39" on="1"/>
        <pt x="355" y="39" on="0"/>
        <pt x="465" y="153" on="0"/>
        <pt x="515" y="320" on="0"/>
        <pt x="515" y="401" on="1"/>
        <pt x="515" y="578" on="0"/>
        <pt x="373" y="578" on="1"/>
        <pt x="283" y="578" on="0"/>
        <pt x="175" y="448" on="0"/>
        <pt x="132" y="280" on="0"/>
        <pt x="132" y="217" on="1"/>
      </contour>
    </TTGlyph>
    <TTGlyph name="Ograve" xMin="42" yMin="-9" xMax="603" yMax="800">
      <contour>
        <pt x="276" y="772" on="1"/>
        <pt x="352" y="800" on="1"/>
        <pt x="506" y="670" on="1"/>
        <pt x="490" y="651" on="1"/>
        <pt x="276" y="754" on="1"/>
      </contour>
      <contour>
        <pt x="498" y="626" on="0"/>
        <pt x="603" y="508" on="0"/>
        <pt x="603" y="406" on="1"/>
        <pt x="603" y="296" on="0"/>
        <pt x="524" y="106" on="0"/>
        <pt x="370" y="-9" on="0"/>
        <pt x="262" y="-9" on="1"/>
        <pt x="150" y="-9" on="0"/>
        <pt x="42" y="112" on="0"/>
        <pt x="42" y="215" on="1"/>
        <pt x="42" y="323" on="0"/>
        <pt x="123" y="511" on="0"/>
        <pt x="278" y="626" on="0"/>
        <pt x="385" y="626" on="1"/>
      </contour>
      <contour>
        <pt x="132" y="39" on="0"/>
        <pt x="271" y="39" on="1"/>
        <pt x="355" y="39" on="0"/>
        <pt x="465" y="153" on="0"/>
        <pt x="515" y="320" on="0"/>
        <pt x="515" y="401" on="1"/>
        <pt x="515" y="578" on="0"/>
        <pt x="373" y="578" on="1"/>
        <pt x="283" y="578" on="0"/>
        <pt x="175" y="448" on="0"/>
        <pt x="132" y="280" on="0"/>
        <pt x="132" y="217" on="1"/>
      </contour>
    </TTGlyph>
    <TTGlyph name="Ohorn" xMin="42" yMin="-9" xMax="686" yMax="691">
      <contour>
        <pt x="686" y="597" on="0"/>
        <pt x="624" y="545" on="0"/>
        <pt x="574" y="534" on="1"/>
        <pt x="603" y="483" on="0"/>
        <pt x="603" y="406" on="1"/>
        <pt x="603" y="296" on="0"/>
        <pt x="524" y="106" on="0"/>
        <pt x="370" y="-9" on="0"/>
        <pt x="262" y="-9" on="1"/>
        <pt x="150" y="-9" on="0"/>
        <pt x="42" y="112" on="0"/>
        <pt x="42" y="215" on="1"/>
        <pt x="42" y="323" on="0"/>
        <pt x="123" y="511" on="0"/>
        <pt x="278" y="626" on="0"/>
        <pt x="385" y="626" on="1"/>
        <pt x="491" y="626" on="0"/>
        <pt x="547" y="570" on="1"/>
        <pt x="575" y="572" on="0"/>
        <pt x="604" y="595" on="0"/>
        <pt x="604" y="623" on="1"/>
        <pt x="604" y="642" on="0"/>
        <pt x="599" y="664" on="1"/>
        <pt x="605" y="677" on="1"/>
        <pt x="673" y="691" on="1"/>
        <pt x="679" y="678" on="0"/>
        <pt x="686" y="646" on="0"/>
        <pt x="686" y="634" on="1"/>
      </contour>
      <contour>
        <pt x="355" y="39" on="0"/>
        <pt x="465" y="153" on="0"/>
        <pt x="515" y="320" on="0"/>
        <pt x="515" y="401" on="1"/>
        <pt x="515" y="578" on="0"/>
        <pt x="373" y="578" on="1"/>
        <pt x="283" y="578" on="0"/>
        <pt x="175" y="448" on="0"/>
        <pt x="132" y="280" on="0"/>
        <pt x="132" y="217" on="1"/>
        <pt x="132" y="39" on="0"/>
        <pt x="271" y="39" on="1"/>
      </contour>
    </TTGlyph>
    <TTGlyph name="Ohungarumlaut" xMin="42" yMin="-9" xMax="603" yMax="808">
      <contour>
        <pt x="247" y="658" on="1"/>
        <pt x="333" y="808" on="1"/>
        <pt x="408" y="808" on="1"/>
        <pt x="408" y="791" on="1"/>
        <pt x="266" y="647" on="1"/>
      </contour>
      <contour>
        <pt x="408" y="658" on="1"/>
        <pt x="494" y="808" on="1"/>
        <pt x="569" y="808" on="1"/>
        <pt x="569" y="791" on="1"/>
        <pt x="427" y="647" on="1"/>
      </contour>
      <contour>
        <pt x="498" y="626" on="0"/>
        <pt x="603" y="508" on="0"/>
        <pt x="603" y="406" on="1"/>
        <pt x="603" y="296" on="0"/>
        <pt x="524" y="106" on="0"/>
        <pt x="370" y="-9" on="0"/>
        <pt x="262" y="-9" on="1"/>
        <pt x="150" y="-9" on="0"/>
        <pt x="42" y="112" on="0"/>
        <pt x="42" y="215" on="1"/>
        <pt x="42" y="323" on="0"/>
        <pt x="123" y="511" on="0"/>
        <pt x="278" y="626" on="0"/>
        <pt x="385" y="626" on="1"/>
      </contour>
      <contour>
        <pt x="132" y="39" on="0"/>
        <pt x="271" y="39" on="1"/>
        <pt x="355" y="39" on="0"/>
        <pt x="465" y="153" on="0"/>
        <pt x="515" y="320" on="0"/>
        <pt x="515" y="401" on="1"/>
        <pt x="515" y="578" on="0"/>
        <pt x="373" y="578" on="1"/>
        <pt x="283" y="578" on="0"/>
        <pt x="175" y="448" on="0"/>
        <pt x="132" y="280" on="0"/>
        <pt x="132" y="217" on="1"/>
      </contour>
    </TTGlyph>
    <TTGlyph name="Omacron" xMin="42" yMin="-9" xMax="603" yMax="743">
      <contour>
        <pt x="530" y="743" on="1"/>
        <pt x="522" y="689" on="1"/>
        <pt x="285" y="689" on="1"/>
        <pt x="293" y="743" on="1"/>
      </contour>
      <contour>
        <pt x="498" y="626" on="0"/>
        <pt x="603" y="508" on="0"/>
        <pt x="603" y="406" on="1"/>
        <pt x="603" y="296" on="0"/>
        <pt x="524" y="106" on="0"/>
        <pt x="370" y="-9" on="0"/>
        <pt x="262" y="-9" on="1"/>
        <pt x="150" y="-9" on="0"/>
        <pt x="42" y="112" on="0"/>
        <pt x="42" y="215" on="1"/>
        <pt x="42" y="323" on="0"/>
        <pt x="123" y="511" on="0"/>
        <pt x="278" y="626" on="0"/>
        <pt x="385" y="626" on="1"/>
      </contour>
      <contour>
        <pt x="132" y="39" on="0"/>
        <pt x="271" y="39" on="1"/>
        <pt x="355" y="39" on="0"/>
        <pt x="465" y="153" on="0"/>
        <pt x="515" y="320" on="0"/>
        <pt x="515" y="401" on="1"/>
        <pt x="515" y="578" on="0"/>
        <pt x="373" y="578" on="1"/>
        <pt x="283" y="578" on="0"/>
        <pt x="175" y="448" on="0"/>
        <pt x="132" y="280" on="0"/>
        <pt x="132" y="217" on="1"/>
      </contour>
    </TTGlyph>
    <TTGlyph name="Oslash" xMin="42" yMin="-96" xMax="603" yMax="708">
      <contour>
        <pt x="417" y="708" on="1"/>
        <pt x="478" y="708" on="1"/>
        <pt x="449" y="620" on="1"/>
        <pt x="528" y="603" on="0"/>
        <pt x="603" y="491" on="0"/>
        <pt x="603" y="406" on="1"/>
        <pt x="603" y="296" on="0"/>
        <pt x="524" y="106" on="0"/>
        <pt x="370" y="-9" on="0"/>
        <pt x="262" y="-9" on="1"/>
        <pt x="246" y="-9" on="1"/>
        <pt x="218" y="-96" on="1"/>
        <pt x="157" y="-96" on="1"/>
        <pt x="188" y="0" on="1"/>
        <pt x="114" y="18" on="0"/>
        <pt x="42" y="131" on="0"/>
        <pt x="42" y="215" on="1"/>
        <pt x="42" y="323" on="0"/>
        <pt x="123" y="511" on="0"/>
        <pt x="278" y="626" on="0"/>
        <pt x="385" y="626" on="1"/>
        <pt x="390" y="626" on="1"/>
      </contour>
      <contour>
        <pt x="132" y="87" on="0"/>
        <pt x="205" y="52" on="1"/>
        <pt x="375" y="578" on="1"/>
        <pt x="373" y="578" on="1"/>
        <pt x="283" y="578" on="0"/>
        <pt x="175" y="448" on="0"/>
        <pt x="132" y="280" on="0"/>
        <pt x="132" y="217" on="1"/>
      </contour>
      <contour>
        <pt x="515" y="536" on="0"/>
        <pt x="432" y="568" on="1"/>
        <pt x="261" y="39" on="1"/>
        <pt x="271" y="39" on="1"/>
        <pt x="355" y="39" on="0"/>
        <pt x="465" y="153" on="0"/>
        <pt x="515" y="320" on="0"/>
        <pt x="515" y="401" on="1"/>
      </contour>
    </TTGlyph>
    <TTGlyph name="Oslashacute" xMin="42" yMin="-96" xMax="603" yMax="800">
      <component glyphName=".ttfautohint" x="42" y="0" flags="0x0"/>
      <component glyphName="Oslash" x="0" y="0" flags="0x0"/>
      <component glyphName="acutecomb" x="418" y="0" flags="0x0"/>
    </TTGlyph>
    <TTGlyph name="Otilde" xMin="42" yMin="-9" xMax="603" yMax="782">
      <contour>
        <pt x="549" y="719" on="0"/>
        <pt x="515" y="670" on="0"/>
        <pt x="493" y="670" on="1"/>
        <pt x="476" y="670" on="0"/>
        <pt x="416" y="690" on="1"/>
        <pt x="358" y="710" on="0"/>
        <pt x="341" y="710" on="1"/>
        <pt x="331" y="710" on="0"/>
        <pt x="311" y="694" on="0"/>
        <pt x="298" y="677" on="0"/>
        <pt x="296" y="674" on="1"/>
        <pt x="266" y="686" on="1"/>
        <pt x="285" y="732" on="0"/>
        <pt x="319" y="782" on="0"/>
        <pt x="342" y="782" on="1"/>
        <pt x="359" y="782" on="0"/>
        <pt x="417" y="762" on="1"/>
        <pt x="439" y="754" on="0"/>
        <pt x="482" y="742" on="0"/>
        <pt x="494" y="742" on="1"/>
        <pt x="504" y="742" on="0"/>
        <pt x="523" y="758" on="0"/>
        <pt x="536" y="774" on="0"/>
        <pt x="537" y="777" on="1"/>
        <pt x="568" y="765" on="1"/>
      </contour>
      <contour>
        <pt x="498" y="626" on="0"/>
        <pt x="603" y="508" on="0"/>
        <pt x="603" y="406" on="1"/>
        <pt x="603" y="296" on="0"/>
        <pt x="524" y="106" on="0"/>
        <pt x="370" y="-9" on="0"/>
        <pt x="262" y="-9" on="1"/>
        <pt x="150" y="-9" on="0"/>
        <pt x="42" y="112" on="0"/>
        <pt x="42" y="215" on="1"/>
        <pt x="42" y="323" on="0"/>
        <pt x="123" y="511" on="0"/>
        <pt x="278" y="626" on="0"/>
        <pt x="385" y="626" on="1"/>
      </contour>
      <contour>
        <pt x="132" y="39" on="0"/>
        <pt x="271" y="39" on="1"/>
        <pt x="355" y="39" on="0"/>
        <pt x="465" y="153" on="0"/>
        <pt x="515" y="320" on="0"/>
        <pt x="515" y="401" on="1"/>
        <pt x="515" y="578" on="0"/>
        <pt x="373" y="578" on="1"/>
        <pt x="283" y="578" on="0"/>
        <pt x="175" y="448" on="0"/>
        <pt x="132" y="280" on="0"/>
        <pt x="132" y="217" on="1"/>
      </contour>
    </TTGlyph>
    <TTGlyph name="P" xMin="-11" yMin="0" xMax="507" yMax="611">
      <contour>
        <pt x="409" y="611" on="0"/>
        <pt x="507" y="545" on="0"/>
        <pt x="507" y="480" on="1"/>
        <pt x="507" y="407" on="0"/>
        <pt x="438" y="302" on="0"/>
        <pt x="332" y="249" on="0"/>
        <pt x="276" y="249" on="1"/>
        <pt x="238" y="249" on="0"/>
        <pt x="202" y="259" on="1"/>
        <pt x="162" y="53" on="1"/>
        <pt x="266" y="34" on="1"/>
        <pt x="260" y="0" on="1"/>
        <pt x="-11" y="0" on="1"/>
        <pt x="-5" y="33" on="1"/>
        <pt x="84" y="53" on="1"/>
        <pt x="181" y="554" on="1"/>
        <pt x="100" y="576" on="1"/>
        <pt x="107" y="611" on="1"/>
        <pt x="322" y="611" on="1"/>
      </contour>
      <contour>
        <pt x="228" y="289" on="0"/>
        <pt x="264" y="289" on="1"/>
        <pt x="301" y="289" on="0"/>
        <pt x="372" y="325" on="0"/>
        <pt x="420" y="408" on="0"/>
        <pt x="420" y="473" on="1"/>
        <pt x="420" y="521" on="0"/>
        <pt x="367" y="569" on="0"/>
        <pt x="322" y="569" on="1"/>
        <pt x="292" y="569" on="0"/>
        <pt x="260" y="559" on="1"/>
        <pt x="209" y="297" on="1"/>
      </contour>
    </TTGlyph>
    <TTGlyph name="Q" xMin="35" yMin="-151" xMax="596" yMax="626">
      <contour>
        <pt x="542" y="-135" on="0"/>
        <pt x="481" y="-151" on="0"/>
        <pt x="458" y="-151" on="1"/>
        <pt x="432" y="-151" on="0"/>
        <pt x="389" y="-135" on="0"/>
        <pt x="348" y="-109" on="1"/>
        <pt x="184" y="-2" on="1"/>
        <pt x="104" y="47" on="0"/>
        <pt x="35" y="145" on="0"/>
        <pt x="35" y="221" on="1"/>
        <pt x="35" y="330" on="0"/>
        <pt x="118" y="515" on="0"/>
        <pt x="274" y="626" on="0"/>
        <pt x="377" y="626" on="1"/>
        <pt x="490" y="626" on="0"/>
        <pt x="596" y="507" on="0"/>
        <pt x="596" y="406" on="1"/>
        <pt x="596" y="297" on="0"/>
        <pt x="515" y="113" on="0"/>
        <pt x="369" y="3" on="0"/>
        <pt x="276" y="3" on="1"/>
        <pt x="351" y="-39" on="0"/>
        <pt x="472" y="-98" on="0"/>
        <pt x="488" y="-98" on="1"/>
        <pt x="564" y="-98" on="1"/>
        <pt x="562" y="-126" on="1"/>
      </contour>
      <contour>
        <pt x="354" y="41" on="0"/>
        <pt x="464" y="172" on="0"/>
        <pt x="510" y="341" on="0"/>
        <pt x="510" y="401" on="1"/>
        <pt x="510" y="479" on="0"/>
        <pt x="443" y="578" on="0"/>
        <pt x="363" y="578" on="1"/>
        <pt x="286" y="578" on="0"/>
        <pt x="177" y="467" on="0"/>
        <pt x="123" y="302" on="0"/>
        <pt x="123" y="224" on="1"/>
        <pt x="123" y="144" on="0"/>
        <pt x="187" y="41" on="0"/>
        <pt x="263" y="41" on="1"/>
      </contour>
    </TTGlyph>
    <TTGlyph name="R" xMin="-11" yMin="0" xMax="509" yMax="611">
      <contour>
        <pt x="344" y="86" on="1"/>
        <pt x="317" y="192" on="0"/>
        <pt x="294" y="261" on="0"/>
        <pt x="272" y="279" on="0"/>
        <pt x="244" y="279" on="1"/>
        <pt x="208" y="279" on="1"/>
        <pt x="164" y="53" on="1"/>
        <pt x="247" y="33" on="1"/>
        <pt x="241" y="0" on="1"/>
        <pt x="-11" y="0" on="1"/>
        <pt x="-5" y="33" on="1"/>
        <pt x="86" y="53" on="1"/>
        <pt x="184" y="558" on="1"/>
        <pt x="101" y="578" on="1"/>
        <pt x="107" y="611" on="1"/>
        <pt x="335" y="611" on="1"/>
        <pt x="423" y="611" on="0"/>
        <pt x="507" y="543" on="0"/>
        <pt x="507" y="488" on="1"/>
        <pt x="507" y="452" on="0"/>
        <pt x="475" y="373" on="0"/>
        <pt x="400" y="306" on="0"/>
        <pt x="338" y="292" on="1"/>
        <pt x="356" y="285" on="0"/>
        <pt x="376" y="263" on="0"/>
        <pt x="390" y="222" on="0"/>
        <pt x="403" y="172" on="1"/>
        <pt x="426" y="87" on="0"/>
        <pt x="435" y="55" on="1"/>
        <pt x="509" y="33" on="1"/>
        <pt x="503" y="0" on="1"/>
        <pt x="366" y="0" on="1"/>
      </contour>
      <contour>
        <pt x="316" y="319" on="0"/>
        <pt x="384" y="361" on="0"/>
        <pt x="423" y="436" on="0"/>
        <pt x="423" y="482" on="1"/>
        <pt x="423" y="527" on="0"/>
        <pt x="377" y="569" on="0"/>
        <pt x="323" y="569" on="1"/>
        <pt x="297" y="569" on="0"/>
        <pt x="262" y="559" on="1"/>
        <pt x="216" y="319" on="1"/>
        <pt x="273" y="319" on="1"/>
      </contour>
    </TTGlyph>
    <TTGlyph name="Racute" xMin="-3" yMin="0" xMax="517" yMax="800">
      <contour>
        <pt x="247" y="670" on="1"/>
        <pt x="401" y="800" on="1"/>
        <pt x="477" y="772" on="1"/>
        <pt x="477" y="754" on="1"/>
        <pt x="263" y="651" on="1"/>
      </contour>
      <contour>
        <pt x="352" y="86" on="1"/>
        <pt x="325" y="192" on="0"/>
        <pt x="302" y="261" on="0"/>
        <pt x="280" y="279" on="0"/>
        <pt x="252" y="279" on="1"/>
        <pt x="216" y="279" on="1"/>
        <pt x="172" y="53" on="1"/>
        <pt x="255" y="33" on="1"/>
        <pt x="249" y="0" on="1"/>
        <pt x="-3" y="0" on="1"/>
        <pt x="3" y="33" on="1"/>
        <pt x="94" y="53" on="1"/>
        <pt x="192" y="558" on="1"/>
        <pt x="109" y="578" on="1"/>
        <pt x="115" y="611" on="1"/>
        <pt x="343" y="611" on="1"/>
        <pt x="431" y="611" on="0"/>
        <pt x="515" y="543" on="0"/>
        <pt x="515" y="488" on="1"/>
        <pt x="515" y="452" on="0"/>
        <pt x="483" y="373" on="0"/>
        <pt x="408" y="306" on="0"/>
        <pt x="346" y="292" on="1"/>
        <pt x="364" y="285" on="0"/>
        <pt x="384" y="263" on="0"/>
        <pt x="398" y="222" on="0"/>
        <pt x="411" y="172" on="1"/>
        <pt x="434" y="87" on="0"/>
        <pt x="443" y="55" on="1"/>
        <pt x="517" y="33" on="1"/>
        <pt x="511" y="0" on="1"/>
        <pt x="374" y="0" on="1"/>
      </contour>
      <contour>
        <pt x="324" y="319" on="0"/>
        <pt x="392" y="361" on="0"/>
        <pt x="431" y="436" on="0"/>
        <pt x="431" y="482" on="1"/>
        <pt x="431" y="527" on="0"/>
        <pt x="385" y="569" on="0"/>
        <pt x="331" y="569" on="1"/>
        <pt x="305" y="569" on="0"/>
        <pt x="270" y="559" on="1"/>
        <pt x="224" y="319" on="1"/>
        <pt x="281" y="319" on="1"/>
      </contour>
    </TTGlyph>
    <TTGlyph name="Rcaron" xMin="-3" yMin="0" xMax="517" yMax="805">
      <contour>
        <pt x="344" y="722" on="1"/>
        <pt x="474" y="805" on="1"/>
        <pt x="494" y="786" on="1"/>
        <pt x="364" y="651" on="1"/>
        <pt x="304" y="651" on="1"/>
        <pt x="215" y="786" on="1"/>
        <pt x="242" y="804" on="1"/>
      </contour>
      <contour>
        <pt x="352" y="86" on="1"/>
        <pt x="325" y="192" on="0"/>
        <pt x="302" y="261" on="0"/>
        <pt x="280" y="279" on="0"/>
        <pt x="252" y="279" on="1"/>
        <pt x="216" y="279" on="1"/>
        <pt x="172" y="53" on="1"/>
        <pt x="255" y="33" on="1"/>
        <pt x="249" y="0" on="1"/>
        <pt x="-3" y="0" on="1"/>
        <pt x="3" y="33" on="1"/>
        <pt x="94" y="53" on="1"/>
        <pt x="192" y="558" on="1"/>
        <pt x="109" y="578" on="1"/>
        <pt x="115" y="611" on="1"/>
        <pt x="343" y="611" on="1"/>
        <pt x="431" y="611" on="0"/>
        <pt x="515" y="543" on="0"/>
        <pt x="515" y="488" on="1"/>
        <pt x="515" y="452" on="0"/>
        <pt x="483" y="373" on="0"/>
        <pt x="408" y="306" on="0"/>
        <pt x="346" y="292" on="1"/>
        <pt x="364" y="285" on="0"/>
        <pt x="384" y="263" on="0"/>
        <pt x="398" y="222" on="0"/>
        <pt x="411" y="172" on="1"/>
        <pt x="434" y="87" on="0"/>
        <pt x="443" y="55" on="1"/>
        <pt x="517" y="33" on="1"/>
        <pt x="511" y="0" on="1"/>
        <pt x="374" y="0" on="1"/>
      </contour>
      <contour>
        <pt x="324" y="319" on="0"/>
        <pt x="392" y="361" on="0"/>
        <pt x="431" y="436" on="0"/>
        <pt x="431" y="482" on="1"/>
        <pt x="431" y="527" on="0"/>
        <pt x="385" y="569" on="0"/>
        <pt x="331" y="569" on="1"/>
        <pt x="305" y="569" on="0"/>
        <pt x="270" y="559" on="1"/>
        <pt x="224" y="319" on="1"/>
        <pt x="281" y="319" on="1"/>
      </contour>
    </TTGlyph>
    <TTGlyph name="Rcommaaccent" xMin="-3" yMin="-221" xMax="517" yMax="611">
      <contour>
        <pt x="352" y="86" on="1"/>
        <pt x="325" y="192" on="0"/>
        <pt x="302" y="261" on="0"/>
        <pt x="280" y="279" on="0"/>
        <pt x="252" y="279" on="1"/>
        <pt x="216" y="279" on="1"/>
        <pt x="172" y="53" on="1"/>
        <pt x="255" y="33" on="1"/>
        <pt x="249" y="0" on="1"/>
        <pt x="-3" y="0" on="1"/>
        <pt x="3" y="33" on="1"/>
        <pt x="94" y="53" on="1"/>
        <pt x="192" y="558" on="1"/>
        <pt x="109" y="578" on="1"/>
        <pt x="115" y="611" on="1"/>
        <pt x="343" y="611" on="1"/>
        <pt x="431" y="611" on="0"/>
        <pt x="515" y="543" on="0"/>
        <pt x="515" y="488" on="1"/>
        <pt x="515" y="452" on="0"/>
        <pt x="483" y="373" on="0"/>
        <pt x="408" y="306" on="0"/>
        <pt x="346" y="292" on="1"/>
        <pt x="364" y="285" on="0"/>
        <pt x="384" y="263" on="0"/>
        <pt x="398" y="222" on="0"/>
        <pt x="411" y="172" on="1"/>
        <pt x="434" y="87" on="0"/>
        <pt x="443" y="55" on="1"/>
        <pt x="517" y="33" on="1"/>
        <pt x="511" y="0" on="1"/>
        <pt x="374" y="0" on="1"/>
      </contour>
      <contour>
        <pt x="324" y="319" on="0"/>
        <pt x="392" y="361" on="0"/>
        <pt x="431" y="436" on="0"/>
        <pt x="431" y="482" on="1"/>
        <pt x="431" y="527" on="0"/>
        <pt x="385" y="569" on="0"/>
        <pt x="331" y="569" on="1"/>
        <pt x="305" y="569" on="0"/>
        <pt x="270" y="559" on="1"/>
        <pt x="224" y="319" on="1"/>
        <pt x="281" y="319" on="1"/>
      </contour>
      <contour>
        <pt x="309" y="-48" on="1"/>
        <pt x="209" y="-221" on="1"/>
        <pt x="184" y="-214" on="1"/>
        <pt x="219" y="-47" on="1"/>
        <pt x="294" y="-31" on="1"/>
      </contour>
    </TTGlyph>
    <TTGlyph name="S" xMin="3" yMin="-11" xMax="466" yMax="627">
      <contour>
        <pt x="120" y="-11" on="0"/>
        <pt x="35" y="5" on="0"/>
        <pt x="3" y="20" on="1"/>
        <pt x="39" y="138" on="1"/>
        <pt x="74" y="138" on="1"/>
        <pt x="77" y="52" on="1"/>
        <pt x="121" y="38" on="0"/>
        <pt x="174" y="38" on="1"/>
        <pt x="246" y="38" on="0"/>
        <pt x="326" y="112" on="0"/>
        <pt x="326" y="172" on="1"/>
        <pt x="326" y="239" on="0"/>
        <pt x="261" y="267" on="1"/>
        <pt x="174" y="308" on="1"/>
        <pt x="144" y="322" on="0"/>
        <pt x="93" y="382" on="0"/>
        <pt x="93" y="430" on="1"/>
        <pt x="93" y="519" on="0"/>
        <pt x="207" y="627" on="0"/>
        <pt x="318" y="627" on="1"/>
        <pt x="393" y="627" on="0"/>
        <pt x="466" y="600" on="1"/>
        <pt x="431" y="470" on="1"/>
        <pt x="396" y="470" on="1"/>
        <pt x="392" y="567" on="1"/>
        <pt x="380" y="571" on="0"/>
        <pt x="333" y="577" on="0"/>
        <pt x="315" y="577" on="1"/>
        <pt x="249" y="577" on="0"/>
        <pt x="171" y="517" on="0"/>
        <pt x="171" y="456" on="1"/>
        <pt x="171" y="427" on="0"/>
        <pt x="204" y="389" on="0"/>
        <pt x="238" y="374" on="1"/>
        <pt x="317" y="335" on="1"/>
        <pt x="357" y="316" on="0"/>
        <pt x="405" y="248" on="0"/>
        <pt x="405" y="204" on="1"/>
        <pt x="405" y="105" on="0"/>
        <pt x="275" y="-11" on="0"/>
        <pt x="159" y="-11" on="1"/>
      </contour>
    </TTGlyph>
    <TTGlyph name="Sacute" xMin="2" yMin="-11" xMax="465" yMax="800">
      <contour>
        <pt x="217" y="670" on="1"/>
        <pt x="371" y="800" on="1"/>
        <pt x="447" y="772" on="1"/>
        <pt x="447" y="754" on="1"/>
        <pt x="233" y="651" on="1"/>
      </contour>
      <contour>
        <pt x="119" y="-11" on="0"/>
        <pt x="34" y="5" on="0"/>
        <pt x="2" y="20" on="1"/>
        <pt x="38" y="138" on="1"/>
        <pt x="73" y="138" on="1"/>
        <pt x="76" y="52" on="1"/>
        <pt x="120" y="38" on="0"/>
        <pt x="173" y="38" on="1"/>
        <pt x="245" y="38" on="0"/>
        <pt x="325" y="112" on="0"/>
        <pt x="325" y="172" on="1"/>
        <pt x="325" y="240" on="0"/>
        <pt x="260" y="267" on="1"/>
        <pt x="173" y="308" on="1"/>
        <pt x="143" y="322" on="0"/>
        <pt x="92" y="382" on="0"/>
        <pt x="92" y="430" on="1"/>
        <pt x="92" y="519" on="0"/>
        <pt x="206" y="627" on="0"/>
        <pt x="317" y="627" on="1"/>
        <pt x="392" y="627" on="0"/>
        <pt x="465" y="600" on="1"/>
        <pt x="430" y="470" on="1"/>
        <pt x="395" y="470" on="1"/>
        <pt x="391" y="567" on="1"/>
        <pt x="379" y="571" on="0"/>
        <pt x="332" y="577" on="0"/>
        <pt x="314" y="577" on="1"/>
        <pt x="248" y="577" on="0"/>
        <pt x="170" y="517" on="0"/>
        <pt x="170" y="456" on="1"/>
        <pt x="170" y="427" on="0"/>
        <pt x="203" y="389" on="0"/>
        <pt x="237" y="374" on="1"/>
        <pt x="316" y="335" on="1"/>
        <pt x="356" y="316" on="0"/>
        <pt x="404" y="248" on="0"/>
        <pt x="404" y="204" on="1"/>
        <pt x="404" y="105" on="0"/>
        <pt x="274" y="-11" on="0"/>
        <pt x="158" y="-11" on="1"/>
      </contour>
    </TTGlyph>
    <TTGlyph name="Sacute.loclPLK" xMin="3" yMin="-11" xMax="466" yMax="808">
      <component glyphName=".ttfautohint" x="3" y="0" flags="0x0"/>
      <component glyphName="S" x="0" y="0" flags="0x0"/>
      <component glyphName="acute.loclPLK.case" x="128" y="0" flags="0x0"/>
    </TTGlyph>
    <TTGlyph name="Scaron" xMin="2" yMin="-11" xMax="470" yMax="805">
      <contour>
        <pt x="320" y="722" on="1"/>
        <pt x="450" y="805" on="1"/>
        <pt x="470" y="786" on="1"/>
        <pt x="340" y="651" on="1"/>
        <pt x="280" y="651" on="1"/>
        <pt x="191" y="786" on="1"/>
        <pt x="218" y="804" on="1"/>
      </contour>
      <contour>
        <pt x="119" y="-11" on="0"/>
        <pt x="34" y="5" on="0"/>
        <pt x="2" y="20" on="1"/>
        <pt x="38" y="138" on="1"/>
        <pt x="73" y="138" on="1"/>
        <pt x="76" y="52" on="1"/>
        <pt x="120" y="38" on="0"/>
        <pt x="173" y="38" on="1"/>
        <pt x="245" y="38" on="0"/>
        <pt x="325" y="112" on="0"/>
        <pt x="325" y="172" on="1"/>
        <pt x="325" y="240" on="0"/>
        <pt x="260" y="267" on="1"/>
        <pt x="173" y="308" on="1"/>
        <pt x="143" y="322" on="0"/>
        <pt x="92" y="382" on="0"/>
        <pt x="92" y="430" on="1"/>
        <pt x="92" y="519" on="0"/>
        <pt x="206" y="627" on="0"/>
        <pt x="317" y="627" on="1"/>
        <pt x="392" y="627" on="0"/>
        <pt x="465" y="600" on="1"/>
        <pt x="430" y="470" on="1"/>
        <pt x="395" y="470" on="1"/>
        <pt x="391" y="567" on="1"/>
        <pt x="379" y="571" on="0"/>
        <pt x="332" y="577" on="0"/>
        <pt x="314" y="577" on="1"/>
        <pt x="248" y="577" on="0"/>
        <pt x="170" y="517" on="0"/>
        <pt x="170" y="456" on="1"/>
        <pt x="170" y="427" on="0"/>
        <pt x="203" y="389" on="0"/>
        <pt x="237" y="374" on="1"/>
        <pt x="316" y="335" on="1"/>
        <pt x="356" y="316" on="0"/>
        <pt x="404" y="248" on="0"/>
        <pt x="404" y="204" on="1"/>
        <pt x="404" y="105" on="0"/>
        <pt x="274" y="-11" on="0"/>
        <pt x="158" y="-11" on="1"/>
      </contour>
    </TTGlyph>
    <TTGlyph name="Scedilla" xMin="2" yMin="-219" xMax="465" yMax="627">
      <contour>
        <pt x="404" y="109" on="0"/>
        <pt x="284" y="-6" on="0"/>
        <pt x="176" y="-10" on="1"/>
        <pt x="158" y="-44" on="1"/>
        <pt x="204" y="-44" on="0"/>
        <pt x="250" y="-77" on="0"/>
        <pt x="250" y="-103" on="1"/>
        <pt x="250" y="-134" on="0"/>
        <pt x="207" y="-187" on="0"/>
        <pt x="137" y="-219" on="0"/>
        <pt x="99" y="-219" on="1"/>
        <pt x="66" y="-219" on="0"/>
        <pt x="44" y="-212" on="1"/>
        <pt x="58" y="-185" on="1"/>
        <pt x="74" y="-191" on="0"/>
        <pt x="96" y="-191" on="1"/>
        <pt x="133" y="-191" on="0"/>
        <pt x="185" y="-148" on="0"/>
        <pt x="185" y="-118" on="1"/>
        <pt x="185" y="-99" on="0"/>
        <pt x="154" y="-75" on="0"/>
        <pt x="117" y="-75" on="1"/>
        <pt x="116" y="-66" on="1"/>
        <pt x="145" y="-11" on="1"/>
        <pt x="108" y="-9" on="0"/>
        <pt x="31" y="6" on="0"/>
        <pt x="2" y="20" on="1"/>
        <pt x="38" y="138" on="1"/>
        <pt x="73" y="138" on="1"/>
        <pt x="76" y="52" on="1"/>
        <pt x="120" y="38" on="0"/>
        <pt x="173" y="38" on="1"/>
        <pt x="245" y="38" on="0"/>
        <pt x="325" y="112" on="0"/>
        <pt x="325" y="172" on="1"/>
        <pt x="325" y="240" on="0"/>
        <pt x="260" y="267" on="1"/>
        <pt x="173" y="308" on="1"/>
        <pt x="143" y="322" on="0"/>
        <pt x="92" y="382" on="0"/>
        <pt x="92" y="430" on="1"/>
        <pt x="92" y="519" on="0"/>
        <pt x="206" y="627" on="0"/>
        <pt x="317" y="627" on="1"/>
        <pt x="392" y="627" on="0"/>
        <pt x="465" y="600" on="1"/>
        <pt x="430" y="470" on="1"/>
        <pt x="395" y="470" on="1"/>
        <pt x="391" y="567" on="1"/>
        <pt x="379" y="571" on="0"/>
        <pt x="332" y="577" on="0"/>
        <pt x="314" y="577" on="1"/>
        <pt x="248" y="577" on="0"/>
        <pt x="170" y="517" on="0"/>
        <pt x="170" y="456" on="1"/>
        <pt x="170" y="427" on="0"/>
        <pt x="203" y="389" on="0"/>
        <pt x="237" y="374" on="1"/>
        <pt x="316" y="335" on="1"/>
        <pt x="356" y="316" on="0"/>
        <pt x="404" y="248" on="0"/>
        <pt x="404" y="204" on="1"/>
      </contour>
    </TTGlyph>
    <TTGlyph name="Scircumflex" xMin="3" yMin="-11" xMax="466" yMax="804">
      <component glyphName=".ttfautohint" x="3" y="0" flags="0x0"/>
      <component glyphName="S" x="0" y="0" flags="0x0"/>
      <component glyphName="uni0302" x="359" y="0" flags="0x0"/>
    </TTGlyph>
    <TTGlyph name="Scommaaccent" xMin="2" yMin="-221" xMax="465" yMax="627">
      <contour>
        <pt x="119" y="-11" on="0"/>
        <pt x="34" y="5" on="0"/>
        <pt x="2" y="20" on="1"/>
        <pt x="38" y="138" on="1"/>
        <pt x="73" y="138" on="1"/>
        <pt x="76" y="52" on="1"/>
        <pt x="120" y="38" on="0"/>
        <pt x="173" y="38" on="1"/>
        <pt x="245" y="38" on="0"/>
        <pt x="325" y="112" on="0"/>
        <pt x="325" y="172" on="1"/>
        <pt x="325" y="240" on="0"/>
        <pt x="260" y="267" on="1"/>
        <pt x="173" y="308" on="1"/>
        <pt x="143" y="322" on="0"/>
        <pt x="92" y="382" on="0"/>
        <pt x="92" y="430" on="1"/>
        <pt x="92" y="519" on="0"/>
        <pt x="206" y="627" on="0"/>
        <pt x="317" y="627" on="1"/>
        <pt x="392" y="627" on="0"/>
        <pt x="465" y="600" on="1"/>
        <pt x="430" y="470" on="1"/>
        <pt x="395" y="470" on="1"/>
        <pt x="391" y="567" on="1"/>
        <pt x="379" y="571" on="0"/>
        <pt x="332" y="577" on="0"/>
        <pt x="314" y="577" on="1"/>
        <pt x="248" y="577" on="0"/>
        <pt x="170" y="517" on="0"/>
        <pt x="170" y="456" on="1"/>
        <pt x="170" y="427" on="0"/>
        <pt x="203" y="389" on="0"/>
        <pt x="237" y="374" on="1"/>
        <pt x="316" y="335" on="1"/>
        <pt x="356" y="316" on="0"/>
        <pt x="404" y="248" on="0"/>
        <pt x="404" y="204" on="1"/>
        <pt x="404" y="105" on="0"/>
        <pt x="274" y="-11" on="0"/>
        <pt x="158" y="-11" on="1"/>
      </contour>
      <contour>
        <pt x="218" y="-48" on="1"/>
        <pt x="118" y="-221" on="1"/>
        <pt x="93" y="-214" on="1"/>
        <pt x="128" y="-47" on="1"/>
        <pt x="203" y="-31" on="1"/>
      </contour>
    </TTGlyph>
    <TTGlyph name="T" xMin="54" yMin="0" xMax="544" yMax="611">
      <contour>
        <pt x="544" y="611" on="1"/>
        <pt x="511" y="471" on="1"/>
        <pt x="474" y="471" on="1"/>
        <pt x="474" y="559" on="1"/>
        <pt x="341" y="559" on="1"/>
        <pt x="243" y="53" on="1"/>
        <pt x="339" y="33" on="1"/>
        <pt x="333" y="0" on="1"/>
        <pt x="54" y="0" on="1"/>
        <pt x="60" y="33" on="1"/>
        <pt x="165" y="53" on="1"/>
        <pt x="263" y="559" on="1"/>
        <pt x="130" y="559" on="1"/>
        <pt x="94" y="471" on="1"/>
        <pt x="60" y="471" on="1"/>
        <pt x="79" y="611" on="1"/>
      </contour>
    </TTGlyph>
    <TTGlyph name="Tbar" xMin="48" yMin="0" xMax="544" yMax="611">
      <contour>
        <pt x="474" y="471" on="1"/>
        <pt x="474" y="559" on="1"/>
        <pt x="341" y="559" on="1"/>
        <pt x="297" y="332" on="1"/>
        <pt x="481" y="332" on="1"/>
        <pt x="473" y="286" on="1"/>
        <pt x="288" y="286" on="1"/>
        <pt x="243" y="53" on="1"/>
        <pt x="339" y="33" on="1"/>
        <pt x="333" y="0" on="1"/>
        <pt x="54" y="0" on="1"/>
        <pt x="60" y="33" on="1"/>
        <pt x="165" y="53" on="1"/>
        <pt x="210" y="286" on="1"/>
        <pt x="48" y="286" on="1"/>
        <pt x="56" y="332" on="1"/>
        <pt x="219" y="332" on="1"/>
        <pt x="263" y="559" on="1"/>
        <pt x="130" y="559" on="1"/>
        <pt x="94" y="471" on="1"/>
        <pt x="60" y="471" on="1"/>
        <pt x="79" y="611" on="1"/>
        <pt x="544" y="611" on="1"/>
        <pt x="511" y="471" on="1"/>
      </contour>
    </TTGlyph>
    <TTGlyph name="Tcaron" xMin="68" yMin="0" xMax="558" yMax="805">
      <contour>
        <pt x="342" y="722" on="1"/>
        <pt x="472" y="805" on="1"/>
        <pt x="492" y="786" on="1"/>
        <pt x="362" y="651" on="1"/>
        <pt x="302" y="651" on="1"/>
        <pt x="213" y="786" on="1"/>
        <pt x="240" y="804" on="1"/>
      </contour>
      <contour>
        <pt x="558" y="611" on="1"/>
        <pt x="525" y="471" on="1"/>
        <pt x="488" y="471" on="1"/>
        <pt x="488" y="559" on="1"/>
        <pt x="355" y="559" on="1"/>
        <pt x="257" y="53" on="1"/>
        <pt x="353" y="33" on="1"/>
        <pt x="347" y="0" on="1"/>
        <pt x="68" y="0" on="1"/>
        <pt x="74" y="33" on="1"/>
        <pt x="179" y="53" on="1"/>
        <pt x="277" y="559" on="1"/>
        <pt x="144" y="559" on="1"/>
        <pt x="108" y="471" on="1"/>
        <pt x="74" y="471" on="1"/>
        <pt x="93" y="611" on="1"/>
      </contour>
    </TTGlyph>
    <TTGlyph name="Thorn" xMin="-11" yMin="0" xMax="457" yMax="611">
      <contour>
        <pt x="354" y="611" on="1"/>
        <pt x="348" y="578" on="1"/>
        <pt x="259" y="558" on="1"/>
        <pt x="242" y="473" on="1"/>
        <pt x="288" y="473" on="1"/>
        <pt x="457" y="473" on="0"/>
        <pt x="457" y="352" on="1"/>
        <pt x="457" y="284" on="0"/>
        <pt x="392" y="189" on="0"/>
        <pt x="291" y="141" on="0"/>
        <pt x="238" y="141" on="1"/>
        <pt x="200" y="141" on="0"/>
        <pt x="179" y="145" on="1"/>
        <pt x="161" y="53" on="1"/>
        <pt x="242" y="33" on="1"/>
        <pt x="236" y="0" on="1"/>
        <pt x="-11" y="0" on="1"/>
        <pt x="-5" y="33" on="1"/>
        <pt x="83" y="53" on="1"/>
        <pt x="181" y="558" on="1"/>
        <pt x="101" y="578" on="1"/>
        <pt x="107" y="611" on="1"/>
      </contour>
      <contour>
        <pt x="256" y="433" on="0"/>
        <pt x="234" y="428" on="1"/>
        <pt x="186" y="180" on="1"/>
        <pt x="196" y="178" on="0"/>
        <pt x="227" y="178" on="1"/>
        <pt x="288" y="178" on="0"/>
        <pt x="371" y="255" on="0"/>
        <pt x="371" y="341" on="1"/>
        <pt x="371" y="392" on="0"/>
        <pt x="322" y="433" on="0"/>
        <pt x="279" y="433" on="1"/>
      </contour>
    </TTGlyph>
    <TTGlyph name="U" xMin="76" yMin="-10" xMax="655" yMax="611">
      <contour>
        <pt x="460" y="-10" on="0"/>
        <pt x="256" y="-10" on="1"/>
        <pt x="160" y="-10" on="0"/>
        <pt x="80" y="75" on="0"/>
        <pt x="80" y="152" on="1"/>
        <pt x="80" y="201" on="0"/>
        <pt x="93" y="264" on="1"/>
        <pt x="150" y="559" on="1"/>
        <pt x="76" y="578" on="1"/>
        <pt x="81" y="611" on="1"/>
        <pt x="317" y="611" on="1"/>
        <pt x="312" y="578" on="1"/>
        <pt x="229" y="559" on="1"/>
        <pt x="172" y="264" on="1"/>
        <pt x="159" y="195" on="0"/>
        <pt x="159" y="162" on="1"/>
        <pt x="159" y="104" on="0"/>
        <pt x="209" y="41" on="0"/>
        <pt x="269" y="41" on="1"/>
        <pt x="350" y="41" on="0"/>
        <pt x="433" y="142" on="0"/>
        <pt x="451" y="237" on="1"/>
        <pt x="513" y="559" on="1"/>
        <pt x="436" y="578" on="1"/>
        <pt x="442" y="611" on="1"/>
        <pt x="655" y="611" on="1"/>
        <pt x="649" y="578" on="1"/>
        <pt x="570" y="559" on="1"/>
        <pt x="507" y="236" on="1"/>
      </contour>
    </TTGlyph>
    <TTGlyph name="Uacute" xMin="99" yMin="-10" xMax="678" yMax="800">
      <contour>
        <pt x="314" y="670" on="1"/>
        <pt x="468" y="800" on="1"/>
        <pt x="544" y="772" on="1"/>
        <pt x="544" y="754" on="1"/>
        <pt x="330" y="651" on="1"/>
      </contour>
      <contour>
        <pt x="483" y="-10" on="0"/>
        <pt x="279" y="-10" on="1"/>
        <pt x="183" y="-10" on="0"/>
        <pt x="103" y="75" on="0"/>
        <pt x="103" y="152" on="1"/>
        <pt x="103" y="201" on="0"/>
        <pt x="116" y="264" on="1"/>
        <pt x="173" y="559" on="1"/>
        <pt x="99" y="578" on="1"/>
        <pt x="104" y="611" on="1"/>
        <pt x="340" y="611" on="1"/>
        <pt x="335" y="578" on="1"/>
        <pt x="252" y="559" on="1"/>
        <pt x="195" y="264" on="1"/>
        <pt x="182" y="195" on="0"/>
        <pt x="182" y="162" on="1"/>
        <pt x="182" y="104" on="0"/>
        <pt x="232" y="41" on="0"/>
        <pt x="292" y="41" on="1"/>
        <pt x="373" y="41" on="0"/>
        <pt x="456" y="142" on="0"/>
        <pt x="474" y="237" on="1"/>
        <pt x="536" y="559" on="1"/>
        <pt x="459" y="578" on="1"/>
        <pt x="465" y="611" on="1"/>
        <pt x="678" y="611" on="1"/>
        <pt x="672" y="578" on="1"/>
        <pt x="593" y="559" on="1"/>
        <pt x="530" y="236" on="1"/>
      </contour>
    </TTGlyph>
    <TTGlyph name="Ubreve" xMin="76" yMin="-10" xMax="655" yMax="785">
      <component glyphName=".ttfautohint" x="76" y="0" flags="0x0"/>
      <component glyphName="U" x="0" y="0" flags="0x0"/>
      <component glyphName="uni0306" x="433" y="0" flags="0x0"/>
    </TTGlyph>
    <TTGlyph name="Ucircumflex" xMin="99" yMin="-10" xMax="678" yMax="804">
      <contour>
        <pt x="420" y="735" on="1"/>
        <pt x="282" y="650" on="1"/>
        <pt x="262" y="669" on="1"/>
        <pt x="401" y="804" on="1"/>
        <pt x="461" y="804" on="1"/>
        <pt x="540" y="669" on="1"/>
        <pt x="514" y="650" on="1"/>
      </contour>
      <contour>
        <pt x="483" y="-10" on="0"/>
        <pt x="279" y="-10" on="1"/>
        <pt x="183" y="-10" on="0"/>
        <pt x="103" y="75" on="0"/>
        <pt x="103" y="152" on="1"/>
        <pt x="103" y="201" on="0"/>
        <pt x="116" y="264" on="1"/>
        <pt x="173" y="559" on="1"/>
        <pt x="99" y="578" on="1"/>
        <pt x="104" y="611" on="1"/>
        <pt x="340" y="611" on="1"/>
        <pt x="335" y="578" on="1"/>
        <pt x="252" y="559" on="1"/>
        <pt x="195" y="264" on="1"/>
        <pt x="182" y="195" on="0"/>
        <pt x="182" y="162" on="1"/>
        <pt x="182" y="104" on="0"/>
        <pt x="232" y="41" on="0"/>
        <pt x="292" y="41" on="1"/>
        <pt x="373" y="41" on="0"/>
        <pt x="456" y="142" on="0"/>
        <pt x="474" y="237" on="1"/>
        <pt x="536" y="559" on="1"/>
        <pt x="459" y="578" on="1"/>
        <pt x="465" y="611" on="1"/>
        <pt x="678" y="611" on="1"/>
        <pt x="672" y="578" on="1"/>
        <pt x="593" y="559" on="1"/>
        <pt x="530" y="236" on="1"/>
      </contour>
    </TTGlyph>
    <TTGlyph name="Udieresis" xMin="99" yMin="-10" xMax="678" yMax="784">
      <contour>
        <pt x="380" y="704" on="0"/>
        <pt x="346" y="671" on="0"/>
        <pt x="323" y="671" on="1"/>
        <pt x="300" y="671" on="0"/>
        <pt x="266" y="704" on="0"/>
        <pt x="266" y="726" on="1"/>
        <pt x="266" y="750" on="0"/>
        <pt x="300" y="784" on="0"/>
        <pt x="323" y="784" on="1"/>
        <pt x="346" y="784" on="0"/>
        <pt x="380" y="750" on="0"/>
        <pt x="380" y="726" on="1"/>
      </contour>
      <contour>
        <pt x="575" y="704" on="0"/>
        <pt x="540" y="671" on="0"/>
        <pt x="517" y="671" on="1"/>
        <pt x="494" y="671" on="0"/>
        <pt x="460" y="704" on="0"/>
        <pt x="460" y="726" on="1"/>
        <pt x="460" y="750" on="0"/>
        <pt x="494" y="784" on="0"/>
        <pt x="517" y="784" on="1"/>
        <pt x="540" y="784" on="0"/>
        <pt x="575" y="750" on="0"/>
        <pt x="575" y="726" on="1"/>
      </contour>
      <contour>
        <pt x="483" y="-10" on="0"/>
        <pt x="279" y="-10" on="1"/>
        <pt x="183" y="-10" on="0"/>
        <pt x="103" y="75" on="0"/>
        <pt x="103" y="152" on="1"/>
        <pt x="103" y="201" on="0"/>
        <pt x="116" y="264" on="1"/>
        <pt x="173" y="559" on="1"/>
        <pt x="99" y="578" on="1"/>
        <pt x="104" y="611" on="1"/>
        <pt x="340" y="611" on="1"/>
        <pt x="335" y="578" on="1"/>
        <pt x="252" y="559" on="1"/>
        <pt x="195" y="264" on="1"/>
        <pt x="182" y="195" on="0"/>
        <pt x="182" y="162" on="1"/>
        <pt x="182" y="104" on="0"/>
        <pt x="232" y="41" on="0"/>
        <pt x="292" y="41" on="1"/>
        <pt x="373" y="41" on="0"/>
        <pt x="456" y="142" on="0"/>
        <pt x="474" y="237" on="1"/>
        <pt x="536" y="559" on="1"/>
        <pt x="459" y="578" on="1"/>
        <pt x="465" y="611" on="1"/>
        <pt x="678" y="611" on="1"/>
        <pt x="672" y="578" on="1"/>
        <pt x="593" y="559" on="1"/>
        <pt x="530" y="236" on="1"/>
      </contour>
    </TTGlyph>
    <TTGlyph name="Ugrave" xMin="99" yMin="-10" xMax="678" yMax="800">
      <contour>
        <pt x="293" y="772" on="1"/>
        <pt x="369" y="800" on="1"/>
        <pt x="523" y="670" on="1"/>
        <pt x="507" y="651" on="1"/>
        <pt x="293" y="754" on="1"/>
      </contour>
      <contour>
        <pt x="483" y="-10" on="0"/>
        <pt x="279" y="-10" on="1"/>
        <pt x="183" y="-10" on="0"/>
        <pt x="103" y="75" on="0"/>
        <pt x="103" y="152" on="1"/>
        <pt x="103" y="201" on="0"/>
        <pt x="116" y="264" on="1"/>
        <pt x="173" y="559" on="1"/>
        <pt x="99" y="578" on="1"/>
        <pt x="104" y="611" on="1"/>
        <pt x="340" y="611" on="1"/>
        <pt x="335" y="578" on="1"/>
        <pt x="252" y="559" on="1"/>
        <pt x="195" y="264" on="1"/>
        <pt x="182" y="195" on="0"/>
        <pt x="182" y="162" on="1"/>
        <pt x="182" y="104" on="0"/>
        <pt x="232" y="41" on="0"/>
        <pt x="292" y="41" on="1"/>
        <pt x="373" y="41" on="0"/>
        <pt x="456" y="142" on="0"/>
        <pt x="474" y="237" on="1"/>
        <pt x="536" y="559" on="1"/>
        <pt x="459" y="578" on="1"/>
        <pt x="465" y="611" on="1"/>
        <pt x="678" y="611" on="1"/>
        <pt x="672" y="578" on="1"/>
        <pt x="593" y="559" on="1"/>
        <pt x="530" y="236" on="1"/>
      </contour>
    </TTGlyph>
    <TTGlyph name="Uhorn" xMin="76" yMin="-10" xMax="750" yMax="732">
      <contour>
        <pt x="750" y="637" on="0"/>
        <pt x="684" y="584" on="0"/>
        <pt x="632" y="574" on="1"/>
        <pt x="570" y="559" on="1"/>
        <pt x="507" y="236" on="1"/>
        <pt x="460" y="-10" on="0"/>
        <pt x="256" y="-10" on="1"/>
        <pt x="160" y="-10" on="0"/>
        <pt x="80" y="75" on="0"/>
        <pt x="80" y="152" on="1"/>
        <pt x="80" y="201" on="0"/>
        <pt x="93" y="264" on="1"/>
        <pt x="150" y="559" on="1"/>
        <pt x="76" y="578" on="1"/>
        <pt x="81" y="611" on="1"/>
        <pt x="317" y="611" on="1"/>
        <pt x="312" y="578" on="1"/>
        <pt x="229" y="559" on="1"/>
        <pt x="172" y="264" on="1"/>
        <pt x="159" y="195" on="0"/>
        <pt x="159" y="162" on="1"/>
        <pt x="159" y="104" on="0"/>
        <pt x="209" y="41" on="0"/>
        <pt x="269" y="41" on="1"/>
        <pt x="350" y="41" on="0"/>
        <pt x="433" y="142" on="0"/>
        <pt x="451" y="237" on="1"/>
        <pt x="513" y="559" on="1"/>
        <pt x="436" y="578" on="1"/>
        <pt x="442" y="611" on="1"/>
        <pt x="602" y="611" on="1"/>
        <pt x="635" y="611" on="0"/>
        <pt x="668" y="633" on="0"/>
        <pt x="668" y="664" on="1"/>
        <pt x="668" y="683" on="0"/>
        <pt x="663" y="705" on="1"/>
        <pt x="669" y="718" on="1"/>
        <pt x="737" y="732" on="1"/>
        <pt x="743" y="719" on="0"/>
        <pt x="750" y="687" on="0"/>
        <pt x="750" y="675" on="1"/>
      </contour>
    </TTGlyph>
    <TTGlyph name="Uhungarumlaut" xMin="99" yMin="-10" xMax="678" yMax="808">
      <contour>
        <pt x="290" y="658" on="1"/>
        <pt x="376" y="808" on="1"/>
        <pt x="451" y="808" on="1"/>
        <pt x="451" y="791" on="1"/>
        <pt x="309" y="647" on="1"/>
      </contour>
      <contour>
        <pt x="451" y="658" on="1"/>
        <pt x="537" y="808" on="1"/>
        <pt x="612" y="808" on="1"/>
        <pt x="612" y="791" on="1"/>
        <pt x="470" y="647" on="1"/>
      </contour>
      <contour>
        <pt x="483" y="-10" on="0"/>
        <pt x="279" y="-10" on="1"/>
        <pt x="183" y="-10" on="0"/>
        <pt x="103" y="75" on="0"/>
        <pt x="103" y="152" on="1"/>
        <pt x="103" y="201" on="0"/>
        <pt x="116" y="264" on="1"/>
        <pt x="173" y="559" on="1"/>
        <pt x="99" y="578" on="1"/>
        <pt x="104" y="611" on="1"/>
        <pt x="340" y="611" on="1"/>
        <pt x="335" y="578" on="1"/>
        <pt x="252" y="559" on="1"/>
        <pt x="195" y="264" on="1"/>
        <pt x="182" y="195" on="0"/>
        <pt x="182" y="162" on="1"/>
        <pt x="182" y="104" on="0"/>
        <pt x="232" y="41" on="0"/>
        <pt x="292" y="41" on="1"/>
        <pt x="373" y="41" on="0"/>
        <pt x="456" y="142" on="0"/>
        <pt x="474" y="237" on="1"/>
        <pt x="536" y="559" on="1"/>
        <pt x="459" y="578" on="1"/>
        <pt x="465" y="611" on="1"/>
        <pt x="678" y="611" on="1"/>
        <pt x="672" y="578" on="1"/>
        <pt x="593" y="559" on="1"/>
        <pt x="530" y="236" on="1"/>
      </contour>
    </TTGlyph>
    <TTGlyph name="Umacron" xMin="99" yMin="-10" xMax="678" yMax="743">
      <contour>
        <pt x="539" y="743" on="1"/>
        <pt x="531" y="689" on="1"/>
        <pt x="294" y="689" on="1"/>
        <pt x="302" y="743" on="1"/>
      </contour>
      <contour>
        <pt x="483" y="-10" on="0"/>
        <pt x="279" y="-10" on="1"/>
        <pt x="183" y="-10" on="0"/>
        <pt x="103" y="75" on="0"/>
        <pt x="103" y="152" on="1"/>
        <pt x="103" y="201" on="0"/>
        <pt x="116" y="264" on="1"/>
        <pt x="173" y="559" on="1"/>
        <pt x="99" y="578" on="1"/>
        <pt x="104" y="611" on="1"/>
        <pt x="340" y="611" on="1"/>
        <pt x="335" y="578" on="1"/>
        <pt x="252" y="559" on="1"/>
        <pt x="195" y="264" on="1"/>
        <pt x="182" y="195" on="0"/>
        <pt x="182" y="162" on="1"/>
        <pt x="182" y="104" on="0"/>
        <pt x="232" y="41" on="0"/>
        <pt x="292" y="41" on="1"/>
        <pt x="373" y="41" on="0"/>
        <pt x="456" y="142" on="0"/>
        <pt x="474" y="237" on="1"/>
        <pt x="536" y="559" on="1"/>
        <pt x="459" y="578" on="1"/>
        <pt x="465" y="611" on="1"/>
        <pt x="678" y="611" on="1"/>
        <pt x="672" y="578" on="1"/>
        <pt x="593" y="559" on="1"/>
        <pt x="530" y="236" on="1"/>
      </contour>
    </TTGlyph>
    <TTGlyph name="Uogonek" xMin="99" yMin="-236" xMax="678" yMax="611">
      <contour>
        <pt x="491" y="39" on="0"/>
        <pt x="353" y="0" on="1"/>
        <pt x="308" y="-21" on="0"/>
        <pt x="255" y="-107" on="0"/>
        <pt x="255" y="-145" on="1"/>
        <pt x="255" y="-168" on="0"/>
        <pt x="280" y="-192" on="0"/>
        <pt x="303" y="-192" on="1"/>
        <pt x="331" y="-192" on="0"/>
        <pt x="356" y="-170" on="1"/>
        <pt x="370" y="-186" on="1"/>
        <pt x="370" y="-188" on="0"/>
        <pt x="342" y="-214" on="0"/>
        <pt x="297" y="-236" on="0"/>
        <pt x="269" y="-236" on="1"/>
        <pt x="227" y="-236" on="0"/>
        <pt x="186" y="-196" on="0"/>
        <pt x="186" y="-165" on="1"/>
        <pt x="186" y="-130" on="0"/>
        <pt x="242" y="-45" on="0"/>
        <pt x="298" y="-9" on="1"/>
        <pt x="292" y="-10" on="0"/>
        <pt x="279" y="-10" on="1"/>
        <pt x="183" y="-10" on="0"/>
        <pt x="103" y="75" on="0"/>
        <pt x="103" y="152" on="1"/>
        <pt x="103" y="201" on="0"/>
        <pt x="116" y="264" on="1"/>
        <pt x="173" y="559" on="1"/>
        <pt x="99" y="578" on="1"/>
        <pt x="104" y="611" on="1"/>
        <pt x="340" y="611" on="1"/>
        <pt x="335" y="578" on="1"/>
        <pt x="252" y="559" on="1"/>
        <pt x="195" y="264" on="1"/>
        <pt x="182" y="195" on="0"/>
        <pt x="182" y="162" on="1"/>
        <pt x="182" y="104" on="0"/>
        <pt x="232" y="41" on="0"/>
        <pt x="292" y="41" on="1"/>
        <pt x="373" y="41" on="0"/>
        <pt x="456" y="142" on="0"/>
        <pt x="474" y="237" on="1"/>
        <pt x="536" y="559" on="1"/>
        <pt x="459" y="578" on="1"/>
        <pt x="465" y="611" on="1"/>
        <pt x="678" y="611" on="1"/>
        <pt x="672" y="578" on="1"/>
        <pt x="593" y="559" on="1"/>
        <pt x="530" y="236" on="1"/>
      </contour>
    </TTGlyph>
    <TTGlyph name="Uring" xMin="99" yMin="-10" xMax="678" yMax="820">
      <contour>
        <pt x="367" y="639" on="0"/>
        <pt x="324" y="678" on="0"/>
        <pt x="324" y="709" on="1"/>
        <pt x="324" y="756" on="0"/>
        <pt x="387" y="820" on="0"/>
        <pt x="441" y="820" on="1"/>
        <pt x="482" y="820" on="0"/>
        <pt x="525" y="781" on="0"/>
        <pt x="525" y="749" on="1"/>
        <pt x="525" y="703" on="0"/>
        <pt x="461" y="639" on="0"/>
        <pt x="409" y="639" on="1"/>
      </contour>
      <contour>
        <pt x="445" y="674" on="0"/>
        <pt x="471" y="716" on="0"/>
        <pt x="471" y="746" on="1"/>
        <pt x="471" y="785" on="0"/>
        <pt x="435" y="785" on="1"/>
        <pt x="405" y="785" on="0"/>
        <pt x="378" y="742" on="0"/>
        <pt x="378" y="711" on="1"/>
        <pt x="378" y="674" on="0"/>
        <pt x="415" y="674" on="1"/>
      </contour>
      <contour>
        <pt x="483" y="-10" on="0"/>
        <pt x="279" y="-10" on="1"/>
        <pt x="183" y="-10" on="0"/>
        <pt x="103" y="75" on="0"/>
        <pt x="103" y="152" on="1"/>
        <pt x="103" y="201" on="0"/>
        <pt x="116" y="264" on="1"/>
        <pt x="173" y="559" on="1"/>
        <pt x="99" y="578" on="1"/>
        <pt x="104" y="611" on="1"/>
        <pt x="340" y="611" on="1"/>
        <pt x="335" y="578" on="1"/>
        <pt x="252" y="559" on="1"/>
        <pt x="195" y="264" on="1"/>
        <pt x="182" y="195" on="0"/>
        <pt x="182" y="162" on="1"/>
        <pt x="182" y="104" on="0"/>
        <pt x="232" y="41" on="0"/>
        <pt x="292" y="41" on="1"/>
        <pt x="373" y="41" on="0"/>
        <pt x="456" y="142" on="0"/>
        <pt x="474" y="237" on="1"/>
        <pt x="536" y="559" on="1"/>
        <pt x="459" y="578" on="1"/>
        <pt x="465" y="611" on="1"/>
        <pt x="678" y="611" on="1"/>
        <pt x="672" y="578" on="1"/>
        <pt x="593" y="559" on="1"/>
        <pt x="530" y="236" on="1"/>
      </contour>
    </TTGlyph>
    <TTGlyph name="Utilde" xMin="105" yMin="-10" xMax="684" yMax="782">
      <contour>
        <pt x="554" y="719" on="0"/>
        <pt x="520" y="670" on="0"/>
        <pt x="498" y="670" on="1"/>
        <pt x="481" y="670" on="0"/>
        <pt x="421" y="690" on="1"/>
        <pt x="363" y="710" on="0"/>
        <pt x="346" y="710" on="1"/>
        <pt x="336" y="710" on="0"/>
        <pt x="316" y="694" on="0"/>
        <pt x="303" y="677" on="0"/>
        <pt x="301" y="674" on="1"/>
        <pt x="271" y="686" on="1"/>
        <pt x="290" y="732" on="0"/>
        <pt x="324" y="782" on="0"/>
        <pt x="347" y="782" on="1"/>
        <pt x="364" y="782" on="0"/>
        <pt x="422" y="762" on="1"/>
        <pt x="444" y="754" on="0"/>
        <pt x="487" y="742" on="0"/>
        <pt x="499" y="742" on="1"/>
        <pt x="509" y="742" on="0"/>
        <pt x="528" y="758" on="0"/>
        <pt x="541" y="774" on="0"/>
        <pt x="542" y="777" on="1"/>
        <pt x="573" y="765" on="1"/>
      </contour>
      <contour>
        <pt x="489" y="-10" on="0"/>
        <pt x="285" y="-10" on="1"/>
        <pt x="189" y="-10" on="0"/>
        <pt x="109" y="75" on="0"/>
        <pt x="109" y="152" on="1"/>
        <pt x="109" y="201" on="0"/>
        <pt x="122" y="264" on="1"/>
        <pt x="179" y="559" on="1"/>
        <pt x="105" y="578" on="1"/>
        <pt x="110" y="611" on="1"/>
        <pt x="346" y="611" on="1"/>
        <pt x="341" y="578" on="1"/>
        <pt x="258" y="559" on="1"/>
        <pt x="201" y="264" on="1"/>
        <pt x="188" y="195" on="0"/>
        <pt x="188" y="162" on="1"/>
        <pt x="188" y="104" on="0"/>
        <pt x="238" y="41" on="0"/>
        <pt x="298" y="41" on="1"/>
        <pt x="379" y="41" on="0"/>
        <pt x="462" y="142" on="0"/>
        <pt x="480" y="237" on="1"/>
        <pt x="542" y="559" on="1"/>
        <pt x="465" y="578" on="1"/>
        <pt x="471" y="611" on="1"/>
        <pt x="684" y="611" on="1"/>
        <pt x="678" y="578" on="1"/>
        <pt x="599" y="559" on="1"/>
        <pt x="536" y="236" on="1"/>
      </contour>
    </TTGlyph>
    <TTGlyph name="V" xMin="58" yMin="-10" xMax="622" yMax="611">
      <contour>
        <pt x="430" y="611" on="1"/>
        <pt x="622" y="611" on="1"/>
        <pt x="616" y="578" on="1"/>
        <pt x="544" y="558" on="1"/>
        <pt x="260" y="2" on="1"/>
        <pt x="200" y="-10" on="1"/>
        <pt x="121" y="558" on="1"/>
        <pt x="58" y="578" on="1"/>
        <pt x="64" y="611" on="1"/>
        <pt x="266" y="611" on="1"/>
        <pt x="260" y="578" on="1"/>
        <pt x="201" y="558" on="1"/>
        <pt x="261" y="101" on="1"/>
        <pt x="488" y="558" on="1"/>
        <pt x="424" y="578" on="1"/>
      </contour>
    </TTGlyph>
    <TTGlyph name="W" xMin="42" yMin="-9" xMax="843" yMax="611">
      <contour>
        <pt x="649" y="611" on="1"/>
        <pt x="843" y="611" on="1"/>
        <pt x="837" y="578" on="1"/>
        <pt x="765" y="558" on="1"/>
        <pt x="515" y="2" on="1"/>
        <pt x="465" y="-9" on="1"/>
        <pt x="416" y="418" on="1"/>
        <pt x="227" y="2" on="1"/>
        <pt x="175" y="-9" on="1"/>
        <pt x="106" y="558" on="1"/>
        <pt x="42" y="578" on="1"/>
        <pt x="48" y="611" on="1"/>
        <pt x="251" y="611" on="1"/>
        <pt x="245" y="578" on="1"/>
        <pt x="187" y="558" on="1"/>
        <pt x="232" y="132" on="1"/>
        <pt x="422" y="559" on="1"/>
        <pt x="477" y="570" on="1"/>
        <pt x="520" y="129" on="1"/>
        <pt x="706" y="558" on="1"/>
        <pt x="643" y="578" on="1"/>
      </contour>
    </TTGlyph>
    <TTGlyph name="Wacute" xMin="42" yMin="-9" xMax="843" yMax="800">
      <component glyphName=".ttfautohint" x="42" y="0" flags="0x0"/>
      <component glyphName="W" x="0" y="0" flags="0x0"/>
      <component glyphName="acutecomb" x="566" y="0" flags="0x0"/>
    </TTGlyph>
    <TTGlyph name="Wcircumflex" xMin="42" yMin="-9" xMax="843" yMax="804">
      <component glyphName=".ttfautohint" x="42" y="0" flags="0x0"/>
      <component glyphName="W" x="0" y="0" flags="0x0"/>
      <component glyphName="uni0302" x="512" y="0" flags="0x0"/>
    </TTGlyph>
    <TTGlyph name="Wdieresis" xMin="42" yMin="-9" xMax="843" yMax="784">
      <component glyphName=".ttfautohint" x="42" y="0" flags="0x0"/>
      <component glyphName="W" x="0" y="0" flags="0x0"/>
      <component glyphName="uni0308" x="518" y="0" flags="0x0"/>
    </TTGlyph>
    <TTGlyph name="Wgrave" xMin="42" yMin="-9" xMax="843" yMax="800">
      <component glyphName=".ttfautohint" x="42" y="0" flags="0x0"/>
      <component glyphName="W" x="0" y="0" flags="0x0"/>
      <component glyphName="gravecomb" x="459" y="0" flags="0x0"/>
    </TTGlyph>
    <TTGlyph name="X" xMin="-33" yMin="0" xMax="609" yMax="611">
      <contour>
        <pt x="162" y="0" on="1"/>
        <pt x="-33" y="0" on="1"/>
        <pt x="-27" y="33" on="1"/>
        <pt x="42" y="53" on="1"/>
        <pt x="246" y="307" on="1"/>
        <pt x="144" y="558" on="1"/>
        <pt x="85" y="578" on="1"/>
        <pt x="91" y="611" on="1"/>
        <pt x="295" y="611" on="1"/>
        <pt x="289" y="578" on="1"/>
        <pt x="232" y="558" on="1"/>
        <pt x="310" y="363" on="1"/>
        <pt x="468" y="558" on="1"/>
        <pt x="409" y="578" on="1"/>
        <pt x="415" y="611" on="1"/>
        <pt x="609" y="611" on="1"/>
        <pt x="603" y="578" on="1"/>
        <pt x="534" y="558" on="1"/>
        <pt x="331" y="311" on="1"/>
        <pt x="441" y="52" on="1"/>
        <pt x="501" y="33" on="1"/>
        <pt x="495" y="0" on="1"/>
        <pt x="286" y="0" on="1"/>
        <pt x="292" y="33" on="1"/>
        <pt x="351" y="52" on="1"/>
        <pt x="267" y="254" on="1"/>
        <pt x="108" y="53" on="1"/>
        <pt x="168" y="33" on="1"/>
      </contour>
    </TTGlyph>
    <TTGlyph name="Y" xMin="67" yMin="0" xMax="597" yMax="611">
      <contour>
        <pt x="403" y="611" on="1"/>
        <pt x="597" y="611" on="1"/>
        <pt x="591" y="578" on="1"/>
        <pt x="519" y="558" on="1"/>
        <pt x="296" y="224" on="1"/>
        <pt x="263" y="53" on="1"/>
        <pt x="360" y="33" on="1"/>
        <pt x="354" y="0" on="1"/>
        <pt x="76" y="0" on="1"/>
        <pt x="82" y="33" on="1"/>
        <pt x="186" y="53" on="1"/>
        <pt x="219" y="224" on="1"/>
        <pt x="127" y="558" on="1"/>
        <pt x="67" y="578" on="1"/>
        <pt x="73" y="611" on="1"/>
        <pt x="267" y="611" on="1"/>
        <pt x="261" y="578" on="1"/>
        <pt x="202" y="558" on="1"/>
        <pt x="277" y="280" on="1"/>
        <pt x="460" y="558" on="1"/>
        <pt x="397" y="578" on="1"/>
      </contour>
    </TTGlyph>
    <TTGlyph name="Y.loclGUA" xMin="46" yMin="-167" xMax="673" yMax="611">
      <contour>
        <pt x="143" y="-100" on="0"/>
        <pt x="206" y="-118" on="0"/>
        <pt x="235" y="-118" on="1"/>
        <pt x="309" y="-118" on="0"/>
        <pt x="397" y="-35" on="0"/>
        <pt x="415" y="58" on="1"/>
        <pt x="427" y="115" on="1"/>
        <pt x="396" y="87" on="0"/>
        <pt x="308" y="54" on="0"/>
        <pt x="258" y="54" on="1"/>
        <pt x="168" y="54" on="0"/>
        <pt x="92" y="138" on="0"/>
        <pt x="92" y="214" on="1"/>
        <pt x="92" y="259" on="0"/>
        <pt x="106" y="331" on="1"/>
        <pt x="150" y="559" on="1"/>
        <pt x="76" y="578" on="1"/>
        <pt x="81" y="611" on="1"/>
        <pt x="316" y="611" on="1"/>
        <pt x="311" y="578" on="1"/>
        <pt x="228" y="559" on="1"/>
        <pt x="183" y="328" on="1"/>
        <pt x="170" y="265" on="0"/>
        <pt x="170" y="220" on="1"/>
        <pt x="170" y="163" on="0"/>
        <pt x="217" y="100" on="0"/>
        <pt x="272" y="100" on="1"/>
        <pt x="335" y="100" on="0"/>
        <pt x="418" y="154" on="0"/>
        <pt x="442" y="194" on="1"/>
        <pt x="513" y="559" on="1"/>
        <pt x="438" y="578" on="1"/>
        <pt x="444" y="611" on="1"/>
        <pt x="673" y="611" on="1"/>
        <pt x="667" y="578" on="1"/>
        <pt x="585" y="559" on="1"/>
        <pt x="488" y="57" on="1"/>
        <pt x="465" y="-60" on="0"/>
        <pt x="335" y="-167" on="0"/>
        <pt x="225" y="-167" on="1"/>
        <pt x="171" y="-167" on="0"/>
        <pt x="87" y="-143" on="0"/>
        <pt x="46" y="-117" on="1"/>
        <pt x="82" y="-1" on="1"/>
        <pt x="117" y="-1" on="1"/>
        <pt x="121" y="-84" on="1"/>
      </contour>
    </TTGlyph>
    <TTGlyph name="Yacute" xMin="77" yMin="0" xMax="607" yMax="800">
      <contour>
        <pt x="266" y="670" on="1"/>
        <pt x="420" y="800" on="1"/>
        <pt x="496" y="772" on="1"/>
        <pt x="496" y="754" on="1"/>
        <pt x="282" y="651" on="1"/>
      </contour>
      <contour>
        <pt x="413" y="611" on="1"/>
        <pt x="607" y="611" on="1"/>
        <pt x="601" y="578" on="1"/>
        <pt x="529" y="558" on="1"/>
        <pt x="306" y="224" on="1"/>
        <pt x="273" y="53" on="1"/>
        <pt x="370" y="33" on="1"/>
        <pt x="364" y="0" on="1"/>
        <pt x="86" y="0" on="1"/>
        <pt x="92" y="33" on="1"/>
        <pt x="196" y="53" on="1"/>
        <pt x="229" y="224" on="1"/>
        <pt x="137" y="558" on="1"/>
        <pt x="77" y="578" on="1"/>
        <pt x="83" y="611" on="1"/>
        <pt x="277" y="611" on="1"/>
        <pt x="271" y="578" on="1"/>
        <pt x="212" y="558" on="1"/>
        <pt x="287" y="280" on="1"/>
        <pt x="470" y="558" on="1"/>
        <pt x="407" y="578" on="1"/>
      </contour>
    </TTGlyph>
    <TTGlyph name="Yacute.loclGUA" xMin="46" yMin="-167" xMax="673" yMax="800">
      <contour>
        <pt x="320" y="670" on="1"/>
        <pt x="474" y="800" on="1"/>
        <pt x="550" y="772" on="1"/>
        <pt x="550" y="754" on="1"/>
        <pt x="336" y="651" on="1"/>
      </contour>
      <contour>
        <pt x="143" y="-100" on="0"/>
        <pt x="206" y="-118" on="0"/>
        <pt x="235" y="-118" on="1"/>
        <pt x="309" y="-118" on="0"/>
        <pt x="397" y="-35" on="0"/>
        <pt x="415" y="58" on="1"/>
        <pt x="427" y="115" on="1"/>
        <pt x="396" y="87" on="0"/>
        <pt x="308" y="54" on="0"/>
        <pt x="258" y="54" on="1"/>
        <pt x="168" y="54" on="0"/>
        <pt x="92" y="138" on="0"/>
        <pt x="92" y="214" on="1"/>
        <pt x="92" y="259" on="0"/>
        <pt x="106" y="331" on="1"/>
        <pt x="150" y="559" on="1"/>
        <pt x="76" y="578" on="1"/>
        <pt x="81" y="611" on="1"/>
        <pt x="316" y="611" on="1"/>
        <pt x="311" y="578" on="1"/>
        <pt x="228" y="559" on="1"/>
        <pt x="183" y="328" on="1"/>
        <pt x="170" y="265" on="0"/>
        <pt x="170" y="220" on="1"/>
        <pt x="170" y="163" on="0"/>
        <pt x="217" y="100" on="0"/>
        <pt x="272" y="100" on="1"/>
        <pt x="335" y="100" on="0"/>
        <pt x="418" y="154" on="0"/>
        <pt x="442" y="194" on="1"/>
        <pt x="513" y="559" on="1"/>
        <pt x="438" y="578" on="1"/>
        <pt x="444" y="611" on="1"/>
        <pt x="673" y="611" on="1"/>
        <pt x="667" y="578" on="1"/>
        <pt x="585" y="559" on="1"/>
        <pt x="488" y="57" on="1"/>
        <pt x="465" y="-60" on="0"/>
        <pt x="335" y="-167" on="0"/>
        <pt x="225" y="-167" on="1"/>
        <pt x="171" y="-167" on="0"/>
        <pt x="87" y="-143" on="0"/>
        <pt x="46" y="-117" on="1"/>
        <pt x="82" y="-1" on="1"/>
        <pt x="117" y="-1" on="1"/>
        <pt x="121" y="-84" on="1"/>
      </contour>
    </TTGlyph>
    <TTGlyph name="Ycircumflex" xMin="77" yMin="0" xMax="607" yMax="804">
      <contour>
        <pt x="376" y="735" on="1"/>
        <pt x="238" y="650" on="1"/>
        <pt x="218" y="669" on="1"/>
        <pt x="357" y="804" on="1"/>
        <pt x="417" y="804" on="1"/>
        <pt x="496" y="669" on="1"/>
        <pt x="470" y="650" on="1"/>
      </contour>
      <contour>
        <pt x="413" y="611" on="1"/>
        <pt x="607" y="611" on="1"/>
        <pt x="601" y="578" on="1"/>
        <pt x="529" y="558" on="1"/>
        <pt x="306" y="224" on="1"/>
        <pt x="273" y="53" on="1"/>
        <pt x="370" y="33" on="1"/>
        <pt x="364" y="0" on="1"/>
        <pt x="86" y="0" on="1"/>
        <pt x="92" y="33" on="1"/>
        <pt x="196" y="53" on="1"/>
        <pt x="229" y="224" on="1"/>
        <pt x="137" y="558" on="1"/>
        <pt x="77" y="578" on="1"/>
        <pt x="83" y="611" on="1"/>
        <pt x="277" y="611" on="1"/>
        <pt x="271" y="578" on="1"/>
        <pt x="212" y="558" on="1"/>
        <pt x="287" y="280" on="1"/>
        <pt x="470" y="558" on="1"/>
        <pt x="407" y="578" on="1"/>
      </contour>
    </TTGlyph>
    <TTGlyph name="Ycircumflex.loclGUA" xMin="46" yMin="-167" xMax="673" yMax="804">
      <contour>
        <pt x="411" y="735" on="1"/>
        <pt x="273" y="650" on="1"/>
        <pt x="253" y="669" on="1"/>
        <pt x="392" y="804" on="1"/>
        <pt x="452" y="804" on="1"/>
        <pt x="531" y="669" on="1"/>
        <pt x="505" y="650" on="1"/>
      </contour>
      <contour>
        <pt x="143" y="-100" on="0"/>
        <pt x="206" y="-118" on="0"/>
        <pt x="235" y="-118" on="1"/>
        <pt x="309" y="-118" on="0"/>
        <pt x="397" y="-35" on="0"/>
        <pt x="415" y="58" on="1"/>
        <pt x="427" y="115" on="1"/>
        <pt x="396" y="87" on="0"/>
        <pt x="308" y="54" on="0"/>
        <pt x="258" y="54" on="1"/>
        <pt x="168" y="54" on="0"/>
        <pt x="92" y="138" on="0"/>
        <pt x="92" y="214" on="1"/>
        <pt x="92" y="259" on="0"/>
        <pt x="106" y="331" on="1"/>
        <pt x="150" y="559" on="1"/>
        <pt x="76" y="578" on="1"/>
        <pt x="81" y="611" on="1"/>
        <pt x="316" y="611" on="1"/>
        <pt x="311" y="578" on="1"/>
        <pt x="228" y="559" on="1"/>
        <pt x="183" y="328" on="1"/>
        <pt x="170" y="265" on="0"/>
        <pt x="170" y="220" on="1"/>
        <pt x="170" y="163" on="0"/>
        <pt x="217" y="100" on="0"/>
        <pt x="272" y="100" on="1"/>
        <pt x="335" y="100" on="0"/>
        <pt x="418" y="154" on="0"/>
        <pt x="442" y="194" on="1"/>
        <pt x="513" y="559" on="1"/>
        <pt x="438" y="578" on="1"/>
        <pt x="444" y="611" on="1"/>
        <pt x="673" y="611" on="1"/>
        <pt x="667" y="578" on="1"/>
        <pt x="585" y="559" on="1"/>
        <pt x="488" y="57" on="1"/>
        <pt x="465" y="-60" on="0"/>
        <pt x="335" y="-167" on="0"/>
        <pt x="225" y="-167" on="1"/>
        <pt x="171" y="-167" on="0"/>
        <pt x="87" y="-143" on="0"/>
        <pt x="46" y="-117" on="1"/>
        <pt x="82" y="-1" on="1"/>
        <pt x="117" y="-1" on="1"/>
        <pt x="121" y="-84" on="1"/>
      </contour>
    </TTGlyph>
    <TTGlyph name="Ydieresis" xMin="77" yMin="0" xMax="607" yMax="784">
      <contour>
        <pt x="333" y="704" on="0"/>
        <pt x="299" y="671" on="0"/>
        <pt x="276" y="671" on="1"/>
        <pt x="253" y="671" on="0"/>
        <pt x="219" y="704" on="0"/>
        <pt x="219" y="726" on="1"/>
        <pt x="219" y="750" on="0"/>
        <pt x="253" y="784" on="0"/>
        <pt x="276" y="784" on="1"/>
        <pt x="299" y="784" on="0"/>
        <pt x="333" y="750" on="0"/>
        <pt x="333" y="726" on="1"/>
      </contour>
      <contour>
        <pt x="528" y="704" on="0"/>
        <pt x="493" y="671" on="0"/>
        <pt x="470" y="671" on="1"/>
        <pt x="447" y="671" on="0"/>
        <pt x="413" y="704" on="0"/>
        <pt x="413" y="726" on="1"/>
        <pt x="413" y="750" on="0"/>
        <pt x="447" y="784" on="0"/>
        <pt x="470" y="784" on="1"/>
        <pt x="493" y="784" on="0"/>
        <pt x="528" y="750" on="0"/>
        <pt x="528" y="726" on="1"/>
      </contour>
      <contour>
        <pt x="413" y="611" on="1"/>
        <pt x="607" y="611" on="1"/>
        <pt x="601" y="578" on="1"/>
        <pt x="529" y="558" on="1"/>
        <pt x="306" y="224" on="1"/>
        <pt x="273" y="53" on="1"/>
        <pt x="370" y="33" on="1"/>
        <pt x="364" y="0" on="1"/>
        <pt x="86" y="0" on="1"/>
        <pt x="92" y="33" on="1"/>
        <pt x="196" y="53" on="1"/>
        <pt x="229" y="224" on="1"/>
        <pt x="137" y="558" on="1"/>
        <pt x="77" y="578" on="1"/>
        <pt x="83" y="611" on="1"/>
        <pt x="277" y="611" on="1"/>
        <pt x="271" y="578" on="1"/>
        <pt x="212" y="558" on="1"/>
        <pt x="287" y="280" on="1"/>
        <pt x="470" y="558" on="1"/>
        <pt x="407" y="578" on="1"/>
      </contour>
    </TTGlyph>
    <TTGlyph name="Ydieresis.loclGUA" xMin="70" yMin="-167" xMax="697" yMax="784">
      <contour>
        <pt x="376" y="704" on="0"/>
        <pt x="342" y="671" on="0"/>
        <pt x="319" y="671" on="1"/>
        <pt x="296" y="671" on="0"/>
        <pt x="262" y="704" on="0"/>
        <pt x="262" y="726" on="1"/>
        <pt x="262" y="750" on="0"/>
        <pt x="296" y="784" on="0"/>
        <pt x="319" y="784" on="1"/>
        <pt x="342" y="784" on="0"/>
        <pt x="376" y="750" on="0"/>
        <pt x="376" y="726" on="1"/>
      </contour>
      <contour>
        <pt x="571" y="704" on="0"/>
        <pt x="536" y="671" on="0"/>
        <pt x="513" y="671" on="1"/>
        <pt x="490" y="671" on="0"/>
        <pt x="456" y="704" on="0"/>
        <pt x="456" y="726" on="1"/>
        <pt x="456" y="750" on="0"/>
        <pt x="490" y="784" on="0"/>
        <pt x="513" y="784" on="1"/>
        <pt x="536" y="784" on="0"/>
        <pt x="571" y="750" on="0"/>
        <pt x="571" y="726" on="1"/>
      </contour>
      <contour>
        <pt x="167" y="-100" on="0"/>
        <pt x="230" y="-118" on="0"/>
        <pt x="259" y="-118" on="1"/>
        <pt x="333" y="-118" on="0"/>
        <pt x="421" y="-35" on="0"/>
        <pt x="439" y="58" on="1"/>
        <pt x="451" y="115" on="1"/>
        <pt x="420" y="87" on="0"/>
        <pt x="332" y="54" on="0"/>
        <pt x="282" y="54" on="1"/>
        <pt x="192" y="54" on="0"/>
        <pt x="116" y="138" on="0"/>
        <pt x="116" y="214" on="1"/>
        <pt x="116" y="259" on="0"/>
        <pt x="130" y="331" on="1"/>
        <pt x="174" y="559" on="1"/>
        <pt x="100" y="578" on="1"/>
        <pt x="105" y="611" on="1"/>
        <pt x="340" y="611" on="1"/>
        <pt x="335" y="578" on="1"/>
        <pt x="252" y="559" on="1"/>
        <pt x="207" y="328" on="1"/>
        <pt x="194" y="265" on="0"/>
        <pt x="194" y="220" on="1"/>
        <pt x="194" y="163" on="0"/>
        <pt x="241" y="100" on="0"/>
        <pt x="296" y="100" on="1"/>
        <pt x="359" y="100" on="0"/>
        <pt x="442" y="154" on="0"/>
        <pt x="466" y="194" on="1"/>
        <pt x="537" y="559" on="1"/>
        <pt x="462" y="578" on="1"/>
        <pt x="468" y="611" on="1"/>
        <pt x="697" y="611" on="1"/>
        <pt x="691" y="578" on="1"/>
        <pt x="609" y="559" on="1"/>
        <pt x="512" y="57" on="1"/>
        <pt x="489" y="-60" on="0"/>
        <pt x="359" y="-167" on="0"/>
        <pt x="249" y="-167" on="1"/>
        <pt x="195" y="-167" on="0"/>
        <pt x="111" y="-143" on="0"/>
        <pt x="70" y="-117" on="1"/>
        <pt x="106" y="-1" on="1"/>
        <pt x="141" y="-1" on="1"/>
        <pt x="145" y="-84" on="1"/>
      </contour>
    </TTGlyph>
    <TTGlyph name="Ygrave" xMin="77" yMin="0" xMax="607" yMax="800">
      <contour>
        <pt x="233" y="772" on="1"/>
        <pt x="309" y="800" on="1"/>
        <pt x="463" y="670" on="1"/>
        <pt x="447" y="651" on="1"/>
        <pt x="233" y="754" on="1"/>
      </contour>
      <contour>
        <pt x="413" y="611" on="1"/>
        <pt x="607" y="611" on="1"/>
        <pt x="601" y="578" on="1"/>
        <pt x="529" y="558" on="1"/>
        <pt x="306" y="224" on="1"/>
        <pt x="273" y="53" on="1"/>
        <pt x="370" y="33" on="1"/>
        <pt x="364" y="0" on="1"/>
        <pt x="86" y="0" on="1"/>
        <pt x="92" y="33" on="1"/>
        <pt x="196" y="53" on="1"/>
        <pt x="229" y="224" on="1"/>
        <pt x="137" y="558" on="1"/>
        <pt x="77" y="578" on="1"/>
        <pt x="83" y="611" on="1"/>
        <pt x="277" y="611" on="1"/>
        <pt x="271" y="578" on="1"/>
        <pt x="212" y="558" on="1"/>
        <pt x="287" y="280" on="1"/>
        <pt x="470" y="558" on="1"/>
        <pt x="407" y="578" on="1"/>
      </contour>
    </TTGlyph>
    <TTGlyph name="Ygrave.loclGUA" xMin="46" yMin="-167" xMax="673" yMax="800">
      <contour>
        <pt x="244" y="772" on="1"/>
        <pt x="320" y="800" on="1"/>
        <pt x="474" y="670" on="1"/>
        <pt x="458" y="651" on="1"/>
        <pt x="244" y="754" on="1"/>
      </contour>
      <contour>
        <pt x="143" y="-100" on="0"/>
        <pt x="206" y="-118" on="0"/>
        <pt x="235" y="-118" on="1"/>
        <pt x="309" y="-118" on="0"/>
        <pt x="397" y="-35" on="0"/>
        <pt x="415" y="58" on="1"/>
        <pt x="427" y="115" on="1"/>
        <pt x="396" y="87" on="0"/>
        <pt x="308" y="54" on="0"/>
        <pt x="258" y="54" on="1"/>
        <pt x="168" y="54" on="0"/>
        <pt x="92" y="138" on="0"/>
        <pt x="92" y="214" on="1"/>
        <pt x="92" y="259" on="0"/>
        <pt x="106" y="331" on="1"/>
        <pt x="150" y="559" on="1"/>
        <pt x="76" y="578" on="1"/>
        <pt x="81" y="611" on="1"/>
        <pt x="316" y="611" on="1"/>
        <pt x="311" y="578" on="1"/>
        <pt x="228" y="559" on="1"/>
        <pt x="183" y="328" on="1"/>
        <pt x="170" y="265" on="0"/>
        <pt x="170" y="220" on="1"/>
        <pt x="170" y="163" on="0"/>
        <pt x="217" y="100" on="0"/>
        <pt x="272" y="100" on="1"/>
        <pt x="335" y="100" on="0"/>
        <pt x="418" y="154" on="0"/>
        <pt x="442" y="194" on="1"/>
        <pt x="513" y="559" on="1"/>
        <pt x="438" y="578" on="1"/>
        <pt x="444" y="611" on="1"/>
        <pt x="673" y="611" on="1"/>
        <pt x="667" y="578" on="1"/>
        <pt x="585" y="559" on="1"/>
        <pt x="488" y="57" on="1"/>
        <pt x="465" y="-60" on="0"/>
        <pt x="335" y="-167" on="0"/>
        <pt x="225" y="-167" on="1"/>
        <pt x="171" y="-167" on="0"/>
        <pt x="87" y="-143" on="0"/>
        <pt x="46" y="-117" on="1"/>
        <pt x="82" y="-1" on="1"/>
        <pt x="117" y="-1" on="1"/>
        <pt x="121" y="-84" on="1"/>
      </contour>
    </TTGlyph>
    <TTGlyph name="Z" xMin="11" yMin="0" xMax="524" yMax="611">
      <contour>
        <pt x="410" y="0" on="1"/>
        <pt x="22" y="0" on="1"/>
        <pt x="11" y="33" on="1"/>
        <pt x="414" y="558" on="1"/>
        <pt x="191" y="558" on="1"/>
        <pt x="155" y="479" on="1"/>
        <pt x="119" y="479" on="1"/>
        <pt x="136" y="611" on="1"/>
        <pt x="524" y="611" on="1"/>
        <pt x="522" y="579" on="1"/>
        <pt x="119" y="54" on="1"/>
        <pt x="359" y="54" on="1"/>
        <pt x="412" y="147" on="1"/>
        <pt x="448" y="147" on="1"/>
      </contour>
    </TTGlyph>
    <TTGlyph name="Zacute" xMin="-2" yMin="0" xMax="511" yMax="800">
      <contour>
        <pt x="216" y="670" on="1"/>
        <pt x="370" y="800" on="1"/>
        <pt x="446" y="772" on="1"/>
        <pt x="446" y="754" on="1"/>
        <pt x="232" y="651" on="1"/>
      </contour>
      <contour>
        <pt x="397" y="0" on="1"/>
        <pt x="9" y="0" on="1"/>
        <pt x="-2" y="33" on="1"/>
        <pt x="401" y="558" on="1"/>
        <pt x="178" y="558" on="1"/>
        <pt x="142" y="479" on="1"/>
        <pt x="106" y="479" on="1"/>
        <pt x="123" y="611" on="1"/>
        <pt x="511" y="611" on="1"/>
        <pt x="509" y="579" on="1"/>
        <pt x="106" y="54" on="1"/>
        <pt x="346" y="54" on="1"/>
        <pt x="399" y="147" on="1"/>
        <pt x="435" y="147" on="1"/>
      </contour>
    </TTGlyph>
    <TTGlyph name="Zacute.loclPLK" xMin="11" yMin="0" xMax="524" yMax="808">
      <component glyphName=".ttfautohint" x="11" y="0" flags="0x0"/>
      <component glyphName="Z" x="0" y="0" flags="0x0"/>
      <component glyphName="acute.loclPLK.case" x="147" y="0" flags="0x0"/>
    </TTGlyph>
    <TTGlyph name="Zcaron" xMin="-2" yMin="0" xMax="511" yMax="805">
      <contour>
        <pt x="330" y="722" on="1"/>
        <pt x="460" y="805" on="1"/>
        <pt x="480" y="786" on="1"/>
        <pt x="350" y="651" on="1"/>
        <pt x="290" y="651" on="1"/>
        <pt x="201" y="786" on="1"/>
        <pt x="228" y="804" on="1"/>
      </contour>
      <contour>
        <pt x="397" y="0" on="1"/>
        <pt x="9" y="0" on="1"/>
        <pt x="-2" y="33" on="1"/>
        <pt x="401" y="558" on="1"/>
        <pt x="178" y="558" on="1"/>
        <pt x="142" y="479" on="1"/>
        <pt x="106" y="479" on="1"/>
        <pt x="123" y="611" on="1"/>
        <pt x="511" y="611" on="1"/>
        <pt x="509" y="579" on="1"/>
        <pt x="106" y="54" on="1"/>
        <pt x="346" y="54" on="1"/>
        <pt x="399" y="147" on="1"/>
        <pt x="435" y="147" on="1"/>
      </contour>
    </TTGlyph>
    <TTGlyph name="Zdotaccent" xMin="-2" yMin="0" xMax="511" yMax="785">
      <contour>
        <pt x="377" y="701" on="0"/>
        <pt x="341" y="668" on="0"/>
        <pt x="317" y="668" on="1"/>
        <pt x="293" y="668" on="0"/>
        <pt x="257" y="701" on="0"/>
        <pt x="257" y="725" on="1"/>
        <pt x="257" y="750" on="0"/>
        <pt x="293" y="785" on="0"/>
        <pt x="317" y="785" on="1"/>
        <pt x="341" y="785" on="0"/>
        <pt x="377" y="749" on="0"/>
        <pt x="377" y="725" on="1"/>
      </contour>
      <contour>
        <pt x="397" y="0" on="1"/>
        <pt x="9" y="0" on="1"/>
        <pt x="-2" y="33" on="1"/>
        <pt x="401" y="558" on="1"/>
        <pt x="178" y="558" on="1"/>
        <pt x="142" y="479" on="1"/>
        <pt x="106" y="479" on="1"/>
        <pt x="123" y="611" on="1"/>
        <pt x="511" y="611" on="1"/>
        <pt x="509" y="579" on="1"/>
        <pt x="106" y="54" on="1"/>
        <pt x="346" y="54" on="1"/>
        <pt x="399" y="147" on="1"/>
        <pt x="435" y="147" on="1"/>
      </contour>
    </TTGlyph>
    <TTGlyph name="a" xMin="34" yMin="-8" xMax="469" yMax="524">
      <contour>
        <pt x="397" y="144" on="0"/>
        <pt x="388" y="54" on="0"/>
        <pt x="387" y="50" on="1"/>
        <pt x="466" y="50" on="1"/>
        <pt x="466" y="20" on="1"/>
        <pt x="421" y="4" on="0"/>
        <pt x="374" y="-8" on="0"/>
        <pt x="355" y="-8" on="1"/>
        <pt x="309" y="-8" on="0"/>
        <pt x="309" y="33" on="1"/>
        <pt x="310" y="46" on="0"/>
        <pt x="315" y="85" on="0"/>
        <pt x="316" y="94" on="1"/>
        <pt x="284" y="50" on="0"/>
        <pt x="187" y="-8" on="0"/>
        <pt x="150" y="-8" on="1"/>
        <pt x="34" y="-8" on="0"/>
        <pt x="34" y="142" on="1"/>
        <pt x="34" y="253" on="0"/>
        <pt x="104" y="415" on="0"/>
        <pt x="232" y="500" on="0"/>
        <pt x="319" y="500" on="1"/>
        <pt x="346" y="500" on="0"/>
        <pt x="416" y="486" on="0"/>
        <pt x="416" y="485" on="1"/>
        <pt x="438" y="524" on="1"/>
        <pt x="469" y="516" on="1"/>
        <pt x="408" y="202" on="1"/>
      </contour>
      <contour>
        <pt x="210" y="53" on="0"/>
        <pt x="299" y="120" on="0"/>
        <pt x="321" y="154" on="1"/>
        <pt x="322" y="154" on="0"/>
        <pt x="375" y="429" on="1"/>
        <pt x="362" y="439" on="0"/>
        <pt x="324" y="452" on="0"/>
        <pt x="308" y="452" on="1"/>
        <pt x="246" y="452" on="0"/>
        <pt x="161" y="365" on="0"/>
        <pt x="118" y="225" on="0"/>
        <pt x="118" y="144" on="1"/>
        <pt x="118" y="95" on="0"/>
        <pt x="152" y="53" on="0"/>
        <pt x="183" y="53" on="1"/>
      </contour>
    </TTGlyph>
    <TTGlyph name="aacute" xMin="34" yMin="-8" xMax="469" yMax="707">
      <component glyphName=".ttfautohint" x="34" y="0" flags="0x0"/>
      <component glyphName="a" x="0" y="0" flags="0x0"/>
      <component glyphName="acute" x="138" y="0" flags="0x0"/>
    </TTGlyph>
    <TTGlyph name="abreve" xMin="34" yMin="-8" xMax="469" yMax="697">
      <contour>
        <pt x="210" y="581" on="0"/>
        <pt x="210" y="668" on="1"/>
        <pt x="210" y="675" on="0"/>
        <pt x="215" y="697" on="1"/>
        <pt x="249" y="697" on="1"/>
        <pt x="246" y="690" on="0"/>
        <pt x="246" y="681" on="1"/>
        <pt x="248" y="659" on="0"/>
        <pt x="278" y="635" on="0"/>
        <pt x="318" y="635" on="1"/>
        <pt x="404" y="635" on="0"/>
        <pt x="416" y="697" on="1"/>
        <pt x="449" y="697" on="1"/>
        <pt x="425" y="581" on="0"/>
        <pt x="311" y="581" on="1"/>
      </contour>
      <contour>
        <pt x="397" y="144" on="0"/>
        <pt x="388" y="54" on="0"/>
        <pt x="387" y="50" on="1"/>
        <pt x="466" y="50" on="1"/>
        <pt x="466" y="20" on="1"/>
        <pt x="421" y="4" on="0"/>
        <pt x="374" y="-8" on="0"/>
        <pt x="355" y="-8" on="1"/>
        <pt x="309" y="-8" on="0"/>
        <pt x="309" y="33" on="1"/>
        <pt x="310" y="46" on="0"/>
        <pt x="315" y="85" on="0"/>
        <pt x="316" y="94" on="1"/>
        <pt x="284" y="50" on="0"/>
        <pt x="187" y="-8" on="0"/>
        <pt x="150" y="-8" on="1"/>
        <pt x="34" y="-8" on="0"/>
        <pt x="34" y="142" on="1"/>
        <pt x="34" y="253" on="0"/>
        <pt x="104" y="415" on="0"/>
        <pt x="232" y="500" on="0"/>
        <pt x="319" y="500" on="1"/>
        <pt x="346" y="500" on="0"/>
        <pt x="416" y="486" on="0"/>
        <pt x="416" y="485" on="1"/>
        <pt x="438" y="524" on="1"/>
        <pt x="469" y="516" on="1"/>
        <pt x="408" y="202" on="1"/>
      </contour>
      <contour>
        <pt x="210" y="53" on="0"/>
        <pt x="299" y="120" on="0"/>
        <pt x="321" y="154" on="1"/>
        <pt x="322" y="154" on="0"/>
        <pt x="375" y="429" on="1"/>
        <pt x="362" y="439" on="0"/>
        <pt x="324" y="452" on="0"/>
        <pt x="308" y="452" on="1"/>
        <pt x="246" y="452" on="0"/>
        <pt x="161" y="365" on="0"/>
        <pt x="118" y="225" on="0"/>
        <pt x="118" y="144" on="1"/>
        <pt x="118" y="95" on="0"/>
        <pt x="152" y="53" on="0"/>
        <pt x="183" y="53" on="1"/>
      </contour>
    </TTGlyph>
    <TTGlyph name="acircumflex" xMin="34" yMin="-8" xMax="469" yMax="709">
      <contour>
        <pt x="325" y="638" on="1"/>
        <pt x="206" y="552" on="1"/>
        <pt x="186" y="571" on="1"/>
        <pt x="305" y="709" on="1"/>
        <pt x="365" y="709" on="1"/>
        <pt x="434" y="571" on="1"/>
        <pt x="408" y="552" on="1"/>
      </contour>
      <contour>
        <pt x="397" y="144" on="0"/>
        <pt x="388" y="54" on="0"/>
        <pt x="387" y="50" on="1"/>
        <pt x="466" y="50" on="1"/>
        <pt x="466" y="20" on="1"/>
        <pt x="421" y="4" on="0"/>
        <pt x="374" y="-8" on="0"/>
        <pt x="355" y="-8" on="1"/>
        <pt x="309" y="-8" on="0"/>
        <pt x="309" y="33" on="1"/>
        <pt x="310" y="46" on="0"/>
        <pt x="315" y="85" on="0"/>
        <pt x="316" y="94" on="1"/>
        <pt x="284" y="50" on="0"/>
        <pt x="187" y="-8" on="0"/>
        <pt x="150" y="-8" on="1"/>
        <pt x="34" y="-8" on="0"/>
        <pt x="34" y="142" on="1"/>
        <pt x="34" y="253" on="0"/>
        <pt x="104" y="415" on="0"/>
        <pt x="232" y="500" on="0"/>
        <pt x="319" y="500" on="1"/>
        <pt x="346" y="500" on="0"/>
        <pt x="416" y="486" on="0"/>
        <pt x="416" y="485" on="1"/>
        <pt x="438" y="524" on="1"/>
        <pt x="469" y="516" on="1"/>
        <pt x="408" y="202" on="1"/>
      </contour>
      <contour>
        <pt x="210" y="53" on="0"/>
        <pt x="299" y="120" on="0"/>
        <pt x="321" y="154" on="1"/>
        <pt x="322" y="154" on="0"/>
        <pt x="375" y="429" on="1"/>
        <pt x="362" y="439" on="0"/>
        <pt x="324" y="452" on="0"/>
        <pt x="308" y="452" on="1"/>
        <pt x="246" y="452" on="0"/>
        <pt x="161" y="365" on="0"/>
        <pt x="118" y="225" on="0"/>
        <pt x="118" y="144" on="1"/>
        <pt x="118" y="95" on="0"/>
        <pt x="152" y="53" on="0"/>
        <pt x="183" y="53" on="1"/>
      </contour>
    </TTGlyph>
    <TTGlyph name="acute" xMin="84" yMin="558" xMax="314" yMax="707">
      <contour>
        <pt x="84" y="577" on="1"/>
        <pt x="238" y="707" on="1"/>
        <pt x="314" y="679" on="1"/>
        <pt x="314" y="661" on="1"/>
        <pt x="100" y="558" on="1"/>
      </contour>
    </TTGlyph>
    <TTGlyph name="acute.case" xMin="102" yMin="651" xMax="332" yMax="800">
      <contour>
        <pt x="102" y="670" on="1"/>
        <pt x="256" y="800" on="1"/>
        <pt x="332" y="772" on="1"/>
        <pt x="332" y="754" on="1"/>
        <pt x="118" y="651" on="1"/>
      </contour>
    </TTGlyph>
    <TTGlyph name="acute.loclPLK" xMin="118" yMin="544" xMax="283" yMax="714">
      <contour>
        <pt x="118" y="555" on="1"/>
        <pt x="208" y="714" on="1"/>
        <pt x="283" y="714" on="1"/>
        <pt x="283" y="697" on="1"/>
        <pt x="137" y="544" on="1"/>
      </contour>
    </TTGlyph>
    <TTGlyph name="acute.loclPLK.case" xMin="141" yMin="647" xMax="302" yMax="808">
      <contour>
        <pt x="141" y="658" on="1"/>
        <pt x="227" y="808" on="1"/>
        <pt x="302" y="808" on="1"/>
        <pt x="302" y="791" on="1"/>
        <pt x="160" y="647" on="1"/>
      </contour>
    </TTGlyph>
    <TTGlyph name="acutecomb" xMin="-153" yMin="651" xMax="77" yMax="800">
      <contour>
        <pt x="-153" y="670" on="1"/>
        <pt x="1" y="800" on="1"/>
        <pt x="77" y="772" on="1"/>
        <pt x="77" y="754" on="1"/>
        <pt x="-137" y="651" on="1"/>
      </contour>
    </TTGlyph>
    <TTGlyph name="adieresis" xMin="34" yMin="-8" xMax="486" yMax="696">
      <contour>
        <pt x="291" y="616" on="0"/>
        <pt x="257" y="583" on="0"/>
        <pt x="234" y="583" on="1"/>
        <pt x="211" y="583" on="0"/>
        <pt x="177" y="616" on="0"/>
        <pt x="177" y="638" on="1"/>
        <pt x="177" y="662" on="0"/>
        <pt x="211" y="696" on="0"/>
        <pt x="234" y="696" on="1"/>
        <pt x="257" y="696" on="0"/>
        <pt x="291" y="662" on="0"/>
        <pt x="291" y="638" on="1"/>
      </contour>
      <contour>
        <pt x="486" y="616" on="0"/>
        <pt x="451" y="583" on="0"/>
        <pt x="428" y="583" on="1"/>
        <pt x="405" y="583" on="0"/>
        <pt x="371" y="616" on="0"/>
        <pt x="371" y="638" on="1"/>
        <pt x="371" y="662" on="0"/>
        <pt x="405" y="696" on="0"/>
        <pt x="428" y="696" on="1"/>
        <pt x="451" y="696" on="0"/>
        <pt x="486" y="662" on="0"/>
        <pt x="486" y="638" on="1"/>
      </contour>
      <contour>
        <pt x="397" y="144" on="0"/>
        <pt x="388" y="54" on="0"/>
        <pt x="387" y="50" on="1"/>
        <pt x="466" y="50" on="1"/>
        <pt x="466" y="20" on="1"/>
        <pt x="421" y="4" on="0"/>
        <pt x="374" y="-8" on="0"/>
        <pt x="355" y="-8" on="1"/>
        <pt x="309" y="-8" on="0"/>
        <pt x="309" y="33" on="1"/>
        <pt x="310" y="46" on="0"/>
        <pt x="315" y="85" on="0"/>
        <pt x="316" y="94" on="1"/>
        <pt x="284" y="50" on="0"/>
        <pt x="187" y="-8" on="0"/>
        <pt x="150" y="-8" on="1"/>
        <pt x="34" y="-8" on="0"/>
        <pt x="34" y="142" on="1"/>
        <pt x="34" y="253" on="0"/>
        <pt x="104" y="415" on="0"/>
        <pt x="232" y="500" on="0"/>
        <pt x="319" y="500" on="1"/>
        <pt x="346" y="500" on="0"/>
        <pt x="416" y="486" on="0"/>
        <pt x="416" y="485" on="1"/>
        <pt x="438" y="524" on="1"/>
        <pt x="469" y="516" on="1"/>
        <pt x="408" y="202" on="1"/>
      </contour>
      <contour>
        <pt x="210" y="53" on="0"/>
        <pt x="299" y="120" on="0"/>
        <pt x="321" y="154" on="1"/>
        <pt x="322" y="154" on="0"/>
        <pt x="375" y="429" on="1"/>
        <pt x="362" y="439" on="0"/>
        <pt x="324" y="452" on="0"/>
        <pt x="308" y="452" on="1"/>
        <pt x="246" y="452" on="0"/>
        <pt x="161" y="365" on="0"/>
        <pt x="118" y="225" on="0"/>
        <pt x="118" y="144" on="1"/>
        <pt x="118" y="95" on="0"/>
        <pt x="152" y="53" on="0"/>
        <pt x="183" y="53" on="1"/>
      </contour>
    </TTGlyph>
    <TTGlyph name="ae" xMin="34" yMin="-9" xMax="714" yMax="524">
      <contour>
        <pt x="654" y="505" on="0"/>
        <pt x="714" y="455" on="0"/>
        <pt x="714" y="408" on="1"/>
        <pt x="714" y="329" on="0"/>
        <pt x="563" y="240" on="0"/>
        <pt x="424" y="240" on="1"/>
        <pt x="415" y="192" on="0"/>
        <pt x="415" y="158" on="1"/>
        <pt x="415" y="92" on="0"/>
        <pt x="476" y="42" on="0"/>
        <pt x="542" y="42" on="1"/>
        <pt x="567" y="42" on="0"/>
        <pt x="619" y="60" on="1"/>
        <pt x="626" y="26" on="1"/>
        <pt x="558" y="-9" on="0"/>
        <pt x="492" y="-9" on="1"/>
        <pt x="432" y="-9" on="0"/>
        <pt x="345" y="56" on="0"/>
        <pt x="334" y="120" on="1"/>
        <pt x="287" y="52" on="0"/>
        <pt x="189" y="-8" on="0"/>
        <pt x="149" y="-8" on="1"/>
        <pt x="34" y="-8" on="0"/>
        <pt x="34" y="142" on="1"/>
        <pt x="34" y="254" on="0"/>
        <pt x="104" y="418" on="0"/>
        <pt x="232" y="505" on="0"/>
        <pt x="319" y="505" on="1"/>
        <pt x="346" y="505" on="0"/>
        <pt x="416" y="491" on="0"/>
        <pt x="416" y="490" on="1"/>
        <pt x="438" y="524" on="1"/>
        <pt x="469" y="516" on="1"/>
        <pt x="458" y="461" on="1"/>
        <pt x="521" y="505" on="0"/>
        <pt x="609" y="505" on="1"/>
      </contour>
      <contour>
        <pt x="210" y="53" on="0"/>
        <pt x="298" y="120" on="0"/>
        <pt x="320" y="154" on="1"/>
        <pt x="322" y="162" on="0"/>
        <pt x="332" y="213" on="0"/>
        <pt x="339" y="252" on="1"/>
        <pt x="375" y="434" on="1"/>
        <pt x="363" y="445" on="0"/>
        <pt x="332" y="457" on="0"/>
        <pt x="308" y="457" on="1"/>
        <pt x="245" y="457" on="0"/>
        <pt x="159" y="368" on="0"/>
        <pt x="118" y="225" on="0"/>
        <pt x="118" y="144" on="1"/>
        <pt x="118" y="95" on="0"/>
        <pt x="152" y="53" on="0"/>
        <pt x="183" y="53" on="1"/>
      </contour>
      <contour>
        <pt x="530" y="457" on="0"/>
        <pt x="450" y="362" on="0"/>
        <pt x="432" y="273" on="1"/>
        <pt x="528" y="273" on="0"/>
        <pt x="638" y="339" on="0"/>
        <pt x="638" y="400" on="1"/>
        <pt x="638" y="425" on="0"/>
        <pt x="612" y="457" on="0"/>
        <pt x="588" y="457" on="1"/>
      </contour>
    </TTGlyph>
    <TTGlyph name="aeacute" xMin="34" yMin="-9" xMax="714" yMax="707">
      <component glyphName=".ttfautohint" x="34" y="0" flags="0x0"/>
      <component glyphName="ae" x="0" y="0" flags="0x0"/>
      <component glyphName="acute" x="233" y="0" flags="0x0"/>
    </TTGlyph>
    <TTGlyph name="agrave" xMin="34" yMin="-8" xMax="469" yMax="707">
      <contour>
        <pt x="193" y="679" on="1"/>
        <pt x="269" y="707" on="1"/>
        <pt x="423" y="577" on="1"/>
        <pt x="407" y="558" on="1"/>
        <pt x="193" y="661" on="1"/>
      </contour>
      <contour>
        <pt x="397" y="144" on="0"/>
        <pt x="388" y="54" on="0"/>
        <pt x="387" y="50" on="1"/>
        <pt x="466" y="50" on="1"/>
        <pt x="466" y="20" on="1"/>
        <pt x="421" y="4" on="0"/>
        <pt x="374" y="-8" on="0"/>
        <pt x="355" y="-8" on="1"/>
        <pt x="309" y="-8" on="0"/>
        <pt x="309" y="33" on="1"/>
        <pt x="310" y="46" on="0"/>
        <pt x="315" y="85" on="0"/>
        <pt x="316" y="94" on="1"/>
        <pt x="284" y="50" on="0"/>
        <pt x="187" y="-8" on="0"/>
        <pt x="150" y="-8" on="1"/>
        <pt x="34" y="-8" on="0"/>
        <pt x="34" y="142" on="1"/>
        <pt x="34" y="253" on="0"/>
        <pt x="104" y="415" on="0"/>
        <pt x="232" y="500" on="0"/>
        <pt x="319" y="500" on="1"/>
        <pt x="346" y="500" on="0"/>
        <pt x="416" y="486" on="0"/>
        <pt x="416" y="485" on="1"/>
        <pt x="438" y="524" on="1"/>
        <pt x="469" y="516" on="1"/>
        <pt x="408" y="202" on="1"/>
      </contour>
      <contour>
        <pt x="210" y="53" on="0"/>
        <pt x="299" y="120" on="0"/>
        <pt x="321" y="154" on="1"/>
        <pt x="322" y="154" on="0"/>
        <pt x="375" y="429" on="1"/>
        <pt x="362" y="439" on="0"/>
        <pt x="324" y="452" on="0"/>
        <pt x="308" y="452" on="1"/>
        <pt x="246" y="452" on="0"/>
        <pt x="161" y="365" on="0"/>
        <pt x="118" y="225" on="0"/>
        <pt x="118" y="144" on="1"/>
        <pt x="118" y="95" on="0"/>
        <pt x="152" y="53" on="0"/>
        <pt x="183" y="53" on="1"/>
      </contour>
    </TTGlyph>
    <TTGlyph name="amacron" xMin="34" yMin="-8" xMax="469" yMax="631">
      <contour>
        <pt x="424" y="631" on="1"/>
        <pt x="416" y="579" on="1"/>
        <pt x="199" y="579" on="1"/>
        <pt x="207" y="631" on="1"/>
      </contour>
      <contour>
        <pt x="397" y="144" on="0"/>
        <pt x="388" y="54" on="0"/>
        <pt x="387" y="50" on="1"/>
        <pt x="466" y="50" on="1"/>
        <pt x="466" y="20" on="1"/>
        <pt x="421" y="4" on="0"/>
        <pt x="374" y="-8" on="0"/>
        <pt x="355" y="-8" on="1"/>
        <pt x="309" y="-8" on="0"/>
        <pt x="309" y="33" on="1"/>
        <pt x="310" y="46" on="0"/>
        <pt x="315" y="85" on="0"/>
        <pt x="316" y="94" on="1"/>
        <pt x="284" y="50" on="0"/>
        <pt x="187" y="-8" on="0"/>
        <pt x="150" y="-8" on="1"/>
        <pt x="34" y="-8" on="0"/>
        <pt x="34" y="142" on="1"/>
        <pt x="34" y="253" on="0"/>
        <pt x="104" y="415" on="0"/>
        <pt x="232" y="500" on="0"/>
        <pt x="319" y="500" on="1"/>
        <pt x="346" y="500" on="0"/>
        <pt x="416" y="486" on="0"/>
        <pt x="416" y="485" on="1"/>
        <pt x="438" y="524" on="1"/>
        <pt x="469" y="516" on="1"/>
        <pt x="408" y="202" on="1"/>
      </contour>
      <contour>
        <pt x="210" y="53" on="0"/>
        <pt x="299" y="120" on="0"/>
        <pt x="321" y="154" on="1"/>
        <pt x="322" y="154" on="0"/>
        <pt x="375" y="429" on="1"/>
        <pt x="362" y="439" on="0"/>
        <pt x="324" y="452" on="0"/>
        <pt x="308" y="452" on="1"/>
        <pt x="246" y="452" on="0"/>
        <pt x="161" y="365" on="0"/>
        <pt x="118" y="225" on="0"/>
        <pt x="118" y="144" on="1"/>
        <pt x="118" y="95" on="0"/>
        <pt x="152" y="53" on="0"/>
        <pt x="183" y="53" on="1"/>
      </contour>
    </TTGlyph>
    <TTGlyph name="ampersand" xMin="24" yMin="-9" xMax="577" yMax="623">
      <contour>
        <pt x="446" y="38" on="1"/>
        <pt x="405" y="19" on="0"/>
        <pt x="288" y="-9" on="0"/>
        <pt x="220" y="-9" on="1"/>
        <pt x="124" y="-9" on="0"/>
        <pt x="24" y="73" on="0"/>
        <pt x="24" y="153" on="1"/>
        <pt x="24" y="228" on="0"/>
        <pt x="115" y="340" on="0"/>
        <pt x="200" y="360" on="1"/>
        <pt x="168" y="382" on="0"/>
        <pt x="137" y="432" on="0"/>
        <pt x="137" y="472" on="1"/>
        <pt x="137" y="524" on="0"/>
        <pt x="192" y="592" on="0"/>
        <pt x="274" y="623" on="0"/>
        <pt x="314" y="623" on="1"/>
        <pt x="370" y="623" on="0"/>
        <pt x="446" y="608" on="0"/>
        <pt x="491" y="591" on="1"/>
        <pt x="456" y="461" on="1"/>
        <pt x="419" y="461" on="1"/>
        <pt x="415" y="558" on="1"/>
        <pt x="371" y="574" on="0"/>
        <pt x="326" y="574" on="1"/>
        <pt x="279" y="574" on="0"/>
        <pt x="216" y="521" on="0"/>
        <pt x="216" y="465" on="1"/>
        <pt x="216" y="417" on="0"/>
        <pt x="278" y="375" on="0"/>
        <pt x="322" y="371" on="1"/>
        <pt x="314" y="326" on="1"/>
        <pt x="217" y="326" on="0"/>
        <pt x="110" y="252" on="0"/>
        <pt x="110" y="155" on="1"/>
        <pt x="110" y="104" on="0"/>
        <pt x="185" y="39" on="0"/>
        <pt x="251" y="39" on="1"/>
        <pt x="280" y="39" on="0"/>
        <pt x="347" y="52" on="0"/>
        <pt x="368" y="59" on="1"/>
        <pt x="399" y="224" on="1"/>
        <pt x="313" y="229" on="1"/>
        <pt x="306" y="273" on="1"/>
        <pt x="577" y="273" on="1"/>
        <pt x="577" y="215" on="1"/>
        <pt x="481" y="220" on="1"/>
      </contour>
    </TTGlyph>
    <TTGlyph name="aogonek" xMin="34" yMin="-236" xMax="469" yMax="524">
      <contour>
        <pt x="397" y="144" on="0"/>
        <pt x="388" y="54" on="0"/>
        <pt x="387" y="50" on="1"/>
        <pt x="466" y="50" on="1"/>
        <pt x="466" y="20" on="1"/>
        <pt x="462" y="18" on="0"/>
        <pt x="460" y="18" on="1"/>
        <pt x="417" y="-7" on="0"/>
        <pt x="354" y="-105" on="0"/>
        <pt x="354" y="-145" on="1"/>
        <pt x="354" y="-168" on="0"/>
        <pt x="379" y="-192" on="0"/>
        <pt x="402" y="-192" on="1"/>
        <pt x="430" y="-192" on="0"/>
        <pt x="455" y="-170" on="1"/>
        <pt x="469" y="-186" on="1"/>
        <pt x="469" y="-188" on="0"/>
        <pt x="441" y="-214" on="0"/>
        <pt x="396" y="-236" on="0"/>
        <pt x="368" y="-236" on="1"/>
        <pt x="326" y="-236" on="0"/>
        <pt x="285" y="-196" on="0"/>
        <pt x="285" y="-165" on="1"/>
        <pt x="285" y="-127" on="0"/>
        <pt x="339" y="-45" on="0"/>
        <pt x="392" y="-3" on="1"/>
        <pt x="369" y="-8" on="0"/>
        <pt x="355" y="-8" on="1"/>
        <pt x="309" y="-8" on="0"/>
        <pt x="309" y="33" on="1"/>
        <pt x="310" y="46" on="0"/>
        <pt x="315" y="85" on="0"/>
        <pt x="316" y="94" on="1"/>
        <pt x="284" y="50" on="0"/>
        <pt x="187" y="-8" on="0"/>
        <pt x="150" y="-8" on="1"/>
        <pt x="34" y="-8" on="0"/>
        <pt x="34" y="142" on="1"/>
        <pt x="34" y="253" on="0"/>
        <pt x="104" y="415" on="0"/>
        <pt x="232" y="500" on="0"/>
        <pt x="319" y="500" on="1"/>
        <pt x="346" y="500" on="0"/>
        <pt x="416" y="486" on="0"/>
        <pt x="416" y="485" on="1"/>
        <pt x="438" y="524" on="1"/>
        <pt x="469" y="516" on="1"/>
        <pt x="408" y="202" on="1"/>
      </contour>
      <contour>
        <pt x="210" y="53" on="0"/>
        <pt x="299" y="120" on="0"/>
        <pt x="321" y="154" on="1"/>
        <pt x="322" y="154" on="0"/>
        <pt x="375" y="429" on="1"/>
        <pt x="362" y="439" on="0"/>
        <pt x="324" y="452" on="0"/>
        <pt x="308" y="452" on="1"/>
        <pt x="246" y="452" on="0"/>
        <pt x="161" y="365" on="0"/>
        <pt x="118" y="225" on="0"/>
        <pt x="118" y="144" on="1"/>
        <pt x="118" y="95" on="0"/>
        <pt x="152" y="53" on="0"/>
        <pt x="183" y="53" on="1"/>
      </contour>
    </TTGlyph>
    <TTGlyph name="approxequal" xMin="53" yMin="174" xMax="454" yMax="440">
      <contour>
        <pt x="139" y="379" on="0"/>
        <pt x="102" y="353" on="0"/>
        <pt x="83" y="323" on="1"/>
        <pt x="53" y="343" on="1"/>
        <pt x="100" y="438" on="0"/>
        <pt x="166" y="438" on="1"/>
        <pt x="186" y="438" on="0"/>
        <pt x="225" y="425" on="0"/>
        <pt x="254" y="412" on="1"/>
        <pt x="283" y="399" on="0"/>
        <pt x="322" y="386" on="0"/>
        <pt x="341" y="386" on="1"/>
        <pt x="368" y="386" on="0"/>
        <pt x="403" y="410" on="0"/>
        <pt x="422" y="440" on="1"/>
        <pt x="454" y="420" on="1"/>
        <pt x="401" y="324" on="0"/>
        <pt x="337" y="324" on="1"/>
        <pt x="321" y="324" on="0"/>
        <pt x="287" y="335" on="0"/>
        <pt x="255" y="349" on="0"/>
        <pt x="250" y="351" on="1"/>
        <pt x="221" y="365" on="0"/>
        <pt x="180" y="379" on="0"/>
        <pt x="162" y="379" on="1"/>
      </contour>
      <contour>
        <pt x="139" y="230" on="0"/>
        <pt x="102" y="204" on="0"/>
        <pt x="83" y="174" on="1"/>
        <pt x="53" y="196" on="1"/>
        <pt x="100" y="290" on="0"/>
        <pt x="166" y="290" on="1"/>
        <pt x="186" y="290" on="0"/>
        <pt x="227" y="276" on="0"/>
        <pt x="254" y="263" on="1"/>
        <pt x="283" y="250" on="0"/>
        <pt x="322" y="237" on="0"/>
        <pt x="341" y="237" on="1"/>
        <pt x="368" y="237" on="0"/>
        <pt x="403" y="261" on="0"/>
        <pt x="422" y="291" on="1"/>
        <pt x="454" y="272" on="1"/>
        <pt x="402" y="177" on="0"/>
        <pt x="337" y="177" on="1"/>
        <pt x="320" y="177" on="0"/>
        <pt x="282" y="190" on="0"/>
        <pt x="250" y="203" on="1"/>
        <pt x="192" y="230" on="0"/>
        <pt x="162" y="230" on="1"/>
      </contour>
    </TTGlyph>
    <TTGlyph name="aring" xMin="34" yMin="-8" xMax="469" yMax="737">
      <contour>
        <pt x="265" y="536" on="0"/>
        <pt x="222" y="580" on="0"/>
        <pt x="222" y="616" on="1"/>
        <pt x="222" y="667" on="0"/>
        <pt x="285" y="737" on="0"/>
        <pt x="339" y="737" on="1"/>
        <pt x="380" y="737" on="0"/>
        <pt x="423" y="693" on="0"/>
        <pt x="423" y="656" on="1"/>
        <pt x="423" y="606" on="0"/>
        <pt x="359" y="536" on="0"/>
        <pt x="307" y="536" on="1"/>
      </contour>
      <contour>
        <pt x="343" y="571" on="0"/>
        <pt x="369" y="621" on="0"/>
        <pt x="369" y="660" on="1"/>
        <pt x="369" y="702" on="0"/>
        <pt x="333" y="702" on="1"/>
        <pt x="303" y="702" on="0"/>
        <pt x="276" y="652" on="0"/>
        <pt x="276" y="613" on="1"/>
        <pt x="276" y="593" on="0"/>
        <pt x="292" y="571" on="0"/>
        <pt x="313" y="571" on="1"/>
      </contour>
      <contour>
        <pt x="397" y="144" on="0"/>
        <pt x="388" y="54" on="0"/>
        <pt x="387" y="50" on="1"/>
        <pt x="466" y="50" on="1"/>
        <pt x="466" y="20" on="1"/>
        <pt x="421" y="4" on="0"/>
        <pt x="374" y="-8" on="0"/>
        <pt x="355" y="-8" on="1"/>
        <pt x="309" y="-8" on="0"/>
        <pt x="309" y="33" on="1"/>
        <pt x="310" y="46" on="0"/>
        <pt x="315" y="85" on="0"/>
        <pt x="316" y="94" on="1"/>
        <pt x="284" y="50" on="0"/>
        <pt x="187" y="-8" on="0"/>
        <pt x="150" y="-8" on="1"/>
        <pt x="34" y="-8" on="0"/>
        <pt x="34" y="142" on="1"/>
        <pt x="34" y="253" on="0"/>
        <pt x="104" y="415" on="0"/>
        <pt x="232" y="500" on="0"/>
        <pt x="319" y="500" on="1"/>
        <pt x="346" y="500" on="0"/>
        <pt x="416" y="486" on="0"/>
        <pt x="416" y="485" on="1"/>
        <pt x="438" y="524" on="1"/>
        <pt x="469" y="516" on="1"/>
        <pt x="408" y="202" on="1"/>
      </contour>
      <contour>
        <pt x="210" y="53" on="0"/>
        <pt x="299" y="120" on="0"/>
        <pt x="321" y="154" on="1"/>
        <pt x="322" y="154" on="0"/>
        <pt x="375" y="429" on="1"/>
        <pt x="362" y="439" on="0"/>
        <pt x="324" y="452" on="0"/>
        <pt x="308" y="452" on="1"/>
        <pt x="246" y="452" on="0"/>
        <pt x="161" y="365" on="0"/>
        <pt x="118" y="225" on="0"/>
        <pt x="118" y="144" on="1"/>
        <pt x="118" y="95" on="0"/>
        <pt x="152" y="53" on="0"/>
        <pt x="183" y="53" on="1"/>
      </contour>
    </TTGlyph>
    <TTGlyph name="aringacute" xMin="34" yMin="-8" xMax="522" yMax="862">
      <component glyphName=".ttfautohint" x="34" y="0" flags="0x0"/>
      <component glyphName="a" x="0" y="0" flags="0x0"/>
      <component glyphName="uni030A" x="362" y="-118" flags="0x4"/>
      <component glyphName="acutecomb" x="445" y="62" flags="0x4"/>
    </TTGlyph>
    <TTGlyph name="arrowdown" xMin="73" yMin="29" xMax="495" yMax="491">
      <contour>
        <pt x="100" y="347" on="1"/>
        <pt x="257" y="174" on="1"/>
        <pt x="244" y="491" on="1"/>
        <pt x="336" y="491" on="1"/>
        <pt x="323" y="174" on="1"/>
        <pt x="468" y="347" on="1"/>
        <pt x="495" y="319" on="1"/>
        <pt x="297" y="29" on="1"/>
        <pt x="284" y="29" on="1"/>
        <pt x="73" y="319" on="1"/>
      </contour>
    </TTGlyph>
    <TTGlyph name="arrowleft" xMin="53" yMin="49" xMax="515" yMax="471">
      <contour>
        <pt x="515" y="313" on="1"/>
        <pt x="515" y="220" on="1"/>
        <pt x="198" y="233" on="1"/>
        <pt x="370" y="77" on="1"/>
        <pt x="343" y="49" on="1"/>
        <pt x="53" y="260" on="1"/>
        <pt x="53" y="273" on="1"/>
        <pt x="343" y="471" on="1"/>
        <pt x="370" y="444" on="1"/>
        <pt x="198" y="299" on="1"/>
      </contour>
    </TTGlyph>
    <TTGlyph name="arrowright" xMin="53" yMin="49" xMax="515" yMax="471">
      <contour>
        <pt x="197" y="77" on="1"/>
        <pt x="369" y="233" on="1"/>
        <pt x="53" y="220" on="1"/>
        <pt x="53" y="313" on="1"/>
        <pt x="369" y="299" on="1"/>
        <pt x="197" y="444" on="1"/>
        <pt x="225" y="471" on="1"/>
        <pt x="515" y="273" on="1"/>
        <pt x="515" y="260" on="1"/>
        <pt x="225" y="49" on="1"/>
      </contour>
    </TTGlyph>
    <TTGlyph name="arrowup" xMin="73" yMin="29" xMax="495" yMax="491">
      <contour>
        <pt x="467" y="173" on="1"/>
        <pt x="310" y="346" on="1"/>
        <pt x="324" y="29" on="1"/>
        <pt x="230" y="29" on="1"/>
        <pt x="245" y="346" on="1"/>
        <pt x="99" y="173" on="1"/>
        <pt x="73" y="201" on="1"/>
        <pt x="270" y="491" on="1"/>
        <pt x="284" y="491" on="1"/>
        <pt x="495" y="201" on="1"/>
      </contour>
    </TTGlyph>
    <TTGlyph name="asciicircum" xMin="56" yMin="252" xMax="466" yMax="610">
      <contour>
        <pt x="233" y="610" on="1"/>
        <pt x="290" y="610" on="1"/>
        <pt x="466" y="252" on="1"/>
        <pt x="397" y="252" on="1"/>
        <pt x="262" y="532" on="1"/>
        <pt x="125" y="252" on="1"/>
        <pt x="56" y="252" on="1"/>
      </contour>
    </TTGlyph>
    <TTGlyph name="asciitilde" xMin="59" yMin="228" xMax="460" yMax="344">
      <contour>
        <pt x="145" y="283" on="0"/>
        <pt x="108" y="258" on="0"/>
        <pt x="89" y="228" on="1"/>
        <pt x="59" y="248" on="1"/>
        <pt x="106" y="342" on="0"/>
        <pt x="172" y="342" on="1"/>
        <pt x="192" y="342" on="0"/>
        <pt x="231" y="329" on="0"/>
        <pt x="260" y="316" on="1"/>
        <pt x="289" y="303" on="0"/>
        <pt x="328" y="290" on="0"/>
        <pt x="347" y="290" on="1"/>
        <pt x="374" y="290" on="0"/>
        <pt x="409" y="314" on="0"/>
        <pt x="428" y="344" on="1"/>
        <pt x="460" y="324" on="1"/>
        <pt x="408" y="230" on="0"/>
        <pt x="343" y="230" on="1"/>
        <pt x="326" y="230" on="0"/>
        <pt x="288" y="243" on="0"/>
        <pt x="256" y="256" on="1"/>
        <pt x="198" y="283" on="0"/>
        <pt x="168" y="283" on="1"/>
      </contour>
    </TTGlyph>
    <TTGlyph name="asterisk" xMin="35" yMin="431" xMax="356" yMax="738">
      <contour>
        <pt x="226" y="567" on="1"/>
        <pt x="295" y="477" on="1"/>
        <pt x="226" y="431" on="1"/>
        <pt x="188" y="541" on="1"/>
        <pt x="184" y="541" on="1"/>
        <pt x="104" y="431" on="1"/>
        <pt x="48" y="477" on="1"/>
        <pt x="154" y="567" on="1"/>
        <pt x="153" y="572" on="1"/>
        <pt x="35" y="591" on="1"/>
        <pt x="72" y="667" on="1"/>
        <pt x="174" y="612" on="1"/>
        <pt x="180" y="613" on="1"/>
        <pt x="185" y="738" on="1"/>
        <pt x="262" y="738" on="1"/>
        <pt x="220" y="613" on="1"/>
        <pt x="224" y="610" on="1"/>
        <pt x="347" y="667" on="1"/>
        <pt x="356" y="591" on="1"/>
        <pt x="229" y="572" on="1"/>
      </contour>
    </TTGlyph>
    <TTGlyph name="at" xMin="18" yMin="-83" xMax="727" yMax="560">
      <contour>
        <pt x="531" y="560" on="0"/>
        <pt x="663" y="495" on="0"/>
        <pt x="727" y="392" on="0"/>
        <pt x="727" y="333" on="1"/>
        <pt x="727" y="260" on="0"/>
        <pt x="656" y="130" on="0"/>
        <pt x="531" y="51" on="0"/>
        <pt x="454" y="51" on="1"/>
        <pt x="412" y="51" on="0"/>
        <pt x="412" y="103" on="1"/>
        <pt x="412" y="115" on="0"/>
        <pt x="416" y="139" on="1"/>
        <pt x="393" y="96" on="0"/>
        <pt x="330" y="51" on="0"/>
        <pt x="294" y="51" on="1"/>
        <pt x="245" y="51" on="0"/>
        <pt x="195" y="122" on="0"/>
        <pt x="195" y="176" on="1"/>
        <pt x="195" y="238" on="0"/>
        <pt x="252" y="355" on="0"/>
        <pt x="360" y="430" on="0"/>
        <pt x="431" y="430" on="1"/>
        <pt x="464" y="430" on="0"/>
        <pt x="492" y="423" on="1"/>
        <pt x="508" y="448" on="1"/>
        <pt x="525" y="449" on="1"/>
        <pt x="542" y="449" on="0"/>
        <pt x="542" y="442" on="1"/>
        <pt x="536" y="422" on="0"/>
        <pt x="503" y="293" on="0"/>
        <pt x="471" y="151" on="0"/>
        <pt x="471" y="126" on="1"/>
        <pt x="471" y="113" on="0"/>
        <pt x="480" y="102" on="0"/>
        <pt x="490" y="102" on="1"/>
        <pt x="537" y="102" on="0"/>
        <pt x="611" y="170" on="0"/>
        <pt x="652" y="276" on="0"/>
        <pt x="652" y="329" on="1"/>
        <pt x="652" y="382" on="0"/>
        <pt x="599" y="467" on="0"/>
        <pt x="501" y="517" on="0"/>
        <pt x="437" y="517" on="1"/>
        <pt x="341" y="517" on="0"/>
        <pt x="184" y="424" on="0"/>
        <pt x="95" y="265" on="0"/>
        <pt x="95" y="170" on="1"/>
        <pt x="95" y="71" on="0"/>
        <pt x="195" y="-34" on="0"/>
        <pt x="294" y="-34" on="1"/>
        <pt x="357" y="-34" on="0"/>
        <pt x="476" y="-12" on="0"/>
        <pt x="544" y="15" on="1"/>
        <pt x="556" y="-13" on="1"/>
        <pt x="425" y="-83" on="0"/>
        <pt x="281" y="-83" on="1"/>
        <pt x="156" y="-83" on="0"/>
        <pt x="18" y="54" on="0"/>
        <pt x="18" y="175" on="1"/>
        <pt x="18" y="270" on="0"/>
        <pt x="125" y="448" on="0"/>
        <pt x="315" y="560" on="0"/>
        <pt x="434" y="560" on="1"/>
      </contour>
      <contour>
        <pt x="368" y="109" on="0"/>
        <pt x="440" y="258" on="0"/>
        <pt x="457" y="376" on="1"/>
        <pt x="434" y="385" on="0"/>
        <pt x="408" y="385" on="1"/>
        <pt x="366" y="385" on="0"/>
        <pt x="304" y="319" on="0"/>
        <pt x="272" y="222" on="0"/>
        <pt x="272" y="177" on="1"/>
        <pt x="272" y="109" on="0"/>
        <pt x="318" y="109" on="1"/>
      </contour>
    </TTGlyph>
</ttFont>
